<svg width="32" height="31" viewBox="0 0 32 31" fill="none" xmlns="http://www.w3.org/2000/svg">
<path d="M4.9455 30.976C2.21822 30.976 0 28.7578 0 26.0305V12.1831C0 9.52966 2.05074 7.38265 4.68966 7.24945L18.5595 0.315193C18.9775 0.106823 19.4233 0 19.8849 0C20.2027 0 20.5205 0.0514332 20.8252 0.152981C21.5769 0.403553 22.1862 0.932392 22.5409 1.64191L25.3619 7.28374C27.8016 7.59893 29.673 9.69714 29.673 12.1831V13.3423C30.8402 13.7564 31.6512 14.8748 31.6512 16.1395V22.0741C31.6512 23.3401 30.8402 24.4585 29.673 24.8713V26.0305C29.673 28.7578 27.4548 30.976 24.7275 30.976H4.9455ZM4.9455 9.21578C3.30887 9.21578 1.9782 10.5465 1.9782 12.1831V26.0305C1.9782 27.6671 3.30887 28.9978 4.9455 28.9978H24.7275C26.3642 28.9978 27.6948 27.6671 27.6948 26.0305V25.0414H23.7384C20.4665 25.0414 17.8038 22.3787 17.8038 19.1068C17.8038 15.8348 20.4665 13.1722 23.7384 13.1722H27.6948V12.1831C27.6948 10.5478 26.3642 9.21578 24.7288 9.21578H4.9455ZM23.7384 15.1504C21.5571 15.1504 19.782 16.9255 19.782 19.1068C19.782 21.2881 21.5571 23.0632 23.7384 23.0632H28.6839C29.2299 23.0632 29.673 22.6201 29.673 22.0741V16.1395C29.673 15.5948 29.2299 15.1504 28.6839 15.1504H23.7384ZM23.1265 7.23758L20.7711 2.52682C20.6524 2.29076 20.4506 2.11404 20.2001 2.03095C20.0972 1.99666 19.9917 1.97952 19.8849 1.97952C19.7319 1.97952 19.5829 2.01513 19.4444 2.08502L9.13533 7.23758H23.1265Z" fill="black" />
<path d="M23.7412 17.9521C24.3784 17.9521 24.8954 18.4683 24.8955 19.1055C24.8955 19.7428 24.3785 20.2598 23.7412 20.2598C23.104 20.2596 22.5879 19.7427 22.5879 19.1055C22.588 18.4684 23.1041 17.9523 23.7412 17.9521Z" fill="black" stroke-width="0.659401"/>
</svg>
