<svg width="125" height="52" viewBox="0 0 125 52" fill="none" xmlns="http://www.w3.org/2000/svg">
<path fill-rule="evenodd" clip-rule="evenodd" d="M54.4471 45.9746L49.3438 43.0185C55.3277 46.3984 62.7819 40.7401 66.5886 36.37C71.9095 30.2837 76.5966 19.8882 74.5804 11.7941C73.9864 9.41502 72.7858 7.30864 70.6294 6.03516L75.9942 9.14857C81.3758 12.5788 80.5329 21.2561 78.8597 26.5808C76.3875 34.4734 69.705 44.0255 61.5751 46.4823C59.1761 47.2103 56.6872 47.2439 54.4492 45.9767L54.4471 45.9746Z" fill="black"/>
<path fill-rule="evenodd" clip-rule="evenodd" d="M54.7757 45.4123C56.6476 46.4634 58.8709 46.6123 61.3934 45.8507C69.1844 43.4926 75.7623 34.2719 78.2408 26.3772C80.0541 20.6014 80.4641 12.7634 75.6472 9.6961L74.1518 8.82963C74.5994 9.66463 74.9612 10.5961 75.2143 11.6304C77.3268 20.1084 72.4827 30.613 67.0845 36.8C63.6041 40.7862 58.4568 44.5815 53.5459 44.6989L54.7757 45.4102V45.4123ZM58.3836 47.6424C56.8421 47.6424 55.4241 47.2753 54.1336 46.5473C54.1336 46.5473 54.1294 46.5473 54.1231 46.541L49.0198 43.5849C48.7102 43.4066 48.6035 43.0122 48.7813 42.6954C48.9591 42.3849 49.3586 42.2737 49.6619 42.4499C55.353 45.6682 62.6734 39.8652 66.1035 35.9398C71.4453 29.8137 75.8627 19.6091 73.951 11.9472C73.3361 9.46742 72.1063 7.66734 70.2992 6.59527C69.9896 6.41065 69.8892 6.01203 70.067 5.70573C70.249 5.38893 70.6443 5.28823 70.9601 5.46656L76.3249 8.57997C81.7839 12.0605 81.4408 20.5532 79.4894 26.7737C76.9064 34.9957 69.9959 44.6171 61.7719 47.1011C60.586 47.462 59.4608 47.6403 58.3857 47.6403L58.3836 47.6424Z" fill="black"/>
<path fill-rule="evenodd" clip-rule="evenodd" d="M63.4875 9.33609C55.2803 14.0943 48.625 25.6521 48.625 35.1623C48.625 44.6725 55.2803 48.5202 63.4875 43.7683C71.6948 39.0163 78.3501 27.4543 78.3501 17.9483C78.3501 8.44235 71.6948 4.58415 63.4875 9.33819V9.33609Z" fill="white"/>
<path fill-rule="evenodd" clip-rule="evenodd" d="M70.1203 7.95345C68.1982 7.95345 66.0481 8.60383 63.808 9.90458C55.789 14.5453 49.2718 25.8745 49.2718 35.1644C49.2718 39.5177 50.7024 42.7423 53.2959 44.2487C55.8957 45.755 59.4032 45.3816 63.1597 43.2081C71.1724 38.561 77.6959 27.2319 77.6959 17.9483C77.6959 13.5907 76.2611 10.3661 73.6676 8.86398C72.6197 8.25347 71.4234 7.95345 70.1203 7.95345ZM56.8411 46.4641C55.3122 46.4641 53.8983 46.1075 52.6455 45.3795C49.6315 43.6277 47.9688 39.9981 47.9688 35.1623C47.9688 25.457 54.7788 13.6222 63.1597 8.77377C67.3323 6.35059 71.2958 5.97715 74.316 7.72897C77.3299 9.4745 78.999 13.104 78.999 17.9462C78.999 27.6473 72.1826 39.482 63.8101 44.3347C61.3651 45.7466 58.9933 46.4641 56.8432 46.4641H56.8411Z" fill="black"/>
<path fill-rule="evenodd" clip-rule="evenodd" d="M59.9829 3.22299C63.7289 1.10612 68.6064 -0.433805 72.6723 1.7544L77.782 4.71256C70.2671 0.959258 61.3571 7.92458 56.718 13.3626C50.5061 20.6447 45.1685 32.5571 47.076 42.2183C47.6909 45.359 49.0713 48.0948 51.782 49.8948C50.5626 49.1941 47.0111 47.2325 46.0783 46.5255C40.2199 42.084 41.1799 32.2109 43.0351 26.0512C45.7227 17.1243 51.9012 8.01899 59.9829 3.22089V3.22299Z" fill="black"/>
<path fill-rule="evenodd" clip-rule="evenodd" d="M60.3097 3.78924C52.8826 8.20341 46.5055 16.8031 43.663 26.2356C41.6614 32.8611 41.2034 42.0125 46.472 46.0029C46.7815 46.242 47.4362 46.6428 48.1954 47.0875C47.3818 45.7532 46.7983 44.1797 46.4343 42.3398C44.4662 32.3345 50.1301 20.0822 56.227 12.9344C60.5941 7.81528 67.239 2.80738 73.545 3.01718L72.3528 2.32274C68.3579 0.172305 63.6018 1.93462 60.3118 3.79134L60.3097 3.78924ZM51.7803 50.5513C51.6695 50.5513 51.5586 50.524 51.4541 50.4632L50.3246 49.8191C48.6848 48.8897 46.4406 47.6225 45.6856 47.0456C39.8899 42.6545 40.1932 33.2261 42.4165 25.8601C45.3488 16.1212 51.9539 7.23204 59.6508 2.66262C59.6508 2.66262 59.6613 2.65633 59.6613 2.65213C63.2357 0.633864 68.45 -1.25642 72.9823 1.18354L78.1087 4.15219C78.4141 4.33052 78.5249 4.71445 78.3576 5.02495C78.1861 5.34175 77.8034 5.45924 77.4938 5.30399C70.7444 1.93042 62.3531 7.76702 57.2163 13.7862C51.3139 20.7011 45.8278 32.5086 47.7123 42.0922C48.3711 45.4322 49.8185 47.8113 52.1401 49.3513C52.4329 49.5464 52.5166 49.9408 52.3283 50.2408C52.207 50.4401 51.9958 50.5513 51.7803 50.5513Z" fill="black"/>
<path fill-rule="evenodd" clip-rule="evenodd" d="M54.1878 45.8195L49.0781 42.8613L54.4429 45.9747L54.1878 45.8195Z" fill="black"/>
<path fill-rule="evenodd" clip-rule="evenodd" d="M54.4498 46.6319C54.3389 46.6319 54.2281 46.6047 54.1235 46.5417L48.7587 43.4283C48.4554 43.2458 48.3425 42.8493 48.5265 42.5325C48.7043 42.222 49.1038 42.115 49.4133 42.2933L54.5167 45.2494C54.5272 45.2557 54.5272 45.262 54.5272 45.262L54.7928 45.4172C55.0919 45.606 55.1965 46.0005 55.0145 46.3131C54.8932 46.5124 54.6757 46.6298 54.4498 46.6298V46.6319Z" fill="black"/>
<path fill-rule="evenodd" clip-rule="evenodd" d="M75.7422 8.99162C74.3513 8.18599 72.6948 7.85241 70.8542 8.03493C69.0806 8.21326 67.1417 8.86784 65.0962 10.0469C63.0569 11.2302 61.1118 12.8267 59.3382 14.7002C57.4997 16.6514 55.8474 18.9088 54.4502 21.3215C53.0656 23.7342 51.9466 26.3021 51.1853 28.8764C50.4491 31.3499 50.0433 33.8402 50.0433 36.2025C50.0433 38.5649 50.4491 40.5831 51.1853 42.2112C51.9445 43.9 53.0635 45.1735 54.4502 45.975C55.8474 46.7806 57.4976 47.1205 59.3382 46.9358C61.1118 46.7575 63.0569 46.1008 65.0962 44.9176C67.1417 43.7343 69.0806 42.144 70.8542 40.2642C72.6948 38.3131 74.3513 36.062 75.7422 33.6493C77.133 31.2366 78.2541 28.6686 79.0113 26.0944C79.7433 23.6146 80.147 21.1306 80.147 18.7682C80.147 16.4059 79.7433 14.3876 79.0113 12.7596C78.252 11.0686 77.133 9.79724 75.7422 8.99162ZM52.0889 19.9536C55.4186 14.1716 60.0179 9.11959 65.0962 6.17821C70.1787 3.23893 74.778 2.9599 78.1035 4.88795C81.4333 6.8181 83.4893 10.9469 83.4893 16.8339C83.4893 22.7209 81.4333 29.2309 78.1035 35.0172C74.778 40.7971 70.1787 45.8449 65.0962 48.7863C60.02 51.7318 55.4207 52.0046 52.0889 50.0807C48.757 48.1506 46.7031 44.0217 46.7031 38.1348C46.7031 32.2478 48.7591 25.7336 52.0889 19.9515V19.9536Z" fill="#05B173"/>
<path fill-rule="evenodd" clip-rule="evenodd" d="M71.821 8.64203C71.5282 8.64203 71.2228 8.65252 70.9175 8.68609C69.1836 8.85812 67.3326 9.5085 65.4209 10.6162C63.482 11.7387 61.5975 13.2681 59.8072 15.1521C58.0189 17.0529 56.4042 19.239 55.0133 21.6496C53.6287 24.056 52.5474 26.5526 51.8049 29.0597C51.0687 31.5563 50.6964 33.9564 50.6964 36.2033C50.6964 38.4503 51.0561 40.3489 51.7777 41.9455C52.4763 43.4959 53.4907 44.6645 54.777 45.4135C56.0738 46.1583 57.5797 46.452 59.2717 46.2862C61.0056 46.1142 62.8566 45.4638 64.7746 44.3561C66.7135 43.2274 68.6042 41.7 70.3841 39.816C72.1787 37.9153 73.7913 35.7292 75.1779 33.3228C76.5626 30.9164 77.6439 28.4198 78.3864 25.9127C79.1226 23.4224 79.4991 21.0223 79.4991 18.769C79.4991 16.5158 79.1331 14.6171 78.4198 13.0268C77.715 11.4701 76.7069 10.3036 75.4164 9.55885C74.3643 8.94624 73.1554 8.64203 71.8252 8.64203H71.821ZM58.3661 47.6373C56.8079 47.6373 55.3856 47.2702 54.1223 46.5422C52.5934 45.6589 51.4075 44.2911 50.5918 42.4847C49.7949 40.7161 49.3892 38.6097 49.3892 36.2033C49.3892 33.7969 49.7824 31.3066 50.5583 28.6883C51.3301 26.0805 52.4491 23.4916 53.8881 20.995C55.3292 18.4984 57.0024 16.2305 58.866 14.2521C60.7379 12.2778 62.7228 10.6708 64.7725 9.48752C66.8389 8.28747 68.8677 7.58045 70.7857 7.38743C72.758 7.18812 74.5379 7.54268 76.0606 8.42594C77.5958 9.31548 78.788 10.6771 79.6016 12.4897C80.3943 14.2458 80.7979 16.3584 80.7979 18.7711C80.7979 21.1838 80.4047 23.6804 79.6288 26.2861C78.8591 28.8939 77.7401 31.4828 76.299 33.9794C74.8684 36.4698 73.1889 38.744 71.3211 40.7161C69.4597 42.6903 67.4706 44.2952 65.4188 45.4869C63.3419 46.687 61.3173 47.394 59.4014 47.5891C59.0458 47.6227 58.7028 47.6394 58.364 47.6394L58.3661 47.6373ZM73.306 4.30759C74.9458 4.30759 76.4538 4.69152 77.7736 5.45309C81.0385 7.34337 82.8393 11.3841 82.8393 16.8368C82.8393 22.2894 80.9548 28.7554 77.5351 34.6928C74.1154 40.6301 69.5831 45.4387 64.7725 48.229C60.0665 50.9522 55.6785 51.4095 52.4135 49.5192C49.1486 47.629 47.3541 43.5882 47.3541 38.1398C47.3541 32.6913 49.2323 26.2211 52.652 20.2796C56.0717 14.3423 60.604 9.53997 65.4209 6.74964C68.2194 5.1321 70.9028 4.30968 73.306 4.30968V4.30759ZM56.8811 51.9676C55.0133 51.9676 53.2899 51.5333 51.7652 50.6501C48.0736 48.5143 46.0469 44.0729 46.0469 38.1377C46.0469 32.2024 47.9983 25.7574 51.5267 19.6271C55.0573 13.4905 59.7611 8.51405 64.7704 5.61254C69.8863 2.65018 74.7408 2.18862 78.4261 4.32227C82.1114 6.45593 84.1381 10.8974 84.1381 16.8347C84.1381 22.772 82.193 29.2086 78.6625 35.3452C75.1319 41.4756 70.428 46.452 65.4188 49.3535C62.4153 51.0927 59.5123 51.9655 56.879 51.9655L56.8811 51.9676Z" fill="black"/>
<path fill-rule="evenodd" clip-rule="evenodd" d="M74.33 15.5307L64.6169 36.0889L54.3516 33.1496L56.1942 29.2348L62.6445 31.081L70.5088 14.4355L74.33 15.5307Z" fill="#05B173"/>
<path fill-rule="evenodd" clip-rule="evenodd" d="M73.34 15.9794L70.8929 15.2744L63.0287 31.922L56.5783 30.0737L55.3485 32.694L64.2334 35.2347C67.2703 28.817 70.3052 22.3971 73.34 15.9773V15.9794ZM62.2673 30.231L69.8722 14.131C70.0228 13.8121 70.3575 13.6485 70.7088 13.7513L74.5238 14.8402C74.9484 14.9639 75.1513 15.4276 74.9672 15.8283L65.2541 36.3865C65.1181 36.697 64.7458 36.8585 64.4196 36.7662L54.1605 33.827C53.738 33.7116 53.533 33.2395 53.715 32.8451L55.5577 28.9303C55.7083 28.6114 56.045 28.4477 56.3922 28.5505L62.2673 30.2289V30.231Z" fill="black"/>
</svg>
