<svg width="400" height="400" viewBox="0 0 400 400" fill="none" xmlns="http://www.w3.org/2000/svg">
<path d="M208.401 339.999C288.819 339.999 354.001 274.612 354.001 193.974V193.225C354.001 112.571 288.804 47.1992 208.401 47.1992C127.998 47.1992 62.8008 112.586 62.8008 193.225V193.974C62.8008 274.627 127.982 339.999 208.401 339.999Z" stroke="#DD784B" stroke-width="3.2" stroke-miterlimit="10"/>
<mask id="mask0_1892_8759" style="mask-type:luminance" maskUnits="userSpaceOnUse" x="40" y="89" width="63" height="142">
<path d="M102.8 89.6016H40.4004V230.402H102.8V89.6016Z" fill="white"/>
</mask>
<g mask="url(#mask0_1892_8759)">
<path opacity="0.1" fill-rule="evenodd" clip-rule="evenodd" d="M87.3317 208.524C87.7789 207.941 87.9997 207.33 87.9997 206.71C87.9997 204.409 84.8909 202.352 80.0693 201.471C78.5173 201.186 76.8741 201.045 75.1877 201.039C73.5021 201.034 71.8637 201.18 70.3013 201.455C67.1821 202.011 64.6549 203.113 63.3621 204.479C62.6997 205.176 62.3597 205.91 62.3653 206.671C62.3653 207.433 62.6941 208.167 63.3565 208.864C64.6501 210.23 67.1765 211.342 70.2909 211.91C71.8421 212.19 73.4909 212.336 75.1773 212.336C76.8637 212.336 78.5069 212.201 80.0637 211.914C83.1781 211.364 85.7101 210.257 87.0085 208.896C87.1269 208.772 87.2349 208.642 87.3317 208.513V208.524Z" fill="#0083C3"/>
<path fill-rule="evenodd" clip-rule="evenodd" d="M43.9665 95.094L51.4233 90.79L51.6761 90.7252L51.9297 90.666L52.1505 90.6332L52.4409 90.6172H52.6889L52.9689 90.6332L53.2545 90.6764L53.5353 90.7412L53.8153 90.8276L54.1169 90.9308L54.4081 91.0604L54.7145 91.2004L55.0273 91.3732L95.7961 115.062C97.9297 116.374 99.3353 118.296 100.424 120.511C101.297 122.363 101.766 124.064 101.798 126.11L101.636 220.272C101.604 221.86 101.323 223.356 100.063 224.44L92.6009 228.744C93.8617 227.659 94.1529 226.164 94.1793 224.576L94.3361 130.42C94.3145 128.362 93.8081 126.666 92.9729 124.82C91.8737 122.595 90.4729 120.678 88.3449 119.372L47.5657 95.6772L47.2473 95.5092L46.9353 95.3532L46.6545 95.234L46.3529 95.1316L46.0729 95.0452L45.7873 94.9804L45.5073 94.9372L45.2273 94.91H44.9737L44.6993 94.926L44.4409 94.9588L44.2193 95.018L43.9609 95.094H43.9665Z" fill="#3D68EC"/>
<path fill-rule="evenodd" clip-rule="evenodd" d="M54.5377 92.2477C53.5305 91.6749 52.6793 91.4861 52.2321 91.7453L47.2001 94.3909L88.8681 118.517C90.9481 119.792 92.5265 121.655 93.8681 124.398C94.8809 126.558 95.2953 128.356 95.3497 130.419L95.1609 224.591C95.1609 225.099 95.1337 225.645 95.0209 226.206L99.4065 223.689C100.258 222.96 100.586 221.967 100.646 220.272L100.807 126.131C100.774 124.381 100.392 122.826 99.5465 120.958C98.3721 118.588 97.0249 116.989 95.2849 115.931L54.5377 92.2477ZM91.7825 229.327C91.5025 228.9 91.5617 228.323 91.9553 227.982C92.8065 227.264 93.1457 226.265 93.1945 224.569L93.3505 130.429C93.3289 128.669 92.9409 127.114 92.0681 125.245C90.9209 122.88 89.5737 121.276 87.8337 120.218L47.0817 96.5509L46.8281 96.4053L45.0289 95.9085L44.2689 96.0437C43.7681 96.1949 43.2617 95.9573 43.0673 95.4869C42.8681 95.0173 43.0353 94.4773 43.4881 94.2237L51.1433 89.8389C52.2857 89.4445 52.9321 89.5477 53.9073 90.1037L96.3297 114.214C98.4041 115.488 99.9777 117.351 101.319 120.105C102.326 122.254 102.746 124.052 102.806 126.115L102.618 220.298C102.59 221.837 102.358 223.781 100.559 225.304L93.1081 229.608C92.9409 229.694 92.7689 229.743 92.6017 229.743C92.3001 229.743 91.9825 229.596 91.7881 229.327H91.7825Z" fill="#14100D"/>
<path fill-rule="evenodd" clip-rule="evenodd" d="M88.1571 228.641L47.3835 204.947C44.0755 203.025 41.3819 198.063 41.3867 193.894L41.5539 99.7427C41.5595 95.5739 44.2587 93.7539 47.5771 95.6763L88.3459 119.371C91.6595 121.293 94.3427 126.255 94.3371 130.419L94.1811 224.575C94.1755 228.733 91.4763 230.563 88.1627 228.641H88.1571Z" fill="#3D68EC"/>
<path fill-rule="evenodd" clip-rule="evenodd" d="M45.0559 95.9096C44.6679 95.9096 44.3015 96.0008 43.9895 96.1792C43.0623 96.7136 42.5502 98.0048 42.5502 99.7432L42.3623 193.894C42.3623 197.69 44.8838 202.345 47.8846 204.084L88.6583 227.778C89.8327 228.47 90.9375 228.599 91.7135 228.14C92.6455 227.606 93.1839 226.31 93.1839 224.576L93.3399 130.419C93.3399 126.634 90.8295 121.969 87.8231 120.23L47.0814 96.536C46.3542 96.1304 45.6751 95.9144 45.0559 95.9096ZM87.6559 229.501L46.8719 205.812C43.2831 203.727 40.3687 198.382 40.4007 193.889L40.5679 99.7432C40.5679 97.2752 41.4351 95.348 43.0143 94.4512C44.4471 93.6304 46.2414 93.7496 48.0726 94.8136L88.8414 118.507C92.4407 120.592 95.3551 125.938 95.3495 130.419L95.1615 224.576C95.1615 227.049 94.2831 228.971 92.7151 229.868C92.0903 230.224 91.3895 230.402 90.6575 230.397C89.7087 230.397 88.6903 230.1 87.6615 229.495L87.6559 229.501Z" fill="#14100D"/>
<path fill-rule="evenodd" clip-rule="evenodd" d="M41.3809 192.765L41.5425 99.7427C41.5473 95.5739 44.2465 93.7539 47.5657 95.6763L88.3345 119.371C91.6473 121.293 94.3305 126.255 94.3249 130.419L94.1689 223.431L41.3809 192.765Z" fill="#FFE4D8"/>
<path fill-rule="evenodd" clip-rule="evenodd" d="M45.0558 95.9053C44.6678 95.9053 44.3014 95.9973 43.9886 96.1749C43.0622 96.7101 42.5502 98.0005 42.5502 99.7389L42.367 192.189L93.1943 221.689L93.3454 130.405C93.3454 126.619 90.835 121.954 87.8287 120.215L47.0814 96.5317C46.3542 96.1269 45.675 95.9109 45.0558 95.9053ZM93.6687 224.291L40.8854 193.625C40.5734 193.447 40.4062 193.113 40.4062 192.757L40.5678 99.7389C40.5678 97.2717 41.435 95.3437 43.0134 94.4525C44.447 93.6101 46.2406 93.7397 48.0726 94.8093L88.8414 118.504C92.4398 120.588 95.3551 125.933 95.3495 130.416L95.1606 223.427C95.1606 223.794 94.9886 224.113 94.6814 224.291C94.5142 224.377 94.3423 224.426 94.175 224.426C94.0079 224.426 93.8359 224.372 93.6687 224.291Z" fill="#14100D"/>
<path fill-rule="evenodd" clip-rule="evenodd" d="M100.398 120.422L100.425 120.514C101.298 122.366 101.766 124.067 101.798 126.113L101.637 220.275C101.604 221.863 101.324 223.363 100.063 224.443L92.6016 228.747C93.8624 227.662 94.1536 226.166 94.18 224.579L94.3368 130.422C94.3152 128.375 93.8408 126.669 92.9736 124.823L92.9464 124.731L100.398 120.432V120.422Z" fill="#14100D"/>
<path fill-rule="evenodd" clip-rule="evenodd" d="M99.9079 121.838L94.2023 125.132C94.9567 126.968 95.2903 128.572 95.3447 130.418L95.1559 224.591C95.1559 225.099 95.1287 225.644 95.0159 226.205L99.4015 223.689C100.253 222.961 100.581 221.967 100.641 220.271L100.802 126.137C100.769 124.657 100.495 123.323 99.9023 121.838H99.9079ZM91.7831 229.327C91.5031 228.901 91.5623 228.322 91.9559 227.982C92.8071 227.264 93.1463 226.265 93.1943 224.569L93.3511 130.435C93.3023 128.664 92.9415 127.109 92.0367 125.165C91.7935 124.695 91.9879 124.117 92.4407 123.857L99.8919 119.554C100.145 119.409 100.452 119.425 100.705 119.511C100.985 119.597 101.212 119.835 101.319 120.089C102.327 122.238 102.747 124.03 102.806 126.109L102.617 220.293C102.591 221.832 102.359 223.776 100.56 225.298L93.1087 229.602C92.9415 229.689 92.7687 229.737 92.6023 229.737C92.3007 229.737 91.9823 229.592 91.7887 229.321L91.7831 229.327Z" fill="#14100D"/>
<path fill-rule="evenodd" clip-rule="evenodd" d="M97.8645 161.948C98.4245 161.948 98.8717 161.494 98.8717 160.954L98.8829 151.488C98.8829 150.937 98.4357 150.484 97.8757 150.484C97.3365 150.484 96.8893 150.932 96.8893 151.483L96.8789 160.949C96.8789 161.494 97.3261 161.948 97.8589 161.948H97.8645Z" fill="#14100D"/>
<path fill-rule="evenodd" clip-rule="evenodd" d="M97.8879 146.26C98.4487 146.26 98.8959 145.812 98.8959 145.262L98.9063 135.795C98.9063 135.251 98.4591 134.802 97.8991 134.797C97.3383 134.791 96.9127 135.245 96.9127 135.791L96.9023 145.256C96.9023 145.807 97.3495 146.26 97.8831 146.26H97.8879Z" fill="#14100D"/>
<path fill-rule="evenodd" clip-rule="evenodd" d="M70.5559 215.112C70.8951 215.112 71.2343 214.922 71.4015 214.615C71.6815 214.134 71.5143 213.518 71.0407 213.249L62.8623 208.508C62.4151 208.238 61.7951 208.389 61.5151 208.875C61.2351 209.35 61.4023 209.96 61.8759 210.241L70.0543 214.982C70.1895 215.069 70.3831 215.117 70.5559 215.117V215.112Z" fill="#14100D"/>
<path fill-rule="evenodd" clip-rule="evenodd" d="M49.3536 101.095C49.9408 101.436 50.4208 102.326 50.4208 103.066C50.4208 103.817 49.936 104.136 49.3536 103.795C48.7616 103.455 48.2656 102.569 48.2656 101.825C48.2656 101.085 48.7664 100.755 49.3592 101.095H49.3536Z" fill="#7BCCEC"/>
<path fill-rule="evenodd" clip-rule="evenodd" d="M48.8423 104.657C47.9479 104.133 47.2695 102.913 47.2695 101.822C47.2695 101.083 47.5823 100.478 48.1151 100.164C48.6215 99.8731 49.2679 99.8947 49.8287 100.229C50.7231 100.753 51.4015 101.973 51.4015 103.069C51.4015 103.809 51.0943 104.408 50.5503 104.722C50.3295 104.867 50.0495 104.922 49.7959 104.922C49.4567 104.922 49.1447 104.835 48.8375 104.657H48.8423Z" fill="#14100D"/>
<path fill-rule="evenodd" clip-rule="evenodd" d="M59.4887 167.092C59.8279 167.092 60.1679 166.914 60.3615 166.601C60.6527 166.126 60.4855 165.505 60.0007 165.235L51.9671 160.602C51.5207 160.326 50.9007 160.494 50.6207 160.974C50.3407 161.449 50.5071 162.059 50.9815 162.335L58.9823 166.968C59.1495 167.059 59.3159 167.098 59.4887 167.098V167.092Z" fill="#14100D"/>
<path fill-rule="evenodd" clip-rule="evenodd" d="M59.4678 183.002C59.807 183.002 60.1462 182.818 60.3406 182.499C60.631 182.019 60.4646 181.414 59.979 181.133L51.9462 176.506C51.499 176.235 50.8798 176.398 50.599 176.867C50.319 177.353 50.4862 177.963 50.9606 178.233L58.9614 182.861C59.1278 182.953 59.295 183.002 59.4678 183.002Z" fill="#14100D"/>
<path fill-rule="evenodd" clip-rule="evenodd" d="M87.5052 127.978C87.8716 127.978 88.2108 127.794 88.378 127.47C88.658 126.995 88.4908 126.385 88.0172 126.109L85.6572 124.749C85.21 124.468 84.59 124.641 84.31 125.116C84.03 125.591 84.1972 126.212 84.6708 126.482L87.0364 127.843C87.182 127.929 87.3484 127.978 87.5108 127.978H87.5052Z" fill="#14100D"/>
<path fill-rule="evenodd" clip-rule="evenodd" d="M82.8173 125.247C83.1565 125.247 83.4957 125.069 83.6685 124.745C83.9485 124.27 83.7765 123.66 83.3021 123.379L80.9421 122.018C80.4949 121.748 79.8757 121.905 79.5957 122.39C79.3149 122.866 79.4821 123.476 79.9565 123.751L82.3165 125.112C82.4829 125.204 82.6557 125.247 82.8173 125.247Z" fill="#14100D"/>
<path fill-rule="evenodd" clip-rule="evenodd" d="M78.1015 122.528C78.4415 122.528 78.7751 122.349 78.9743 122.025C79.2335 121.55 79.0879 120.935 78.6079 120.654L76.2535 119.293C75.7799 119.028 75.1599 119.18 74.8695 119.666C74.6159 120.141 74.7615 120.751 75.2303 121.027L77.5903 122.387C77.7623 122.479 77.9295 122.522 78.0967 122.522L78.1015 122.528Z" fill="#14100D"/>
<path fill-rule="evenodd" clip-rule="evenodd" d="M85.2742 178.913C85.6142 178.913 85.9534 178.729 86.147 178.41C86.3894 177.93 86.223 177.314 85.7486 177.044L81.735 174.738C81.255 174.469 80.6678 174.636 80.3878 175.106C80.0966 175.581 80.2638 176.197 80.7486 176.466L84.763 178.772C84.9294 178.858 85.1022 178.907 85.2694 178.907L85.2742 178.913Z" fill="#14100D"/>
<path fill-rule="evenodd" clip-rule="evenodd" d="M85.2527 194.812C85.5919 194.812 85.9319 194.633 86.1255 194.305C86.3679 193.829 86.2007 193.225 85.7271 192.944L81.7127 190.638C81.2335 190.368 80.6463 190.53 80.3663 191.01C80.0751 191.485 80.2423 192.096 80.7271 192.371L84.7407 194.682C84.9079 194.769 85.0799 194.812 85.2471 194.812H85.2527Z" fill="#14100D"/>
<path fill-rule="evenodd" clip-rule="evenodd" d="M85.3235 147.13C85.6627 147.13 86.0027 146.951 86.1963 146.627C86.4387 146.142 86.2715 145.531 85.8355 145.262L81.8163 142.956C81.3419 142.686 80.7227 142.843 80.4419 143.318C80.1515 143.799 80.3187 144.403 80.8035 144.683L84.8171 146.99C84.9843 147.081 85.1563 147.124 85.3235 147.124V147.13Z" fill="#14100D"/>
<path fill-rule="evenodd" clip-rule="evenodd" d="M85.3012 163.021C85.6411 163.021 85.9803 162.842 86.1739 162.518C86.4171 162.038 86.2499 161.433 85.7755 161.152L81.7619 158.846C81.2819 158.577 80.6947 158.733 80.4147 159.214C80.1243 159.689 80.2907 160.304 80.7755 160.574L84.7899 162.88C84.9563 162.972 85.1291 163.021 85.2963 163.021H85.3012Z" fill="#14100D"/>
<path fill-rule="evenodd" clip-rule="evenodd" d="M59.532 135.314C59.8712 135.314 60.2104 135.137 60.4048 134.818C60.6952 134.332 60.5288 133.727 60.0432 133.452L52.0104 128.824C51.5632 128.549 50.944 128.7 50.664 129.186C50.3832 129.666 50.5504 130.282 51.0248 130.552L59.0256 135.18C59.192 135.271 59.3592 135.314 59.532 135.314Z" fill="#14100D"/>
<path fill-rule="evenodd" clip-rule="evenodd" d="M59.51 151.213C59.85 151.213 60.1892 151.024 60.3828 150.716C60.674 150.23 60.5068 149.62 60.022 149.35L51.9892 144.717C51.542 144.436 50.922 144.609 50.642 145.084C50.362 145.564 50.5292 146.169 51.0028 146.45L59.0036 151.078C59.1708 151.17 59.338 151.213 59.51 151.213Z" fill="#14100D"/>
<path fill-rule="evenodd" clip-rule="evenodd" d="M49.516 125.355L76.3304 140.934L76.32 151.755L49.5 136.182L49.516 125.355Z" fill="#00AF81"/>
<path fill-rule="evenodd" clip-rule="evenodd" d="M75.3498 141.507L50.497 127.09L50.4858 135.605L75.3394 150.023L75.3498 141.507ZM75.8082 152.615L48.9938 137.041C48.6866 136.864 48.4922 136.529 48.4922 136.183L48.5082 125.357C48.5082 125 48.7026 124.681 49.0098 124.493C49.3218 124.325 49.6882 124.325 50.001 124.493L76.8426 140.077C77.1498 140.254 77.349 140.584 77.349 140.935L77.3322 151.756C77.3322 152.107 77.1282 152.442 76.8258 152.615C76.6538 152.706 76.4866 152.749 76.3194 152.749C76.153 152.749 75.9802 152.706 75.813 152.615H75.8082Z" fill="#14100D"/>
<path fill-rule="evenodd" clip-rule="evenodd" d="M49.4945 140.945L76.3089 156.529L76.2977 167.345L49.4785 151.761L49.4945 140.945Z" fill="#00AF81"/>
<path fill-rule="evenodd" clip-rule="evenodd" d="M75.3247 157.406L50.4711 142.989L50.4607 151.504L75.3143 165.921L75.3247 157.406ZM75.7879 168.519L48.9734 152.935C48.6662 152.757 48.4727 152.433 48.4727 152.065L48.4886 141.25C48.4886 140.893 48.6831 140.564 48.9895 140.391C49.3023 140.213 49.6687 140.213 49.9815 140.391L76.8223 155.965C77.1295 156.142 77.3286 156.477 77.3286 156.829L77.3127 167.644C77.3127 168.001 77.1079 168.325 76.8062 168.508C76.6343 168.594 76.4671 168.643 76.2999 168.643C76.1327 168.643 75.9607 168.589 75.7935 168.508L75.7879 168.519Z" fill="#14100D"/>
<path fill-rule="evenodd" clip-rule="evenodd" d="M49.473 156.852L76.2882 172.424L76.277 183.245L49.457 167.667L49.473 156.852Z" fill="#00AF81"/>
<path fill-rule="evenodd" clip-rule="evenodd" d="M75.3012 173.309L50.4476 158.88L50.4372 167.396L75.29 181.813L75.3012 173.309ZM75.7644 184.405L48.95 168.832C48.6428 168.653 48.4492 168.329 48.4492 167.973L48.4652 157.157C48.4652 156.801 48.6588 156.472 48.966 156.293C49.2788 156.116 49.6452 156.116 49.9572 156.293L76.7988 171.867C77.106 172.045 77.3052 172.38 77.3052 172.736L77.2892 183.552C77.2892 183.909 77.0844 184.237 76.7828 184.41C76.61 184.502 76.4428 184.545 76.2764 184.545C76.1092 184.545 75.9364 184.502 75.77 184.41L75.7644 184.405Z" fill="#14100D"/>
<path fill-rule="evenodd" clip-rule="evenodd" d="M49.4515 172.734L76.2659 188.318L76.2499 199.134L49.4355 183.556L49.4515 172.734Z" fill="#00AF81"/>
<path fill-rule="evenodd" clip-rule="evenodd" d="M75.2797 189.194L50.4269 174.777L50.4157 183.292L75.2693 197.721L75.2797 189.194ZM75.7437 200.307L48.9285 184.733C48.6221 184.556 48.4277 184.215 48.4277 183.865L48.4437 173.043C48.4437 172.692 48.6381 172.363 48.9453 172.185C49.2573 172.006 49.6237 172.006 49.9365 172.185L76.7781 187.757C77.0845 187.936 77.2845 188.271 77.2845 188.627L77.2677 199.443C77.2677 199.799 77.0637 200.129 76.7613 200.307C76.5893 200.393 76.4221 200.442 76.2549 200.442C76.0885 200.442 75.9157 200.388 75.7485 200.307H75.7437Z" fill="#14100D"/>
</g>
<mask id="mask1_1892_8759" style="mask-type:luminance" maskUnits="userSpaceOnUse" x="257" y="225" width="103" height="128">
<path d="M359.599 225.602H257.199V352.802H359.599V225.602Z" fill="white"/>
</mask>
<g mask="url(#mask1_1892_8759)">
<path fill-rule="evenodd" clip-rule="evenodd" d="M297.015 349.445C284.942 345.447 280.811 336.564 287.802 329.627C294.793 322.685 310.251 320.303 322.219 324.319C334.292 328.317 338.527 337.195 331.536 344.137C324.55 351.079 309.088 353.461 297.015 349.441V349.445Z" fill="#F4D74B"/>
<path fill-rule="evenodd" clip-rule="evenodd" d="M309.617 323.604C301.255 323.604 293.101 326.072 288.648 330.502C286.214 333.005 285.155 335.775 285.897 338.55C286.852 342.549 291.087 346.188 297.44 348.276C309.088 352.136 324.02 349.902 330.586 343.266C333.129 340.768 334.079 337.993 333.446 335.218C332.491 331.22 328.151 327.58 321.903 325.493C317.984 324.205 313.748 323.604 309.617 323.604ZM309.513 352.62C305.169 352.62 300.721 351.98 296.595 350.627C289.395 348.233 284.63 344.036 283.463 339.121C282.508 335.525 283.779 331.842 286.956 328.752C294.155 321.516 310.251 319.005 322.64 323.141C329.839 325.536 334.713 329.746 335.875 334.647C336.722 338.257 335.451 341.926 332.383 345.017C327.514 349.888 318.618 352.62 309.509 352.62H309.513Z" fill="black"/>
<path fill-rule="evenodd" clip-rule="evenodd" d="M295.426 332.518L317.983 319.555V328.826L295.426 341.789V332.518Z" fill="#F4D74B"/>
<path fill-rule="evenodd" clip-rule="evenodd" d="M296.589 333.222V339.645L316.707 328.105V321.69L296.589 333.218V333.222ZM295.426 343.021C295.213 343.021 295.001 342.969 294.793 342.861C294.367 342.641 294.154 342.225 294.154 341.785V332.513C294.154 332.073 294.367 331.657 294.793 331.437L317.349 318.474C317.666 318.253 318.196 318.253 318.621 318.474C318.938 318.694 319.15 319.105 319.15 319.55V328.822C319.15 329.267 318.938 329.677 318.621 329.898L295.96 342.861C295.851 342.965 295.643 343.021 295.43 343.021H295.426Z" fill="black"/>
<path fill-rule="evenodd" clip-rule="evenodd" d="M263.448 351.155L260.272 349.309C258.788 348.078 258.684 347.308 258.471 345.406V286.656C258.892 282.277 260.801 278.755 264.611 276.17L349.007 227.633C350.808 226.834 351.549 226.527 353.35 227.223L356.527 229.06C354.73 228.372 353.984 228.68 352.292 229.471L267.788 278.016C263.977 280.6 262.068 283.977 261.648 288.489V347.239C261.86 349.136 261.964 349.906 263.448 351.151V351.155Z" fill="#F4D74B"/>
<path fill-rule="evenodd" clip-rule="evenodd" d="M351.659 228.053C351.13 228.053 350.6 228.286 349.542 228.748L265.142 277.258C261.861 279.546 260.06 282.67 259.739 286.764V345.406C259.847 346.724 259.847 347.222 260.481 347.844C260.481 347.684 260.373 347.528 260.373 347.36V288.493C260.798 283.526 263.02 279.792 267.047 276.995L351.659 228.39C351.872 228.294 351.976 228.212 352.189 228.126C351.976 228.074 351.872 228.053 351.659 228.053ZM263.45 352.4C263.237 352.4 263.024 352.334 262.816 352.231L259.639 350.386C257.522 348.7 257.418 347.433 257.205 345.522V286.656C257.626 281.75 259.852 277.911 263.875 275.158L348.374 226.557C350.387 225.627 351.551 225.217 353.772 226.06L357.162 227.979C357.691 228.303 357.903 228.999 357.691 229.582C357.375 230.174 356.632 230.447 356.103 230.218C354.727 229.699 354.406 229.859 352.818 230.598L268.319 279.096C265.034 281.417 263.237 284.451 262.915 288.597V347.243C263.02 348.898 263.128 349.266 264.187 350.195C264.717 350.606 264.825 351.323 264.504 351.859C264.187 352.21 263.871 352.395 263.445 352.395L263.45 352.4Z" fill="black"/>
<path fill-rule="evenodd" clip-rule="evenodd" d="M267.788 278.016L352.292 229.467C355.577 227.547 358.328 229.121 358.328 232.968V291.71C358.328 295.561 355.577 300.277 352.188 302.196L267.684 350.745C264.4 352.664 261.648 351.095 261.648 347.244V288.494C261.648 284.655 264.404 279.939 267.788 278.021V278.016Z" fill="#F4D74B"/>
<path fill-rule="evenodd" clip-rule="evenodd" d="M268.318 279.095C265.458 280.793 262.914 285.094 262.914 288.492V347.241C262.914 348.624 263.34 349.658 264.082 350.077C264.824 350.509 265.883 350.349 267.046 349.667L351.654 301.117C354.618 299.419 357.052 295.117 357.052 291.708V232.966C357.052 231.583 356.631 230.549 355.885 230.13C355.143 229.698 354.084 229.845 352.921 230.54L268.318 279.095ZM265.037 352.8C264.19 352.8 263.449 352.61 262.815 352.23C261.226 351.331 260.381 349.563 260.381 347.241V288.492C260.381 284.177 263.344 279.103 267.159 276.942L351.658 228.388C353.672 227.23 355.577 227.092 357.165 227.977C358.754 228.872 359.599 230.644 359.599 232.966V291.708C359.495 296.03 356.636 301.104 352.822 303.27L268.318 351.819C267.154 352.476 266.091 352.8 265.033 352.8H265.037Z" fill="black"/>
<path fill-rule="evenodd" clip-rule="evenodd" d="M263.765 282.08L260.588 280.242C259.212 282.3 258.684 284.241 258.471 286.657V345.407C258.684 347.309 258.788 348.074 260.272 349.31L263.448 351.156C261.964 349.911 261.86 349.141 261.648 347.244V288.494C261.86 286.091 262.389 284.15 263.765 282.08Z" fill="black"/>
<path fill-rule="evenodd" clip-rule="evenodd" d="M261.011 281.932C260.268 283.333 259.847 284.811 259.739 286.765V345.407C259.847 346.717 259.847 347.222 260.481 347.845C260.481 347.685 260.373 347.53 260.373 347.361V288.494C260.585 286.099 261.115 284.254 262.07 282.533L261.011 281.932ZM263.45 352.401C263.237 352.401 263.024 352.336 262.816 352.232L259.639 350.386C257.626 348.753 257.418 347.602 257.205 345.524V286.657C257.522 283.726 258.159 281.634 259.535 279.568C259.852 279.019 260.594 278.85 261.227 279.166L264.404 281.011C264.721 281.18 264.934 281.466 264.934 281.79C265.038 282.126 265.038 282.477 264.825 282.762C263.662 284.482 263.133 286.181 262.92 288.593V347.24C263.024 348.895 263.133 349.262 264.191 350.192C264.721 350.602 264.83 351.32 264.508 351.856C264.191 352.206 263.875 352.392 263.45 352.392V352.401Z" fill="black"/>
<path fill-rule="evenodd" clip-rule="evenodd" d="M268.213 282.633L351.762 234.58C353.35 233.716 354.518 234.42 354.518 236.154V292.73C354.518 294.459 353.355 296.559 351.762 297.424L268.104 345.476C266.62 346.332 265.457 345.636 265.457 343.907V287.34C265.457 285.598 266.729 283.489 268.208 282.637L268.213 282.633Z" fill="#FFE4D8"/>
<path fill-rule="evenodd" clip-rule="evenodd" d="M353.034 235.453C352.93 235.453 352.717 235.496 352.396 235.651L268.846 283.699C267.683 284.343 266.729 286.043 266.729 287.339V343.907C266.729 344.339 266.838 344.559 266.838 344.59C266.942 344.619 267.154 344.619 267.579 344.399L351.129 296.343C352.291 295.711 353.246 294.013 353.246 292.725L353.35 236.149C353.35 235.708 353.138 235.496 353.138 235.462C353.138 235.453 353.034 235.453 353.034 235.453ZM266.942 347.079C266.521 347.079 265.987 346.963 265.67 346.734C264.715 346.215 264.186 345.182 264.186 343.907V287.339C264.186 285.174 265.67 282.636 267.575 281.56L351.233 233.503C352.291 232.872 353.454 232.807 354.409 233.313C355.255 233.841 355.785 234.874 355.785 236.153V292.729C355.785 294.891 354.301 297.423 352.396 298.499L268.742 346.539C268.109 346.898 267.471 347.079 266.942 347.079Z" fill="black"/>
<path fill-rule="evenodd" clip-rule="evenodd" d="M278.59 289.995L341.387 253.895V297.002L278.59 333.107V289.995Z" fill="white"/>
<path fill-rule="evenodd" clip-rule="evenodd" d="M279.861 290.716V330.958L340.116 296.288V256.038L279.861 290.716ZM278.589 334.339C278.377 334.339 278.169 334.287 277.956 334.17C277.531 333.949 277.322 333.548 277.322 333.107V289.999C277.322 289.558 277.535 289.144 277.956 288.923L340.749 252.818C341.066 252.597 341.595 252.597 342.021 252.818C342.337 253.038 342.55 253.448 342.55 253.894V297.001C342.55 297.434 342.337 297.844 342.021 298.064L279.223 334.17C279.01 334.287 278.802 334.339 278.585 334.339H278.589Z" fill="black"/>
<path fill-rule="evenodd" clip-rule="evenodd" d="M278.59 289.996L341.387 253.895V247.684L278.59 283.784V289.996Z" fill="#F4D74B"/>
<path fill-rule="evenodd" clip-rule="evenodd" d="M279.861 284.493V287.847L340.116 253.177V249.822L279.861 284.493ZM278.589 291.244C278.377 291.244 278.169 291.179 277.956 291.076C277.531 290.842 277.322 290.445 277.322 289.999V283.788C277.322 283.334 277.535 282.932 277.956 282.712L340.749 246.606C341.066 246.386 341.595 246.386 342.021 246.606C342.337 246.827 342.55 247.238 342.55 247.683V253.894C342.55 254.339 342.337 254.75 342.021 254.97L279.223 291.071C279.01 291.175 278.802 291.24 278.585 291.24L278.589 291.244Z" fill="black"/>
<path fill-rule="evenodd" clip-rule="evenodd" d="M294.471 291.883C295.001 291.606 295.426 291.839 295.426 292.38C295.426 292.938 295.001 293.603 294.471 293.879C294.051 294.152 293.625 293.931 293.625 293.374C293.625 292.838 294.051 292.159 294.471 291.887V291.883Z" fill="#B5EBF6"/>
<path fill-rule="evenodd" clip-rule="evenodd" d="M294.367 292.783C294.367 292.826 294.471 292.869 294.471 292.899C294.575 292.938 294.575 292.959 294.684 292.981C294.58 292.938 294.58 292.899 294.471 292.865C294.471 292.822 294.367 292.8 294.367 292.779V292.783ZM294.154 295.229C293.837 295.229 293.521 295.164 293.308 295.008C292.674 294.693 292.357 294.101 292.357 293.375C292.357 292.394 292.991 291.317 293.837 290.824V290.811C294.471 290.453 295.213 290.431 295.742 290.759C296.272 291.075 296.589 291.676 296.589 292.385C296.589 293.375 295.955 294.464 295.105 294.957C294.788 295.147 294.467 295.233 294.15 295.233L294.154 295.229Z" fill="black"/>
<path fill-rule="evenodd" clip-rule="evenodd" d="M294.471 301.404C295.001 301.127 295.426 301.352 295.426 301.909C295.426 302.445 295.001 303.124 294.471 303.396C294.051 303.672 293.625 303.44 293.625 302.899C293.625 302.35 294.051 301.676 294.471 301.404Z" fill="#B5EBF6"/>
<path fill-rule="evenodd" clip-rule="evenodd" d="M294.367 302.294C294.367 302.338 294.471 302.381 294.471 302.411C294.575 302.442 294.575 302.476 294.684 302.498C294.58 302.454 294.58 302.411 294.471 302.368C294.471 302.338 294.367 302.316 294.367 302.294ZM294.154 304.754C293.837 304.754 293.521 304.667 293.308 304.521C292.674 304.196 292.357 303.617 292.357 302.895C292.357 301.906 292.991 300.829 293.837 300.323C294.471 299.965 295.213 299.943 295.742 300.271C296.272 300.587 296.589 301.179 296.589 301.906C296.589 302.886 295.955 303.971 295.105 304.456C294.788 304.654 294.467 304.75 294.15 304.75L294.154 304.754Z" fill="black"/>
<path fill-rule="evenodd" clip-rule="evenodd" d="M294.471 311.504C295.001 311.227 295.426 311.461 295.426 312.001C295.426 312.549 295.001 313.224 294.471 313.501C294.051 313.773 293.625 313.553 293.625 312.995C293.625 312.459 294.051 311.78 294.471 311.508V311.504Z" fill="#B5EBF6"/>
<path fill-rule="evenodd" clip-rule="evenodd" d="M294.367 312.409C294.367 312.439 294.471 312.482 294.471 312.525C294.575 312.556 294.575 312.577 294.684 312.599C294.58 312.556 294.58 312.513 294.471 312.482C294.471 312.439 294.367 312.417 294.367 312.409ZM294.154 314.856C293.837 314.856 293.521 314.782 293.308 314.622C292.674 314.306 292.357 313.714 292.357 312.988C292.357 311.998 292.991 310.922 293.837 310.438C294.471 310.07 295.213 310.057 295.742 310.373C296.272 310.701 296.589 311.281 296.589 311.998C296.589 312.988 295.955 314.077 295.105 314.57C294.788 314.761 294.467 314.856 294.15 314.856H294.154Z" fill="black"/>
<path fill-rule="evenodd" clip-rule="evenodd" d="M300.404 300.231C299.979 300.231 299.558 299.998 299.346 299.609C299.029 299.008 299.241 298.247 299.771 297.91L324.337 283.789C324.975 283.451 325.712 283.651 326.034 284.243C326.351 284.843 326.247 285.595 325.613 285.941L301.043 300.067C300.83 300.171 300.621 300.235 300.409 300.235L300.404 300.231Z" fill="black"/>
<path fill-rule="evenodd" clip-rule="evenodd" d="M300.404 290.716C299.979 290.716 299.558 290.483 299.346 290.094C299.029 289.501 299.241 288.732 299.771 288.395L324.337 274.269C324.975 273.932 325.712 274.131 326.034 274.723C326.351 275.324 326.247 276.084 325.613 276.422L301.043 290.543C300.83 290.66 300.621 290.712 300.409 290.712L300.404 290.716Z" fill="black"/>
<path fill-rule="evenodd" clip-rule="evenodd" d="M300.404 310.32C299.979 310.32 299.558 310.1 299.346 309.698C299.029 309.119 299.241 308.35 299.771 308.012L319.68 296.601C320.21 296.251 321.056 296.455 321.373 297.047C321.69 297.647 321.477 298.408 320.947 298.745L301.038 310.156C300.825 310.273 300.617 310.325 300.404 310.325V310.32Z" fill="black"/>
</g>
<mask id="mask2_1892_8759" style="mask-type:luminance" maskUnits="userSpaceOnUse" x="146" y="111" width="128" height="158">
<path d="M273.2 111.199H146V268.799H273.2V111.199Z" fill="white"/>
</mask>
<g mask="url(#mask2_1892_8759)">
<path fill-rule="evenodd" clip-rule="evenodd" d="M271.17 208.36L208.44 172.12C207.666 171.75 207.087 171.943 206.313 172.331L150.156 204.793C149.189 205.419 148.609 206.071 148.029 207.056L210.76 243.287C211.34 242.291 211.92 241.651 212.789 241.024L269.044 208.562C269.72 208.175 270.397 207.982 271.17 208.36Z" fill="black"/>
<path fill-rule="evenodd" clip-rule="evenodd" d="M149.674 206.687L210.374 241.778C210.857 241.139 211.437 240.601 212.211 240.066L267.981 207.848L207.861 173.106C207.668 173.018 207.474 173.001 206.798 173.346L150.737 205.77C150.35 206.052 149.964 206.321 149.674 206.687ZM210.761 244.433C210.568 244.433 210.374 244.374 210.181 244.277L147.451 208.046C147.161 207.89 146.968 207.638 146.871 207.339C146.871 207.04 146.871 206.729 147.065 206.46C147.644 205.404 148.321 204.601 149.577 203.839L205.735 171.351C206.701 170.855 207.668 170.518 208.925 171.099L271.751 207.381C272.234 207.68 272.428 208.349 272.138 208.891C271.848 209.434 271.268 209.644 270.688 209.396C270.398 209.249 270.205 209.24 269.528 209.581L213.371 242.022C212.694 242.477 212.211 242.943 211.728 243.898C211.437 244.247 211.148 244.441 210.761 244.441V244.433Z" fill="black"/>
<path fill-rule="evenodd" clip-rule="evenodd" d="M272.04 210.316C272.04 209.348 271.75 208.671 271.17 208.36C270.59 208.04 269.817 208.077 269.043 208.561L212.79 241.024C212.016 241.508 211.243 242.341 210.759 243.287V243.295C210.179 244.246 209.793 245.319 209.793 246.286V265.489C209.793 266.457 210.179 267.134 210.759 267.454C211.243 267.773 212.016 267.723 212.79 267.239L269.043 234.789C270.687 233.813 272.04 231.462 272.04 229.527V210.312V210.316Z" fill="#00AF81"/>
<path fill-rule="evenodd" clip-rule="evenodd" d="M270.398 209.289C270.205 209.289 269.915 209.364 269.625 209.55L213.371 242.008C212.791 242.365 212.115 243.043 211.728 243.855C211.244 244.666 210.955 245.558 210.955 246.282V265.484C210.955 265.981 211.052 266.347 211.244 266.465C211.438 266.562 211.728 266.553 212.308 266.263L268.465 233.805C269.722 233.04 270.882 231.045 270.882 229.531V210.316C270.882 209.735 270.785 209.436 270.592 209.348C270.495 209.31 270.495 209.289 270.398 209.289ZM211.535 268.8C211.052 268.8 210.568 268.673 210.181 268.442C209.215 267.9 208.635 266.827 208.635 265.489V246.286C208.635 245.154 209.021 243.888 209.698 242.727C210.375 241.558 211.341 240.607 212.308 240.035L268.465 207.577C269.625 206.908 270.785 206.832 271.752 207.375C272.621 207.909 273.201 208.982 273.201 210.316V229.531C273.201 231.861 271.655 234.608 269.625 235.769L213.371 268.232C212.791 268.61 212.115 268.804 211.535 268.804V268.8Z" fill="black"/>
<path fill-rule="evenodd" clip-rule="evenodd" d="M263.148 229.261L268.561 226.126V219.867L263.148 223.001V229.261Z" fill="#F4D74B"/>
<path fill-rule="evenodd" clip-rule="evenodd" d="M264.307 223.661V227.299L267.497 225.479V221.843L264.307 223.661ZM263.147 230.404C262.954 230.404 262.761 230.345 262.568 230.248C262.278 230.047 262.084 229.668 262.084 229.26V223C262.084 222.592 262.278 222.214 262.568 222.012L267.981 218.887C268.367 218.685 268.85 218.672 269.14 218.887C269.527 219.093 269.72 219.459 269.72 219.867V226.126C269.72 226.543 269.527 226.908 269.14 227.115L263.727 230.248C263.534 230.345 263.341 230.404 263.147 230.404Z" fill="black"/>
<path fill-rule="evenodd" clip-rule="evenodd" d="M210.76 243.287L148.031 207.055V207.067C147.451 208.094 147.16 208.876 147.16 210.059V229.262C147.16 230.103 147.257 230.721 148.031 231.226L210.76 267.457C209.987 266.952 209.891 266.334 209.794 265.493V246.29C209.891 245.112 210.18 244.325 210.76 243.299V243.291V243.287Z" fill="#00AF81"/>
<path fill-rule="evenodd" clip-rule="evenodd" d="M148.513 208.662C148.32 209.13 148.32 209.562 148.223 210.106V229.262C148.32 229.956 148.417 230.103 148.706 230.289L208.634 264.972V246.29C208.73 245.264 208.923 244.482 209.214 243.746L148.513 208.662ZM210.76 268.59C210.566 268.59 210.374 268.552 210.18 268.446L147.45 232.211C146.194 231.37 146 230.326 146 229.308V210.054C146 208.566 146.386 207.606 146.966 206.513C147.16 206.252 147.353 206.05 147.74 205.962C148.03 205.874 148.32 205.924 148.61 206.067L211.243 242.298C211.823 242.61 212.017 243.287 211.726 243.826C211.146 244.814 211.05 245.424 210.953 246.333V265.49C210.953 266.196 211.146 266.33 211.34 266.516C211.823 266.865 212.017 267.55 211.726 268.064C211.437 268.405 211.05 268.586 210.76 268.586V268.59Z" fill="black"/>
<path fill-rule="evenodd" clip-rule="evenodd" d="M254.158 234.455L259.571 231.334V225.062L254.158 228.196V234.455Z" fill="#F4D74B"/>
<path fill-rule="evenodd" clip-rule="evenodd" d="M255.318 228.856V232.494L258.508 230.673V227.034L255.318 228.851V228.856ZM254.158 235.599C253.964 235.599 253.772 235.548 253.578 235.443C253.288 235.242 252.998 234.871 252.998 234.454V228.195C252.998 227.787 253.288 227.413 253.578 227.206L259.088 224.081C259.377 223.879 259.764 223.879 260.151 224.081C260.537 224.283 260.731 224.654 260.731 225.057V231.325C260.731 231.729 260.537 232.107 260.151 232.314L254.738 235.439C254.544 235.544 254.352 235.594 254.158 235.594V235.599Z" fill="black"/>
<path fill-rule="evenodd" clip-rule="evenodd" d="M271.17 178.857L208.44 142.634C207.666 142.247 207.087 142.449 206.313 142.836L150.156 175.294C149.189 175.925 148.609 176.56 148.029 177.557L210.76 213.789C211.34 212.792 211.92 212.152 212.789 211.525L269.044 179.067C269.72 178.68 270.397 178.487 271.17 178.853V178.857Z" fill="black"/>
<path fill-rule="evenodd" clip-rule="evenodd" d="M149.674 177.19L210.374 212.281C210.857 211.642 211.437 211.099 212.211 210.569L267.981 178.342L207.861 143.609C207.668 143.52 207.474 143.503 206.798 143.84L150.737 176.269C150.35 176.55 149.964 176.82 149.674 177.19ZM210.761 214.931C210.568 214.931 210.374 214.881 210.181 214.776L147.451 178.544C147.161 178.389 146.968 178.128 146.871 177.838C146.871 177.539 146.871 177.228 147.065 176.958C147.644 175.915 148.321 175.099 149.577 174.338L205.735 141.85C206.701 141.358 207.668 141.009 208.925 141.598L271.751 177.867C272.234 178.174 272.428 178.843 272.138 179.386C271.848 179.928 271.171 180.151 270.688 179.89C270.398 179.756 270.205 179.734 269.528 180.084L213.371 212.517C212.694 212.984 212.211 213.438 211.728 214.393C211.437 214.738 211.148 214.935 210.761 214.935V214.931Z" fill="black"/>
<path fill-rule="evenodd" clip-rule="evenodd" d="M272.04 180.829C272.04 179.862 271.75 179.176 271.17 178.856C270.59 178.545 269.817 178.583 269.043 179.07L212.79 211.529C212.016 212.013 211.243 212.846 210.759 213.792C210.179 214.751 209.793 215.824 209.793 216.791V235.994C209.793 236.962 210.179 237.639 210.759 237.959C211.243 238.278 212.016 238.241 212.79 237.753L269.043 205.282C269.817 204.798 270.59 203.978 271.17 203.019C271.75 202.073 272.04 200.995 272.04 200.028V180.825V180.829Z" fill="#00AF81"/>
<path fill-rule="evenodd" clip-rule="evenodd" d="M270.398 179.795C270.205 179.795 269.915 179.862 269.625 180.056L213.371 212.518C212.791 212.876 212.115 213.553 211.728 214.365C211.244 215.177 210.955 216.056 210.955 216.792V235.995C210.955 236.487 211.052 236.857 211.244 236.975C211.438 237.072 211.728 237.064 212.308 236.773L268.465 204.311C269.045 203.945 269.722 203.268 270.205 202.465C270.688 201.653 270.882 200.769 270.882 200.037V180.834C270.882 180.341 270.785 179.963 270.592 179.845C270.495 179.816 270.495 179.795 270.398 179.795ZM211.535 239.305C211.052 239.305 210.568 239.179 210.181 238.948C209.215 238.413 208.635 237.333 208.635 235.995V216.792C208.635 215.661 209.021 214.394 209.698 213.221C210.375 212.06 211.341 211.113 212.308 210.541L268.465 178.083C269.625 177.414 270.785 177.338 271.752 177.869C272.621 178.411 273.201 179.484 273.201 180.829V200.033C273.201 201.165 272.815 202.43 272.138 203.592C271.461 204.753 270.592 205.712 269.625 206.271L213.371 238.733C212.791 239.112 212.115 239.305 211.535 239.305Z" fill="black"/>
<path fill-rule="evenodd" clip-rule="evenodd" d="M263.148 199.761L268.561 196.635V190.367L263.148 193.501V199.761Z" fill="#F4D74B"/>
<path fill-rule="evenodd" clip-rule="evenodd" d="M264.307 194.158V197.788L267.497 195.979V192.344L264.307 194.162V194.158ZM263.147 200.901C262.954 200.901 262.761 200.842 262.568 200.745C262.278 200.543 262.084 200.164 262.084 199.756V193.497C262.084 193.093 262.278 192.715 262.568 192.513L267.981 189.387C268.367 189.173 268.85 189.173 269.14 189.387C269.527 189.581 269.72 189.959 269.72 190.367V196.635C269.72 197.031 269.527 197.409 269.14 197.611L263.727 200.745C263.534 200.842 263.341 200.901 263.147 200.901Z" fill="black"/>
<path fill-rule="evenodd" clip-rule="evenodd" d="M210.76 213.791L148.031 177.555C147.451 178.59 147.16 179.376 147.16 180.546V199.757C147.16 200.599 147.257 201.217 148.031 201.722L210.76 237.953C209.987 237.448 209.891 236.83 209.794 235.989V216.786C209.891 215.607 210.18 214.821 210.76 213.787V213.791Z" fill="#00AF81"/>
<path fill-rule="evenodd" clip-rule="evenodd" d="M148.513 179.161C148.32 179.623 148.32 180.061 148.223 180.604V199.761C148.32 200.467 148.417 200.602 148.706 200.787L208.634 235.474V216.793C208.73 215.766 208.923 214.993 209.214 214.248L148.513 179.161ZM210.76 239.097C210.566 239.097 210.374 239.046 210.18 238.941L147.45 202.71C146.194 201.868 146 200.821 146 199.807V180.545C146 179.064 146.386 178.097 146.966 177.011C147.16 176.738 147.353 176.549 147.74 176.46C148.03 176.372 148.32 176.41 148.61 176.578L211.243 212.801C211.823 213.112 212.017 213.786 211.726 214.332C211.146 215.317 211.05 215.926 210.953 216.839V235.996C210.953 236.703 211.146 236.838 211.34 237.031C211.823 237.372 212.017 238.045 211.726 238.57C211.437 238.911 211.05 239.101 210.76 239.101V239.097Z" fill="black"/>
<path fill-rule="evenodd" clip-rule="evenodd" d="M254.158 204.96L259.571 201.834V195.566L254.158 198.7V204.96Z" fill="#F4D74B"/>
<path fill-rule="evenodd" clip-rule="evenodd" d="M255.318 199.352V202.99L258.508 201.173V197.534L255.318 199.352ZM254.158 206.095C253.964 206.095 253.772 206.049 253.578 205.939C253.288 205.737 252.998 205.358 252.998 204.955V198.695C252.998 198.287 253.288 197.913 253.578 197.707L259.088 194.581C259.377 194.379 259.764 194.379 260.151 194.581C260.537 194.788 260.731 195.161 260.731 195.561V201.829C260.731 202.237 260.537 202.612 260.151 202.817L254.738 205.939C254.544 206.049 254.352 206.095 254.158 206.095Z" fill="black"/>
<path fill-rule="evenodd" clip-rule="evenodd" d="M271.17 148.775L208.44 112.531C207.666 112.165 207.087 112.358 206.313 112.746L150.156 145.203C149.189 145.83 148.609 146.482 148.029 147.466L210.76 183.698C211.34 182.701 211.92 182.062 212.789 181.435L269.044 148.973C269.72 148.586 270.397 148.392 271.17 148.77V148.775Z" fill="#00AF81"/>
<path fill-rule="evenodd" clip-rule="evenodd" d="M149.674 147.1L210.374 182.192C210.857 181.552 211.437 181.009 212.211 180.48L267.981 148.261L207.861 113.519C207.668 113.431 207.474 113.414 206.798 113.759L150.737 146.184C150.35 146.465 149.964 146.734 149.674 147.1ZM210.761 184.842C210.568 184.842 210.374 184.796 210.181 184.686L147.451 148.455C147.161 148.299 146.968 148.051 146.871 147.748C146.871 147.449 146.871 147.138 147.065 146.877C147.644 145.821 148.321 145.009 149.577 144.244L205.735 111.769C206.701 111.272 207.668 110.92 208.925 111.516L271.751 147.786C272.234 148.084 272.428 148.753 272.138 149.296C271.848 149.839 271.171 150.049 270.688 149.801C270.398 149.666 270.205 149.645 269.528 149.986L213.371 182.428C212.694 182.89 212.211 183.357 211.728 184.304C211.437 184.652 211.148 184.846 210.761 184.846V184.842Z" fill="black"/>
<path fill-rule="evenodd" clip-rule="evenodd" d="M272.04 150.739C272.04 149.772 271.75 149.086 271.17 148.775C270.59 148.455 269.817 148.501 269.043 148.977L212.79 181.439C212.016 181.922 211.243 182.756 210.759 183.702V183.71C210.179 184.657 209.793 185.733 209.793 186.701V205.905C209.793 206.872 210.179 207.549 210.759 207.869C211.243 208.189 212.016 208.142 212.79 207.667L269.043 175.209C269.817 174.725 270.59 173.892 271.17 172.933C271.75 171.987 272.04 170.909 272.04 169.942V150.739Z" fill="#00AF81"/>
<path fill-rule="evenodd" clip-rule="evenodd" d="M270.398 149.703C270.205 149.703 269.915 149.77 269.625 149.964L213.371 182.426C212.791 182.792 212.115 183.461 211.728 184.273C211.244 185.085 210.955 185.972 210.955 186.7V205.903C210.955 206.492 211.148 206.795 211.244 206.879C211.438 206.967 211.728 206.967 212.308 206.673L268.465 174.215C269.045 173.849 269.722 173.18 270.205 172.368C270.688 171.556 270.882 170.665 270.882 169.941V150.738C270.882 150.149 270.785 149.846 270.592 149.762C270.495 149.724 270.495 149.703 270.398 149.703ZM211.535 209.214C211.052 209.214 210.568 209.088 210.181 208.856C209.215 208.326 208.635 207.241 208.635 205.907V186.704C208.635 185.573 209.021 184.302 209.698 183.142C210.375 181.98 211.341 181.026 212.308 180.454L268.465 147.995C269.625 147.326 270.785 147.259 271.752 147.794C272.621 148.323 273.201 149.409 273.201 150.746V169.95C273.201 171.081 272.815 172.347 272.138 173.508C271.461 174.678 270.592 175.628 269.625 176.188L213.371 208.646C212.791 209.025 212.115 209.218 211.535 209.218V209.214Z" fill="black"/>
<path fill-rule="evenodd" clip-rule="evenodd" d="M263.148 169.67L268.561 166.545V160.277L263.148 163.411V169.67Z" fill="#F4D74B"/>
<path fill-rule="evenodd" clip-rule="evenodd" d="M264.307 164.069V167.707L267.497 165.89V162.251L264.307 164.069ZM263.147 170.812C262.954 170.812 262.761 170.765 262.568 170.656C262.278 170.454 262.084 170.076 262.084 169.667V163.408C262.084 163 262.278 162.625 262.568 162.42L267.981 159.294C268.367 159.079 268.85 159.079 269.14 159.294C269.527 159.496 269.72 159.866 269.72 160.27V166.537C269.72 166.945 269.527 167.32 269.14 167.526L263.727 170.652C263.534 170.761 263.341 170.807 263.147 170.807V170.812Z" fill="black"/>
<path fill-rule="evenodd" clip-rule="evenodd" d="M210.76 183.701L148.031 147.465V147.474C147.451 148.5 147.16 149.282 147.16 150.464V169.667C147.16 170.509 147.257 171.131 148.031 171.632L210.76 207.863C209.987 207.358 209.891 206.74 209.794 205.898V186.695C209.891 185.526 210.18 184.731 210.76 183.705V183.696V183.701Z" fill="#00AF81"/>
<path fill-rule="evenodd" clip-rule="evenodd" d="M148.513 149.072C148.32 149.534 148.32 149.972 148.223 150.51V169.667C148.32 170.366 148.417 170.509 148.706 170.694L208.634 205.382V186.7C208.73 185.674 208.923 184.9 209.214 184.155L148.513 149.072ZM210.76 209.012C210.566 209.012 210.374 208.962 210.18 208.856L147.45 172.621C146.194 171.779 146 170.736 146 169.718V150.465C146 148.975 146.386 148.016 146.966 146.922C147.16 146.662 147.353 146.46 147.74 146.371C148.03 146.283 148.32 146.334 148.61 146.49L211.243 182.721C211.823 183.019 212.017 183.697 211.726 184.239C211.146 185.223 211.05 185.834 210.953 186.746V205.903C210.953 206.61 211.146 206.745 211.34 206.938C211.823 207.274 212.017 207.964 211.726 208.478C211.437 208.818 211.05 209.012 210.76 209.012Z" fill="black"/>
<path fill-rule="evenodd" clip-rule="evenodd" d="M254.158 174.877L259.571 171.744V165.484L254.158 168.609V174.877Z" fill="#F4D74B"/>
<path fill-rule="evenodd" clip-rule="evenodd" d="M255.318 169.265V172.904L258.508 171.087V167.461L255.318 169.27V169.265ZM254.158 176.008C253.964 176.008 253.772 175.963 253.578 175.853C253.288 175.651 252.998 175.281 252.998 174.873V168.605C252.998 168.201 253.288 167.823 253.578 167.629L259.088 164.496C259.377 164.293 259.764 164.293 260.151 164.496C260.537 164.697 260.731 165.076 260.731 165.484V171.743C260.731 172.147 260.537 172.526 260.151 172.728L254.738 175.853C254.544 175.958 254.352 176.008 254.158 176.008Z" fill="black"/>
<path fill-rule="evenodd" clip-rule="evenodd" d="M215.302 194.265C214.915 194.265 214.529 194.064 214.335 193.698C214.046 193.155 214.238 192.461 214.722 192.15L248.552 172.606C249.035 172.299 249.808 172.48 250.098 173.022C250.388 173.573 250.195 174.264 249.712 174.579L215.882 194.114C215.689 194.224 215.495 194.27 215.302 194.27V194.265Z" fill="black"/>
<path fill-rule="evenodd" clip-rule="evenodd" d="M215.302 224.351C214.915 224.351 214.529 224.15 214.335 223.779C214.046 223.237 214.238 222.538 214.722 222.231L248.552 202.696C249.035 202.376 249.808 202.562 250.098 203.104C250.388 203.655 250.195 204.354 249.712 204.66L215.882 224.196C215.689 224.301 215.495 224.351 215.302 224.351Z" fill="black"/>
<path fill-rule="evenodd" clip-rule="evenodd" d="M215.302 253.854C214.915 253.854 214.529 253.651 214.335 253.282C214.046 252.739 214.238 252.04 214.722 251.733L248.552 232.19C249.035 231.879 249.808 232.063 250.098 232.615C250.388 233.157 250.195 233.855 249.712 234.163L215.882 253.698C215.689 253.803 215.495 253.854 215.302 253.854Z" fill="black"/>
</g>
</svg>
