<svg width="338" height="352" viewBox="0 0 338 352" fill="none" xmlns="http://www.w3.org/2000/svg">
<circle cx="164.356" cy="187.706" r="161.922" stroke="white" stroke-width="3.1214"/>
<g clip-path="url(#clip0_1892_10279)">
<path d="M307.932 224.581L312.89 213.803C313.313 212.878 314.478 212.052 315.492 211.958L326.401 210.475C327.415 210.381 328.71 210.976 329.296 211.807L336.15 221.483C336.736 222.314 336.871 223.735 336.443 224.66L331.49 235.433C331.067 236.358 329.902 237.183 328.888 237.277L317.979 238.761C316.965 238.855 315.67 238.259 315.085 237.429L308.23 227.753C307.645 226.922 307.509 225.501 307.937 224.576L307.932 224.581Z" fill="#DD784B"/>
<path d="M317.77 240.087C316.375 240.087 314.807 239.314 314.018 238.195L307.164 228.514C306.307 227.307 306.129 225.385 306.751 224.042L311.704 213.263C312.315 211.931 313.877 210.818 315.34 210.672L326.281 209.183C327.754 209.047 329.51 209.857 330.366 211.064L337.221 220.74C338.078 221.947 338.256 223.869 337.639 225.212L332.686 235.985C332.07 237.318 330.513 238.431 329.05 238.577L318.104 240.066C317.994 240.076 317.885 240.082 317.775 240.082L317.77 240.087ZM326.547 211.779L315.612 213.263C315.069 213.316 314.306 213.854 314.076 214.35L309.123 225.129C308.893 225.625 308.982 226.555 309.295 226.999L316.15 236.68C316.464 237.119 317.294 237.506 317.838 237.469L328.773 235.985C329.322 235.933 330.079 235.395 330.309 234.899L335.262 224.125C335.492 223.629 335.403 222.699 335.09 222.255L328.235 212.574C327.921 212.13 327.08 211.743 326.547 211.785V211.779Z" fill="black"/>
<g opacity="0.1">
<path d="M315.086 237.438C315.671 238.269 316.972 238.864 317.98 238.77L328.889 237.286C329.804 237.203 330.838 236.518 331.345 235.709C330.895 236.372 330.185 236.356 329.662 235.615L322.808 225.938C322.515 225.526 322.332 224.961 322.28 224.387L307.703 226.21C307.755 226.785 307.938 227.349 308.231 227.762L315.086 237.438Z" fill="black"/>
</g>
</g>
<g clip-path="url(#clip1_1892_10279)">
<path d="M16.8616 278.425L21.8199 267.646C22.2431 266.722 23.4082 265.896 24.4217 265.802L35.3309 264.318C36.3444 264.224 37.6402 264.82 38.2253 265.651L45.0801 275.327C45.6653 276.157 45.8011 277.579 45.3727 278.503L40.4197 289.277C39.9965 290.201 38.8314 291.027 37.8178 291.121L26.9087 292.605C25.8951 292.699 24.5994 292.103 24.0142 291.272L17.1594 281.596C16.5743 280.766 16.4384 279.345 16.8669 278.42L16.8616 278.425Z" fill="#00AF81"/>
<path d="M26.6995 293.927C25.3045 293.927 23.7371 293.153 22.9481 292.035L16.0934 282.354C15.2365 281.147 15.0589 279.224 15.6806 277.882L20.6336 267.103C21.2449 265.771 22.8071 264.658 24.27 264.512L35.2105 263.023C36.6838 262.887 38.4393 263.697 39.2962 264.904L46.1509 274.58C47.0078 275.787 47.1854 277.709 46.5689 279.052L41.6159 289.825C40.9994 291.158 39.4424 292.27 37.9795 292.417L27.0338 293.906C26.9241 293.916 26.8144 293.921 26.7047 293.921L26.6995 293.927ZM35.4769 265.619L24.5417 267.103C23.9983 267.155 23.2355 267.694 23.0056 268.19L18.0526 278.968C17.8227 279.465 17.9116 280.395 18.225 280.839L25.0798 290.52C25.3933 290.959 26.224 291.346 26.7674 291.309L37.7026 289.825C38.2512 289.773 39.0088 289.235 39.2387 288.739L44.1917 277.965C44.4216 277.469 44.3327 276.539 44.0193 276.095L37.1645 266.413C36.851 265.969 36.0098 265.583 35.4769 265.625V265.619Z" fill="black"/>
<g opacity="0.1">
<path d="M24.0153 291.282C24.6004 292.112 25.9014 292.708 26.9097 292.614L37.8189 291.13C38.7332 291.047 39.7677 290.362 40.2745 289.552C39.8251 290.216 39.1146 290.2 38.5921 289.458L31.7373 279.782C31.4448 279.369 31.2619 278.805 31.2097 278.23L16.6328 280.054C16.6851 280.629 16.8679 281.193 17.1605 281.606L24.0153 291.282Z" fill="black"/>
</g>
</g>
<g clip-path="url(#clip2_1892_10279)">
<path d="M47.3047 179.742C51.312 179.742 54.5606 176.494 54.5606 172.486C54.5606 168.479 51.312 165.23 47.3047 165.23C43.2974 165.23 40.0488 168.479 40.0488 172.486C40.0488 176.494 43.2974 179.742 47.3047 179.742Z" fill="#3D68EC"/>
<path d="M47.3045 181.074C42.5717 181.074 38.7207 177.223 38.7207 172.49C38.7207 167.757 42.5717 163.906 47.3045 163.906C52.0373 163.906 55.8884 167.757 55.8884 172.49C55.8884 177.223 52.0373 181.074 47.3045 181.074ZM47.3045 166.562C44.0378 166.562 41.3766 169.223 41.3766 172.49C41.3766 175.757 44.0378 178.418 47.3045 178.418C50.5713 178.418 53.2325 175.757 53.2325 172.49C53.2325 169.223 50.5713 166.562 47.3045 166.562Z" fill="black"/>
</g>
<g clip-path="url(#clip3_1892_10279)">
<g opacity="0.1">
<path fill-rule="evenodd" clip-rule="evenodd" d="M121.855 245.447C121.212 244.613 120.893 243.739 120.888 242.849C120.888 239.548 125.358 236.602 132.3 235.343C134.532 234.934 136.897 234.727 139.322 234.727C141.742 234.727 144.112 234.929 146.355 235.328C150.845 236.127 154.486 237.704 156.344 239.665C157.301 240.66 157.787 241.717 157.782 242.809C157.782 243.9 157.306 244.957 156.354 245.957C154.491 247.919 150.856 249.511 146.375 250.319C144.137 250.719 141.773 250.931 139.342 250.936C136.917 250.936 134.548 250.739 132.31 250.335C127.829 249.541 124.184 247.959 122.315 246.003C122.148 245.821 121.986 245.634 121.845 245.452L121.855 245.447Z" fill="#0083C3"/>
</g>
<path fill-rule="evenodd" clip-rule="evenodd" d="M184.272 82.8214L173.538 76.6551L173.174 76.559L172.809 76.4731L172.495 76.4276L172.08 76.4023H171.726L171.326 76.4276L170.915 76.4883L170.51 76.5843L170.105 76.7056L169.67 76.8522L169.255 77.0392L168.814 77.2414L168.364 77.489L109.678 111.455C106.605 113.335 104.585 116.089 103.016 119.269C101.765 121.927 101.082 124.363 101.041 127.295L101.279 262.288C101.319 264.562 101.73 266.705 103.542 268.262L114.281 274.433C112.463 272.876 112.043 270.733 112.007 268.459L111.78 133.466C111.815 130.52 112.539 128.083 113.744 125.44C115.324 122.251 117.344 119.496 120.407 117.631L179.087 83.6554L179.543 83.4128L179.993 83.1904L180.398 83.0236L180.834 82.877L181.239 82.7557L181.649 82.6597L182.054 82.599L182.454 82.5586H182.824L183.224 82.5839L183.593 82.6344L183.912 82.7203L184.282 82.8265L184.272 82.8214Z" fill="#3D68EC"/>
<path fill-rule="evenodd" clip-rule="evenodd" d="M169.057 78.7354L110.408 112.691C107.901 114.202 105.962 116.497 104.276 119.898C103.061 122.577 102.504 124.806 102.459 127.313L102.697 262.28C102.788 264.717 103.264 266.137 104.484 267.183L110.792 270.792C110.63 269.988 110.595 269.21 110.595 268.477L110.321 133.459C110.402 130.502 110.995 127.92 112.458 124.826C114.392 120.894 116.655 118.225 119.653 116.396L179.619 81.8034L172.374 78.0126C171.731 77.6487 170.505 77.9166 169.057 78.7354ZM114.281 275.862C114.038 275.862 113.79 275.791 113.547 275.669L102.818 269.503C100.226 267.315 99.8967 264.53 99.8562 262.326L99.5879 127.288C99.6689 124.331 100.276 121.753 101.724 118.67C103.653 114.718 105.922 112.049 108.904 110.219L169.959 75.6623C171.366 74.8637 172.293 74.7222 173.938 75.2883L184.96 81.581C185.608 81.9449 185.851 82.7233 185.563 83.3905C185.279 84.0627 184.55 84.4064 183.831 84.184L182.738 83.9919L180.15 84.6995L179.786 84.9068L121.131 118.847C118.625 120.358 116.686 122.663 115.03 126.049C113.779 128.728 113.223 130.957 113.187 133.479L113.415 268.447C113.491 270.878 113.982 272.303 115.202 273.334C115.764 273.825 115.85 274.648 115.45 275.26C115.172 275.649 114.721 275.856 114.281 275.856V275.862Z" fill="#14100D"/>
<path fill-rule="evenodd" clip-rule="evenodd" d="M120.671 274.286L179.361 240.315C184.121 237.556 188.004 230.444 187.994 224.465L187.756 89.4823C187.746 83.508 183.867 80.8949 179.088 83.6546L120.403 117.625C115.638 120.385 111.77 127.496 111.775 133.461L112.003 268.453C112.013 274.417 115.892 277.041 120.666 274.286H120.671Z" fill="#3D68EC"/>
<path fill-rule="evenodd" clip-rule="evenodd" d="M182.702 83.989C181.811 83.989 180.834 84.2973 179.786 84.8837L121.131 118.849C116.807 121.341 113.182 128.028 113.187 133.456L113.415 268.449C113.415 270.931 114.19 272.791 115.531 273.559C116.655 274.216 118.24 274.029 119.931 273.038L178.622 239.073C182.945 236.581 186.581 229.904 186.57 224.466L186.302 89.4831C186.302 86.9863 185.563 85.1414 184.231 84.3732C183.781 84.1154 183.259 83.984 182.697 83.984L182.702 83.989ZM117.076 276.809C116.018 276.809 115.015 276.556 114.109 276.046C111.851 274.762 110.59 271.997 110.585 268.454L110.312 133.461C110.301 127.032 114.499 119.375 119.678 116.383L178.363 82.4121C180.996 80.8856 183.583 80.7138 185.644 81.8915C187.912 83.1753 189.158 85.94 189.163 89.4831L189.401 224.466C189.446 230.905 185.254 238.567 180.09 241.56L121.389 275.52C119.906 276.389 118.443 276.814 117.076 276.814V276.809Z" fill="#14100D"/>
<path fill-rule="evenodd" clip-rule="evenodd" d="M187.989 222.847L187.756 89.4823C187.746 83.508 183.867 80.8949 179.088 83.6546L120.403 117.625C115.638 120.385 111.77 127.496 111.775 133.461L111.998 266.81L187.984 222.847H187.989Z" fill="#F4D9DC"/>
<path fill-rule="evenodd" clip-rule="evenodd" d="M182.702 83.9848C181.811 83.9848 180.834 84.2931 179.786 84.8794L121.131 118.845C116.808 121.337 113.182 128.024 113.188 133.452L113.41 264.32L186.571 222.025L186.302 89.4789C186.302 86.9821 185.563 85.1372 184.232 84.3689C183.781 84.1112 183.259 83.9797 182.697 83.9797L182.702 83.9848ZM112.003 268.242C111.755 268.242 111.512 268.172 111.269 268.05C110.828 267.798 110.585 267.333 110.58 266.807L110.307 133.457C110.297 127.028 114.494 119.371 119.673 116.378L178.363 82.4078C180.996 80.8814 183.583 80.6944 185.644 81.9024C187.912 83.1761 189.158 85.9358 189.163 89.4789L189.396 222.844C189.396 223.354 189.153 223.83 188.702 224.087L112.732 268.045C112.489 268.167 112.246 268.237 112.003 268.242Z" fill="#14100D"/>
<path fill-rule="evenodd" clip-rule="evenodd" d="M103.051 119.137L103.016 119.268C101.765 121.927 101.082 124.363 101.041 127.294L101.279 262.287C101.319 264.562 101.73 266.715 103.542 268.261L114.281 274.433C112.463 272.876 112.043 270.733 112.007 268.458L111.78 133.466C111.815 130.534 112.488 128.083 113.744 125.44L113.78 125.308L103.051 119.142V119.137Z" fill="#14100D"/>
<path fill-rule="evenodd" clip-rule="evenodd" d="M103.75 121.166C102.899 123.294 102.499 125.21 102.454 127.328L102.692 262.28C102.783 264.716 103.259 266.136 104.479 267.183L110.787 270.791C110.625 269.988 110.59 269.209 110.59 268.477L110.316 133.459C110.397 130.815 110.883 128.516 111.962 125.882L103.75 121.161V121.166ZM114.281 275.861C114.038 275.861 113.79 275.79 113.547 275.669L102.818 269.503C100.226 267.314 99.8967 264.529 99.8562 262.325L99.5879 127.287C99.6689 124.305 100.276 121.738 101.724 118.654C101.881 118.285 102.211 117.947 102.611 117.825C102.975 117.704 103.416 117.674 103.78 117.886L114.509 124.053C115.157 124.427 115.44 125.261 115.086 125.928C113.779 128.718 113.258 130.942 113.192 133.484L113.42 268.441C113.496 270.872 113.987 272.298 115.207 273.329C115.769 273.819 115.855 274.643 115.455 275.254C115.177 275.644 114.726 275.851 114.286 275.851L114.281 275.861Z" fill="#14100D"/>
<path fill-rule="evenodd" clip-rule="evenodd" d="M106.697 178.666C105.892 178.666 105.244 178.019 105.244 177.241L105.224 163.67C105.224 162.876 105.867 162.234 106.672 162.234C107.441 162.234 108.089 162.876 108.089 163.67L108.11 177.241C108.11 178.019 107.467 178.671 106.697 178.671V178.666Z" fill="#14100D"/>
<path fill-rule="evenodd" clip-rule="evenodd" d="M106.661 156.179C105.856 156.179 105.208 155.537 105.208 154.744L105.188 141.173C105.188 140.389 105.831 139.747 106.636 139.742C107.441 139.737 108.053 140.384 108.053 141.168L108.073 154.739C108.073 155.532 107.43 156.174 106.661 156.174V156.179Z" fill="#14100D"/>
<path fill-rule="evenodd" clip-rule="evenodd" d="M146 254.891C145.514 254.891 145.023 254.623 144.78 254.174C144.375 253.481 144.618 252.602 145.301 252.213L157.073 245.414C157.716 245.025 158.607 245.243 159.012 245.94C159.417 246.617 159.174 247.497 158.49 247.901L146.719 254.694C146.526 254.816 146.248 254.886 146 254.891Z" fill="#14100D"/>
<path fill-rule="evenodd" clip-rule="evenodd" d="M176.515 91.4239C175.674 91.9142 174.98 93.1879 174.98 94.2493C174.98 95.3209 175.674 95.7808 176.52 95.2956C177.375 94.8104 178.089 93.5417 178.089 92.4702C178.089 91.4088 177.37 90.9337 176.515 91.4239Z" fill="#7BCCEC"/>
<path fill-rule="evenodd" clip-rule="evenodd" d="M175.872 96.9108C175.508 96.9108 175.103 96.8299 174.789 96.6227C174.009 96.1729 173.563 95.3086 173.563 94.2522C173.563 92.6803 174.541 90.9365 175.827 90.1834C176.632 89.7083 177.558 89.6729 178.292 90.0924C179.062 90.5423 179.513 91.4066 179.513 92.468C179.513 94.0349 178.54 95.7837 177.249 96.5368C176.809 96.7946 176.358 96.9159 175.867 96.9159L175.872 96.9108Z" fill="#14100D"/>
<path fill-rule="evenodd" clip-rule="evenodd" d="M161.928 186.044C161.437 186.044 160.946 185.791 160.672 185.342C160.257 184.659 160.495 183.77 161.194 183.38L172.753 176.739C173.401 176.35 174.287 176.582 174.692 177.27C175.097 177.952 174.854 178.826 174.17 179.216L162.657 185.857C162.414 185.994 162.171 186.039 161.928 186.039V186.044Z" fill="#14100D"/>
<path fill-rule="evenodd" clip-rule="evenodd" d="M161.964 208.845C161.473 208.845 160.982 208.577 160.708 208.122C160.293 207.43 160.531 206.565 161.23 206.161L172.789 199.524C173.437 199.135 174.323 199.368 174.728 200.045C175.133 200.743 174.89 201.617 174.206 202.006L162.693 208.643C162.45 208.779 162.207 208.845 161.964 208.845Z" fill="#14100D"/>
<path fill-rule="evenodd" clip-rule="evenodd" d="M121.602 129.963C121.075 129.963 120.589 129.695 120.346 129.235C119.941 128.558 120.184 127.679 120.868 127.29L124.265 125.333C124.908 124.934 125.804 125.177 126.204 125.859C126.609 126.536 126.366 127.431 125.688 127.82L122.285 129.771C122.078 129.893 121.835 129.968 121.607 129.968L121.602 129.963Z" fill="#14100D"/>
<path fill-rule="evenodd" clip-rule="evenodd" d="M128.35 126.057C127.859 126.057 127.373 125.805 127.125 125.34C126.72 124.662 126.968 123.783 127.652 123.379L131.049 121.428C131.697 121.038 132.583 121.266 132.988 121.958C133.393 122.636 133.15 123.515 132.467 123.904L129.069 125.855C128.826 125.992 128.578 126.052 128.35 126.052V126.057Z" fill="#14100D"/>
<path fill-rule="evenodd" clip-rule="evenodd" d="M135.139 122.16C134.648 122.16 134.172 121.907 133.884 121.442C133.514 120.759 133.722 119.88 134.415 119.476L137.808 117.525C138.491 117.146 139.377 117.363 139.797 118.055C140.162 118.738 139.954 119.612 139.276 120.001L135.879 121.957C135.63 122.094 135.387 122.154 135.144 122.154L135.139 122.16Z" fill="#14100D"/>
<path fill-rule="evenodd" clip-rule="evenodd" d="M124.811 202.995C124.325 202.995 123.834 202.732 123.556 202.277C123.201 201.584 123.444 200.705 124.128 200.316L129.9 197.01C130.593 196.621 131.434 196.864 131.839 197.541C132.254 198.223 132.016 199.103 131.317 199.492L125.545 202.798C125.302 202.919 125.059 202.995 124.811 202.995Z" fill="#14100D"/>
<path fill-rule="evenodd" clip-rule="evenodd" d="M124.841 225.778C124.355 225.778 123.864 225.525 123.586 225.055C123.231 224.373 123.474 223.509 124.158 223.104L129.93 219.794C130.623 219.404 131.464 219.637 131.869 220.324C132.284 221.007 132.046 221.881 131.347 222.275L125.576 225.591C125.333 225.712 125.09 225.773 124.841 225.773V225.778Z" fill="#14100D"/>
<path fill-rule="evenodd" clip-rule="evenodd" d="M124.745 157.421C124.259 157.421 123.768 157.169 123.49 156.704C123.135 156.006 123.378 155.132 124.011 154.742L129.798 151.432C130.482 151.043 131.373 151.27 131.773 151.952C132.188 152.645 131.95 153.509 131.251 153.914L125.479 157.224C125.236 157.361 124.993 157.421 124.745 157.421Z" fill="#14100D"/>
<path fill-rule="evenodd" clip-rule="evenodd" d="M124.781 180.206C124.295 180.206 123.804 179.948 123.525 179.483C123.171 178.791 123.414 177.927 124.097 177.522L129.869 174.217C130.563 173.827 131.403 174.055 131.808 174.747C132.224 175.43 131.986 176.309 131.287 176.698L125.515 180.004C125.272 180.14 125.029 180.206 124.781 180.206Z" fill="#14100D"/>
<path fill-rule="evenodd" clip-rule="evenodd" d="M161.867 140.483C161.376 140.483 160.885 140.23 160.612 139.765C160.197 139.068 160.435 138.204 161.133 137.804L172.692 131.168C173.34 130.774 174.226 130.991 174.631 131.689C175.036 132.381 174.793 133.26 174.11 133.65L162.597 140.286C162.353 140.422 162.11 140.478 161.867 140.483Z" fill="#14100D"/>
<path fill-rule="evenodd" clip-rule="evenodd" d="M161.899 163.269C161.408 163.269 160.916 163.001 160.643 162.552C160.228 161.854 160.466 160.98 161.165 160.59L172.723 153.949C173.371 153.545 174.257 153.792 174.663 154.475C175.068 155.167 174.825 156.031 174.141 156.436L162.628 163.072C162.385 163.204 162.142 163.264 161.899 163.269Z" fill="#14100D"/>
<path fill-rule="evenodd" clip-rule="evenodd" d="M176.282 126.211L137.682 148.541L137.707 164.058L176.302 141.733L176.282 126.211Z" fill="#F8D754"/>
<path fill-rule="evenodd" clip-rule="evenodd" d="M139.104 149.369L139.12 161.575L174.89 140.908L174.875 128.701L139.104 149.369ZM137.707 165.487C137.464 165.487 137.221 165.426 136.973 165.295C136.532 165.052 136.244 164.567 136.244 164.062L136.224 148.545C136.224 148.044 136.512 147.569 136.953 147.316L175.583 124.971C176.039 124.728 176.561 124.728 177.011 124.971C177.452 125.239 177.73 125.699 177.735 126.209L177.755 141.731C177.755 142.227 177.477 142.707 177.036 142.96L138.441 165.29C138.198 165.426 137.955 165.487 137.707 165.487Z" fill="#14100D"/>
<path fill-rule="evenodd" clip-rule="evenodd" d="M176.312 148.562L137.717 170.898L137.737 186.41L176.332 164.069L176.312 148.562Z" fill="#F8D754"/>
<path fill-rule="evenodd" clip-rule="evenodd" d="M139.135 172.154L139.15 184.36L174.92 163.688L174.905 151.481L139.135 172.154ZM137.737 188.282C137.494 188.282 137.251 188.212 137.003 188.09C136.563 187.822 136.274 187.362 136.274 186.847L136.254 171.34C136.254 170.83 136.542 170.354 136.983 170.097L175.614 147.771C176.069 147.514 176.591 147.514 177.041 147.771C177.482 148.014 177.76 148.489 177.765 149L177.786 164.507C177.786 165.032 177.507 165.492 177.067 165.75L138.472 188.09C138.228 188.212 137.985 188.282 137.737 188.287V188.282Z" fill="#14100D"/>
<path fill-rule="evenodd" clip-rule="evenodd" d="M176.343 171.355L137.748 193.686L137.768 209.193L176.369 186.862L176.343 171.355Z" fill="#F8D754"/>
<path fill-rule="evenodd" clip-rule="evenodd" d="M139.165 194.951L139.18 207.147L174.95 186.475L174.935 174.268L139.165 194.951ZM137.773 211.054C137.529 211.054 137.286 210.994 137.038 210.862C136.598 210.62 136.309 210.144 136.309 209.634L136.289 194.127C136.289 193.617 136.578 193.142 137.018 192.884L175.649 170.559C176.104 170.301 176.626 170.296 177.077 170.559C177.517 170.811 177.796 171.281 177.801 171.797L177.821 187.304C177.821 187.819 177.542 188.279 177.102 188.537L138.507 210.862C138.264 210.999 138.021 211.054 137.773 211.059V211.054Z" fill="#14100D"/>
<path fill-rule="evenodd" clip-rule="evenodd" d="M176.378 194.137L137.777 216.472L137.798 231.984L176.398 209.649L176.378 194.137Z" fill="#F8D754"/>
<path fill-rule="evenodd" clip-rule="evenodd" d="M139.196 217.724L139.211 229.946L174.981 209.263L174.966 197.057L139.196 217.724ZM137.804 233.853C137.561 233.853 137.318 233.782 137.07 233.661C136.629 233.408 136.341 232.933 136.341 232.422L136.32 216.915C136.32 216.405 136.609 215.93 137.049 215.672L175.68 193.342C176.136 193.084 176.657 193.084 177.108 193.342C177.548 193.6 177.827 194.07 177.832 194.575L177.852 210.092C177.852 210.592 177.574 211.078 177.133 211.335L138.538 233.666C138.295 233.787 138.052 233.863 137.804 233.863V233.853Z" fill="#14100D"/>
<path fill-rule="evenodd" clip-rule="evenodd" d="M175.067 229.078L175.057 300.127C175.057 301.158 175.781 301.588 176.677 301.083L236.856 264.772C237.752 264.246 238.496 262.998 238.496 261.941L238.531 156.269C238.531 155.213 237.792 154.809 236.891 155.314L201.744 176.942L175.072 229.078H175.067Z" fill="#F8D754"/>
<path d="M175.948 302.811C175.528 302.811 175.128 302.705 174.768 302.497C173.984 302.043 173.538 301.178 173.538 300.132L173.548 228.719L200.58 175.88L236.137 154C237.053 153.484 238.031 153.449 238.815 153.904C239.595 154.358 240.046 155.223 240.046 156.274L240.01 261.946C240.01 263.528 239.008 265.267 237.62 266.081L177.457 302.381C176.951 302.669 176.434 302.811 175.943 302.811H175.948ZM176.586 229.446L176.576 299.374L236.066 263.478C236.532 263.205 236.977 262.446 236.977 261.941L237.013 157.022L202.903 178.013L176.591 229.446H176.586Z" fill="black"/>
<path fill-rule="evenodd" clip-rule="evenodd" d="M175.786 228.751L196.079 217.844C199.567 215.969 201.739 212.335 201.739 208.382V176.934L175.786 228.751Z" fill="#DD784B"/>
<path d="M175.792 230.27C175.407 230.27 175.022 230.123 174.734 229.84C174.258 229.38 174.136 228.662 174.435 228.071L200.388 176.254C200.702 175.622 201.41 175.293 202.094 175.455C202.777 175.617 203.264 176.228 203.264 176.931V208.379C203.264 212.898 200.788 217.032 196.803 219.175L176.511 230.083C176.283 230.204 176.035 230.265 175.792 230.265V230.27ZM200.221 183.36L179.29 225.15L195.36 216.512C198.357 214.899 200.221 211.786 200.221 208.384V183.36Z" fill="black"/>
<path d="M183.983 281.098V270.1L187.091 268.281C188.008 267.745 188.782 267.492 189.41 267.517C190.043 267.548 190.519 267.876 190.843 268.503C191.167 269.13 191.329 270.075 191.329 271.333V271.349C191.329 272.597 191.167 273.729 190.843 274.745C190.519 275.761 190.038 276.651 189.41 277.419C188.782 278.182 188.008 278.824 187.086 279.345L183.978 281.093L183.983 281.098ZM186.236 277.894L186.823 277.56C187.309 277.282 187.719 276.934 188.048 276.514C188.377 276.09 188.625 275.569 188.792 274.937C188.96 274.305 189.046 273.552 189.046 272.668V272.653C189.046 271.783 188.96 271.141 188.792 270.717C188.62 270.297 188.372 270.06 188.048 270.019C187.724 269.974 187.314 270.095 186.828 270.378L186.241 270.722V277.894H186.236Z" fill="black"/>
<path d="M193.45 266.566C193.136 266.748 192.863 266.788 192.635 266.687C192.407 266.586 192.296 266.369 192.296 266.04C192.296 265.712 192.407 265.378 192.635 265.014C192.863 264.65 193.131 264.373 193.45 264.191C193.769 264.009 194.048 263.958 194.27 264.059C194.493 264.165 194.605 264.378 194.605 264.696C194.605 265.014 194.493 265.373 194.27 265.737C194.048 266.101 193.774 266.374 193.45 266.566ZM192.367 276.382V268.057L194.534 266.799V275.159L192.367 276.377V276.382Z" fill="black"/>
<path d="M195.663 277.256V266.142L197.84 264.878V266.061L197.886 266.035C197.987 265.712 198.124 265.399 198.296 265.105C198.468 264.812 198.671 264.539 198.914 264.292C199.157 264.044 199.425 263.832 199.729 263.66C200.24 263.362 200.681 263.266 201.04 263.377C201.399 263.488 201.678 263.806 201.875 264.337C202.073 264.868 202.169 265.621 202.169 266.581V266.597C202.169 267.572 202.073 268.436 201.875 269.194C201.678 269.953 201.399 270.589 201.03 271.11C200.665 271.631 200.22 272.04 199.703 272.333C199.415 272.495 199.151 272.596 198.914 272.626C198.676 272.657 198.473 272.626 198.301 272.525C198.129 272.424 197.987 272.262 197.881 272.035L197.84 272.055V276.038L195.663 277.251V277.256ZM198.883 270.883C199.111 270.751 199.303 270.554 199.465 270.291C199.622 270.028 199.744 269.695 199.825 269.296C199.906 268.896 199.946 268.426 199.946 267.89V267.875C199.946 267.34 199.906 266.915 199.825 266.607C199.744 266.298 199.627 266.096 199.47 266.01C199.314 265.919 199.121 265.945 198.888 266.081C198.64 266.223 198.438 266.44 198.286 266.728C198.134 267.016 198.022 267.36 197.952 267.759C197.881 268.158 197.845 268.608 197.845 269.098V269.109C197.845 269.584 197.881 269.983 197.947 270.301C198.017 270.62 198.129 270.832 198.281 270.943C198.438 271.049 198.64 271.034 198.888 270.893L198.883 270.883Z" fill="black"/>
<path d="M203.101 270.34V258.912L205.283 257.633V269.111L203.101 270.34Z" fill="black"/>
<path d="M209.465 266.928C208.772 267.317 208.185 267.484 207.698 267.424C207.212 267.363 206.843 267.075 206.59 266.559C206.337 266.044 206.21 265.296 206.21 264.325V264.31C206.21 263.355 206.342 262.475 206.6 261.667C206.858 260.858 207.233 260.145 207.719 259.524C208.205 258.902 208.792 258.391 209.481 257.992C210.159 257.598 210.741 257.436 211.227 257.497C211.713 257.557 212.088 257.846 212.346 258.361C212.605 258.877 212.736 259.62 212.736 260.585V260.6C212.736 261.586 212.61 262.48 212.356 263.294C212.103 264.103 211.734 264.815 211.248 265.427C210.762 266.039 210.169 266.539 209.476 266.928H209.465ZM209.465 265.073C209.688 264.947 209.881 264.745 210.043 264.472C210.205 264.199 210.321 263.845 210.397 263.415C210.473 262.986 210.514 262.47 210.514 261.864V261.849C210.514 261.252 210.473 260.787 210.397 260.449C210.316 260.11 210.2 259.898 210.043 259.802C209.886 259.711 209.698 259.726 209.476 259.852C209.253 259.978 209.055 260.186 208.893 260.464C208.736 260.737 208.615 261.09 208.539 261.515C208.458 261.94 208.422 262.45 208.422 263.041V263.057C208.422 263.658 208.463 264.128 208.544 264.467C208.625 264.805 208.741 265.023 208.898 265.119C209.055 265.215 209.243 265.2 209.465 265.073Z" fill="black"/>
<path d="M213.662 264.395V255.712L215.839 254.448V255.676L215.885 255.651C216.032 255.146 216.259 254.675 216.568 254.251C216.877 253.826 217.252 253.483 217.702 253.225C217.996 253.053 218.264 252.957 218.502 252.932C218.74 252.906 218.943 252.952 219.11 253.068C219.277 253.184 219.409 253.371 219.5 253.624L219.545 253.599C219.652 253.245 219.793 252.906 219.976 252.583C220.158 252.265 220.371 251.971 220.624 251.709C220.877 251.446 221.16 251.218 221.484 251.036C221.905 250.794 222.269 250.693 222.568 250.743C222.867 250.794 223.1 250.976 223.262 251.289C223.424 251.602 223.505 252.042 223.505 252.593V258.866L221.327 260.089V254.286C221.327 254.049 221.297 253.862 221.241 253.72C221.181 253.579 221.095 253.498 220.983 253.473C220.867 253.447 220.72 253.488 220.543 253.589C220.355 253.695 220.198 253.836 220.072 254.013C219.945 254.19 219.849 254.387 219.778 254.61C219.707 254.837 219.677 255.07 219.677 255.317V261.019L217.51 262.237V256.47C217.51 256.237 217.48 256.05 217.424 255.914C217.368 255.777 217.282 255.696 217.166 255.671C217.049 255.646 216.902 255.686 216.73 255.782C216.548 255.889 216.391 256.03 216.259 256.207C216.128 256.384 216.027 256.586 215.956 256.808C215.885 257.031 215.854 257.268 215.854 257.516V263.167L213.672 264.395H213.662Z" fill="black"/>
<path d="M226.441 257.339C226.031 257.572 225.666 257.673 225.352 257.648C225.038 257.622 224.795 257.476 224.618 257.198C224.441 256.925 224.35 256.531 224.35 256.01V255.995C224.35 255.484 224.446 254.969 224.643 254.453C224.841 253.938 225.15 253.427 225.58 252.927C226.005 252.427 226.572 251.936 227.281 251.461L229.321 250.102V251.593L227.605 252.745C227.251 252.988 226.977 253.261 226.79 253.569C226.603 253.877 226.506 254.201 226.506 254.549V254.56C226.506 254.898 226.582 255.1 226.734 255.166C226.886 255.237 227.074 255.206 227.291 255.085C227.468 254.984 227.63 254.848 227.767 254.676C227.909 254.504 228.02 254.302 228.101 254.069C228.187 253.837 228.228 253.589 228.228 253.326V250.066C228.228 249.717 228.157 249.49 228.01 249.389C227.863 249.288 227.666 249.308 227.418 249.45C227.17 249.591 226.972 249.788 226.825 250.041C226.679 250.289 226.603 250.602 226.582 250.976L226.572 251.148L224.577 252.29L224.588 252.053C224.598 251.492 224.714 250.93 224.942 250.374C225.17 249.819 225.499 249.293 225.924 248.798C226.355 248.307 226.871 247.883 227.479 247.534C228.086 247.185 228.633 246.978 229.068 246.963C229.504 246.943 229.833 247.089 230.056 247.397C230.278 247.706 230.39 248.176 230.39 248.808V254.969L228.213 256.192V255.161L228.172 255.181C228.071 255.484 227.939 255.768 227.777 256.03C227.615 256.298 227.418 256.541 227.195 256.763C226.967 256.986 226.714 257.178 226.425 257.334L226.441 257.339Z" fill="black"/>
<g clip-path="url(#clip4_1892_10279)">
<path d="M221.322 121.219C225.33 121.219 228.578 117.97 228.578 113.963C228.578 109.956 225.33 106.707 221.322 106.707C217.315 106.707 214.066 109.956 214.066 113.963C214.066 117.97 217.315 121.219 221.322 121.219Z" fill="#F4D74B"/>
<path d="M221.322 122.547C216.589 122.547 212.738 118.696 212.738 113.963C212.738 109.23 216.589 105.379 221.322 105.379C226.055 105.379 229.906 109.23 229.906 113.963C229.906 118.696 226.055 122.547 221.322 122.547ZM221.322 108.035C218.055 108.035 215.394 110.696 215.394 113.963C215.394 117.229 218.055 119.891 221.322 119.891C224.589 119.891 227.25 117.229 227.25 113.963C227.25 110.696 224.589 108.035 221.322 108.035Z" fill="black"/>
</g>
</g>
<g clip-path="url(#clip5_1892_10279)">
<path fill-rule="evenodd" clip-rule="evenodd" d="M241.382 79.5103L232.625 74.4471C242.893 80.2362 255.684 70.5446 262.216 63.0595C271.346 52.6348 279.389 34.8292 275.929 20.9656C274.91 16.8906 272.85 13.2828 269.15 11.1016L278.355 16.4343C287.59 22.3096 286.143 37.1721 283.272 46.2924C279.03 59.811 267.563 76.172 253.613 80.3799C249.497 81.6269 245.226 81.6844 241.386 79.5139L241.382 79.5103Z" fill="black"/>
<path fill-rule="evenodd" clip-rule="evenodd" d="M241.945 78.5462C245.157 80.3466 248.972 80.6017 253.3 79.2973C266.669 75.2582 277.956 59.4649 282.209 45.9427C285.321 36.0499 286.024 22.6248 277.759 17.3711L275.193 15.887C275.961 17.3172 276.582 18.9127 277.016 20.6843C280.641 35.2055 272.329 53.1979 263.066 63.7951C257.094 70.6226 248.261 77.1232 239.835 77.3244L241.945 78.5426V78.5462ZM248.132 82.3661C245.487 82.3661 243.054 81.7372 240.839 80.4903C240.839 80.4903 240.832 80.4903 240.822 80.4795L232.065 75.4163C231.533 75.1109 231.35 74.4353 231.655 73.8927C231.96 73.3609 232.646 73.1704 233.166 73.4723C242.932 78.9846 255.493 69.0451 261.379 62.3217C270.545 51.8288 278.125 34.3502 274.845 21.2269C273.79 16.9794 271.679 13.8962 268.578 12.06C268.047 11.7437 267.875 11.061 268.18 10.5363C268.492 9.99373 269.171 9.82125 269.713 10.1267L278.918 15.4594C288.285 21.4209 287.697 35.9673 284.348 46.6219C279.916 60.7047 268.058 77.1843 253.946 81.439C251.911 82.057 249.981 82.3625 248.136 82.3625L248.132 82.3661Z" fill="black"/>
<path fill-rule="evenodd" clip-rule="evenodd" d="M256.894 16.7523C242.811 24.9023 231.391 44.6987 231.391 60.9878C231.391 77.277 242.811 83.8674 256.894 75.7282C270.977 67.589 282.397 47.7854 282.397 31.5035C282.397 15.2215 270.977 8.6131 256.894 16.7559V16.7523Z" fill="white"/>
<path fill-rule="evenodd" clip-rule="evenodd" d="M268.284 14.3854C264.986 14.3854 261.297 15.4993 257.453 17.7273C243.693 25.676 232.51 45.0807 232.51 60.9926C232.51 68.449 234.964 73.9722 239.415 76.5523C243.876 79.1324 249.894 78.4927 256.34 74.7699C270.089 66.8104 281.283 47.4057 281.283 31.5046C281.283 24.041 278.821 18.5178 274.371 15.9449C272.573 14.8992 270.52 14.3854 268.284 14.3854ZM245.502 80.347C242.878 80.347 240.452 79.7361 238.302 78.4891C233.131 75.4886 230.277 69.2719 230.277 60.989C230.277 44.3656 241.963 24.0949 256.344 15.7904C263.504 11.6399 270.305 11.0003 275.487 14.0009C280.659 16.9906 283.523 23.2073 283.523 31.501C283.523 48.1172 271.827 68.3879 257.46 76.6996C253.265 79.118 249.195 80.347 245.505 80.347H245.502Z" fill="black"/>
<path fill-rule="evenodd" clip-rule="evenodd" d="M250.881 6.28144C257.309 2.65564 265.679 0.0180362 272.655 3.76602L281.423 8.8328C268.528 2.4041 253.239 14.3344 245.279 23.6486C234.62 36.1216 225.461 56.5252 228.734 73.0731C229.789 78.4526 232.158 83.1384 236.809 86.2216C234.717 85.0214 228.623 81.6615 227.022 80.4505C216.973 72.8432 218.617 55.9323 221.804 45.3855C226.415 30.0917 237.017 14.4961 250.881 6.28144Z" fill="black"/>
<path fill-rule="evenodd" clip-rule="evenodd" d="M251.446 7.25283C238.701 14.8135 227.755 29.5431 222.878 45.6993C219.443 57.0475 218.657 72.7221 227.698 79.5569C228.229 79.9666 229.352 80.6529 230.655 81.4147C229.259 79.1293 228.258 76.4342 227.633 73.2827C224.256 56.1455 233.975 35.1597 244.437 22.9167C251.93 14.1487 263.332 5.57109 274.153 5.93043L272.107 4.741C265.252 1.0577 257.091 4.07621 251.446 7.25642V7.25283ZM236.81 87.3439C236.62 87.3439 236.43 87.2972 236.25 87.193L234.312 86.0898C231.498 84.4979 227.647 82.3275 226.352 81.3393C216.403 73.8146 216.924 57.6691 220.739 45.0525C225.77 28.3716 237.104 13.1461 250.312 5.31954C250.312 5.31954 250.33 5.30876 250.33 5.30158C256.463 1.84467 265.41 -1.39304 273.188 2.78615L281.984 7.8709C282.508 8.17635 282.698 8.83395 282.411 9.36578C282.117 9.9084 281.46 10.1096 280.929 9.84372C269.347 4.06543 254.949 14.0624 246.134 24.3721C236.006 36.2161 226.592 56.4402 229.826 72.8551C230.956 78.5759 233.44 82.6509 237.424 85.2885C237.926 85.6227 238.07 86.2982 237.747 86.8121C237.539 87.1535 237.176 87.3439 236.806 87.3439H236.81Z" fill="black"/>
<path fill-rule="evenodd" clip-rule="evenodd" d="M277.918 16.1591C275.531 14.7792 272.689 14.2079 269.53 14.5205C266.487 14.826 263.16 15.9471 259.65 17.9666C256.151 19.9934 252.813 22.728 249.77 25.937C246.615 29.2789 243.78 33.1454 241.382 37.2779C239.006 41.4104 237.086 45.8088 235.78 50.218C234.517 54.4547 233.82 58.7201 233.82 62.7663C233.82 66.8126 234.517 70.2695 235.78 73.058C237.083 75.9508 239.003 78.132 241.382 79.5047C243.78 80.8846 246.611 81.4667 249.77 81.1505C252.813 80.8451 256.151 79.7203 259.65 77.6936C263.16 75.6669 266.487 72.943 269.53 69.7233C272.689 66.3814 275.531 62.5256 277.918 58.3931C280.304 54.2606 282.228 49.8622 283.527 45.453C284.783 41.2056 285.476 36.9509 285.476 32.9047C285.476 28.8584 284.783 25.4015 283.527 22.613C282.224 19.7167 280.304 17.539 277.918 16.1591ZM237.33 34.935C243.044 25.0314 250.936 16.3783 259.65 11.3403C268.371 6.30586 276.263 5.82793 281.97 9.13032C287.683 12.4363 291.211 19.5082 291.211 29.5915C291.211 39.6748 287.683 50.8253 281.97 60.736C276.263 70.636 268.371 79.2819 259.65 84.3199C250.94 89.3652 243.048 89.8323 237.33 86.5371C231.613 83.2311 228.089 76.1592 228.089 66.0759C228.089 55.9927 231.617 44.835 237.33 34.9314V34.935Z" fill="#00AF81"/>
<path fill-rule="evenodd" clip-rule="evenodd" d="M271.194 15.5622C270.692 15.5622 270.168 15.5801 269.644 15.6376C266.669 15.9323 263.492 17.0463 260.212 18.9436C256.885 20.8661 253.652 23.4858 250.579 26.7127C247.511 29.9684 244.74 33.7128 242.354 37.8417C239.978 41.9634 238.122 46.2396 236.848 50.5338C235.585 54.81 234.946 58.9209 234.946 62.7695C234.946 66.6181 235.563 69.8702 236.801 72.6048C238 75.2604 239.741 77.2619 241.948 78.5448C244.173 79.8205 246.757 80.3236 249.661 80.0397C252.636 79.745 255.812 78.6311 259.103 76.7337C262.43 74.8004 265.674 72.1844 268.729 68.9574C271.808 65.7018 274.575 61.9574 276.955 57.8357C279.33 53.714 281.186 49.4378 282.46 45.1436C283.723 40.8781 284.369 36.7672 284.369 32.9078C284.369 29.0484 283.741 25.7964 282.517 23.0725C281.308 20.4062 279.578 18.4082 277.364 17.1325C275.558 16.0832 273.484 15.5622 271.201 15.5622H271.194ZM248.103 82.3539C245.429 82.3539 242.989 81.725 240.821 80.4781C238.198 78.9652 236.163 76.6223 234.763 73.5283C233.396 70.499 232.699 66.8912 232.699 62.7695C232.699 58.6478 233.374 54.3824 234.706 49.8977C236.03 45.431 237.95 40.9967 240.419 36.7205C242.892 32.4443 245.763 28.5597 248.961 25.1711C252.173 21.7897 255.579 19.0371 259.096 17.0103C262.642 14.9549 266.123 13.7439 269.414 13.4133C272.799 13.0719 275.853 13.6792 278.465 15.1921C281.1 16.7157 283.145 19.0478 284.542 22.1526C285.902 25.1603 286.594 28.7789 286.594 32.9114C286.594 37.0439 285.92 41.3201 284.588 45.7832C283.267 50.2499 281.347 54.6842 278.875 58.9604C276.42 63.2259 273.538 67.1212 270.333 70.499C267.139 73.8805 263.726 76.6295 260.205 78.6706C256.641 80.726 253.167 81.937 249.88 82.2712C249.269 82.3287 248.681 82.3575 248.099 82.3575L248.103 82.3539ZM273.742 8.13449C276.556 8.13449 279.144 8.7921 281.408 10.0965C287.011 13.3342 290.101 20.2552 290.101 29.5947C290.101 38.9341 286.867 50.0091 280.999 60.1786C275.131 70.3481 267.354 78.5843 259.1 83.3636C251.024 88.028 243.495 88.8113 237.893 85.5736C232.29 82.3359 229.211 75.4149 229.211 66.0827C229.211 56.7505 232.434 45.6682 238.302 35.4915C244.17 25.322 251.947 17.0966 260.212 12.3173C265.014 9.54673 269.619 8.13809 273.742 8.13809V8.13449ZM245.558 89.7708C242.354 89.7708 239.396 89.0269 236.78 87.5141C230.445 83.8559 226.968 76.2486 226.968 66.0827C226.968 55.9168 230.316 44.8777 236.371 34.3776C242.429 23.8667 250.5 15.343 259.096 10.3732C267.875 5.29925 276.204 4.50869 282.528 8.16324C288.852 11.8178 292.33 19.4252 292.33 29.5947C292.33 39.7642 288.992 50.7889 282.934 61.2998C276.876 71.7999 268.804 80.3236 260.209 85.2933C255.055 88.2723 250.073 89.7672 245.555 89.7672L245.558 89.7708Z" fill="black"/>
<path fill-rule="evenodd" clip-rule="evenodd" d="M275.505 27.3566L258.838 62.5725H258.834L241.22 57.5381L244.382 50.8327L255.45 53.9949L268.944 25.4844L275.505 27.3566Z" fill="#00AF81"/>
<path fill-rule="evenodd" clip-rule="evenodd" d="M273.805 28.1343L269.606 26.9269L256.111 55.441L245.043 52.2752L242.933 56.7634L258.178 61.1151C263.389 50.1227 268.597 39.1267 273.805 28.1307V28.1343ZM254.801 52.5447L267.851 24.9685C268.109 24.4222 268.683 24.142 269.286 24.318L275.832 26.183C276.561 26.3951 276.909 27.1892 276.593 27.8756L259.926 63.0879C259.693 63.6197 259.054 63.8964 258.494 63.7383L240.89 58.7039C240.165 58.5062 239.814 57.6977 240.126 57.0221L243.288 50.3167C243.546 49.7705 244.124 49.4902 244.72 49.6663L254.801 52.5411V52.5447Z" fill="black"/>
</g>
<defs>
<clipPath id="clip0_1892_10279">
<rect width="31.6197" height="30.9196" fill="white" transform="translate(306.38 209.168)"/>
</clipPath>
<clipPath id="clip1_1892_10279">
<rect width="31.6197" height="30.9196" fill="white" transform="translate(15.3105 263.008)"/>
</clipPath>
<clipPath id="clip2_1892_10279">
<rect width="17.1677" height="17.1677" fill="white" transform="translate(38.7207 163.906)"/>
</clipPath>
<clipPath id="clip3_1892_10279">
<rect width="140.463" height="227.862" fill="white" transform="translate(99.5879 74.9453)"/>
</clipPath>
<clipPath id="clip4_1892_10279">
<rect width="17.1677" height="17.1677" fill="white" transform="translate(212.738 105.379)"/>
</clipPath>
<clipPath id="clip5_1892_10279">
<rect width="74.1331" height="88.9598" fill="white" transform="translate(218.201 0.8125)"/>
</clipPath>
</defs>
</svg>
