<svg width="125" height="74" viewBox="0 0 125 74" fill="none" xmlns="http://www.w3.org/2000/svg">
<g clip-path="url(#clip0_2044_8045)">
<path opacity="0.1" fill-rule="evenodd" clip-rule="evenodd" d="M117.363 62.0093C117.578 61.7063 117.684 61.3893 117.684 61.0667C117.684 59.8717 116.192 58.8029 113.878 58.3456C113.134 58.1969 112.345 58.124 111.536 58.1212C110.727 58.1184 109.941 58.1941 109.191 58.3372C107.694 58.6261 106.482 59.1984 105.861 59.9081C105.543 60.27 105.38 60.6515 105.383 61.0471C105.383 61.4426 105.541 61.8242 105.859 62.186C106.479 62.8958 107.692 63.4737 109.186 63.7682C109.93 63.9141 110.722 63.9899 111.531 63.9899C112.34 63.9899 113.129 63.9197 113.876 63.771C115.37 63.4849 116.585 62.9098 117.208 62.2029C117.265 62.1384 117.317 62.071 117.363 62.0037V62.0093Z" fill="#0083C3"/>
<path fill-rule="evenodd" clip-rule="evenodd" d="M96.5573 3.07364L100.135 0.837816L100.257 0.804153L100.378 0.773295L100.484 0.756463L100.624 0.748047H100.743L100.877 0.756463L101.014 0.778905L101.149 0.812569L101.283 0.857454L101.428 0.910754L101.568 0.978081L101.715 1.05102L101.865 1.14079L121.428 13.4476C122.452 14.1293 123.127 15.128 123.649 16.2782C124.068 17.2404 124.293 18.1241 124.309 19.1873L124.231 68.1061C124.215 68.9308 124.081 69.7079 123.476 70.2718L119.895 72.5076C120.5 71.9437 120.64 71.1666 120.653 70.3419L120.728 21.4259C120.718 20.3571 120.474 19.4762 120.074 18.5168C119.546 17.361 118.874 16.3651 117.853 15.6863L98.2843 3.37661L98.1318 3.28965L97.9818 3.20829L97.8474 3.14658L97.7026 3.09328L97.5682 3.04839L97.4311 3.01473L97.2967 2.99229L97.1622 2.97826H97.0407L96.9089 2.98667L96.7848 3.00351L96.6788 3.03436L96.5547 3.07364H96.5573Z" fill="#3D68EC"/>
<path fill-rule="evenodd" clip-rule="evenodd" d="M101.638 1.59713C101.154 1.29977 100.746 1.20158 100.531 1.33624L98.1166 2.71083L118.112 15.2449C119.11 15.907 119.867 16.8748 120.511 18.2999C120.997 19.422 121.196 20.3562 121.222 21.4278L121.131 70.3522C121.131 70.6159 121.119 70.8992 121.064 71.191L123.169 69.8837C123.577 69.505 123.735 68.9888 123.763 68.108L123.841 19.2004C123.825 18.2915 123.642 17.4835 123.236 16.5129C122.672 15.2814 122.026 14.451 121.191 13.9012L101.638 1.59713ZM119.51 72.8124C119.376 72.5908 119.404 72.2907 119.593 72.1139C120.002 71.7408 120.165 71.2218 120.188 70.341L120.263 21.4334C120.252 20.5189 120.066 19.7109 119.647 18.7403C119.097 17.5116 118.45 16.6784 117.615 16.1286L98.0597 3.83295L97.9382 3.75721L97.0747 3.49912L96.7101 3.56925C96.4697 3.6478 96.2267 3.52437 96.1336 3.28031C96.0379 3.03625 96.1181 2.75572 96.3353 2.62387L100.009 0.345966C100.557 0.141179 100.867 0.19448 101.335 0.483425L121.693 13.0091C122.688 13.6711 123.443 14.639 124.087 16.0697C124.57 17.1862 124.772 18.1203 124.8 19.192L124.71 68.122C124.697 68.9215 124.586 69.9314 123.722 70.7225L120.146 72.9583C120.066 73.0032 119.984 73.0285 119.903 73.0285C119.759 73.0285 119.606 72.9527 119.513 72.8124H119.51Z" fill="#14100D"/>
<path fill-rule="evenodd" clip-rule="evenodd" d="M117.764 72.4581L98.1978 60.1485C96.6104 59.1498 95.3177 56.5717 95.3203 54.406L95.4005 5.49283C95.403 3.32714 96.6983 2.38175 98.2909 3.38044L117.854 15.6901C119.444 16.6888 120.732 19.2668 120.729 21.4297L120.654 70.3457C120.652 72.5058 119.356 73.4568 117.766 72.4581H117.764Z" fill="#3D68EC"/>
<path fill-rule="evenodd" clip-rule="evenodd" d="M97.0776 3.50141C96.8915 3.50141 96.7157 3.5491 96.5657 3.64168C96.121 3.9194 95.8754 4.58987 95.8754 5.49317L95.785 54.4064C95.785 56.3785 96.9949 58.7966 98.4349 59.7L118.001 72.0096C118.565 72.3687 119.095 72.436 119.467 72.1976C119.914 71.9198 120.173 71.2466 120.173 70.3461L120.248 21.4301C120.248 19.4636 119.043 17.0398 117.6 16.1365L98.0497 3.82682C97.7007 3.61643 97.3749 3.50422 97.0776 3.50141ZM117.52 72.9045L97.9489 60.5977C96.227 59.5148 94.8284 56.7376 94.8439 54.4036L94.924 5.49317C94.924 4.21115 95.3403 3.20966 96.0978 2.74398C96.7855 2.31757 97.6464 2.37929 98.5254 2.93193L118.089 15.2416C119.816 16.3244 121.215 19.1017 121.212 21.4301L121.122 70.3461C121.122 71.6309 120.7 72.6296 119.948 73.0953C119.648 73.2804 119.312 73.373 118.96 73.3702C118.505 73.3702 118.016 73.2159 117.523 72.9017L117.52 72.9045Z" fill="#14100D"/>
<path fill-rule="evenodd" clip-rule="evenodd" d="M95.3203 53.8197L95.3979 5.49283C95.4005 3.32714 96.6957 2.38175 98.2883 3.38044L117.852 15.6901C119.442 16.6888 120.729 19.2668 120.727 21.4297L120.652 69.751L95.3203 53.8197Z" fill="#F4D9DC"/>
<path fill-rule="evenodd" clip-rule="evenodd" d="M97.0749 3.50336C96.8888 3.50336 96.713 3.55105 96.563 3.64362C96.1183 3.92135 95.8727 4.59181 95.8727 5.49512L95.7848 53.5246L120.175 68.85L120.248 21.4264C120.248 19.4599 119.043 17.0361 117.6 16.1328L98.047 3.82877C97.698 3.61838 97.3722 3.50616 97.0749 3.50336ZM120.403 70.2021L95.0738 54.2708C94.9239 54.1783 94.8438 54.0043 94.8438 53.8192L94.9213 5.49512C94.9213 4.2131 95.3376 3.21161 96.0951 2.74873C96.7828 2.31111 97.6437 2.37843 98.5227 2.93388L118.086 15.2435C119.813 16.3264 121.212 19.1036 121.209 21.432L121.119 69.7533C121.119 69.944 121.036 70.1095 120.889 70.2021C120.809 70.247 120.726 70.2723 120.646 70.2723C120.566 70.2723 120.483 70.2442 120.403 70.2021Z" fill="#14100D"/>
<path fill-rule="evenodd" clip-rule="evenodd" d="M123.639 16.2344L123.652 16.2821C124.071 17.2443 124.296 18.128 124.312 19.1912L124.234 68.1099C124.219 68.9347 124.084 69.7146 123.479 70.2756L119.898 72.5115C120.503 71.9476 120.643 71.1705 120.656 70.3458L120.731 21.4298C120.721 20.3666 120.493 19.4801 120.077 18.5207L120.064 18.473L123.639 16.24V16.2344Z" fill="#14100D"/>
<path fill-rule="evenodd" clip-rule="evenodd" d="M123.404 16.9737L120.666 18.685C121.028 19.6388 121.188 20.4719 121.214 21.4313L121.124 70.3557C121.124 70.6194 121.111 70.9028 121.057 71.1945L123.161 69.8873C123.569 69.5085 123.727 68.9924 123.756 68.1115L123.833 19.2067C123.818 18.4381 123.686 17.7452 123.401 16.9737H123.404ZM119.505 72.816C119.371 72.5944 119.399 72.2942 119.588 72.1175C119.997 71.7444 120.159 71.2254 120.183 70.3445L120.258 21.4398C120.234 20.5196 120.061 19.7117 119.627 18.7018C119.51 18.4577 119.604 18.1576 119.821 18.0229L123.396 15.7871C123.518 15.7113 123.665 15.7198 123.787 15.7646C123.921 15.8095 124.03 15.933 124.081 16.0648C124.565 17.1813 124.766 18.1127 124.795 19.1927L124.704 68.1227C124.692 68.9222 124.58 69.9321 123.717 70.7232L120.141 72.9591C120.061 73.0039 119.978 73.0292 119.898 73.0292C119.753 73.0292 119.601 72.9534 119.508 72.8132L119.505 72.816Z" fill="#14100D"/>
<path fill-rule="evenodd" clip-rule="evenodd" d="M122.426 37.8072C122.695 37.8072 122.91 37.5716 122.91 37.291L122.915 32.3733C122.915 32.0872 122.7 31.8516 122.431 31.8516C122.173 31.8516 121.958 32.0844 121.958 32.3705L121.953 37.2882C121.953 37.5716 122.168 37.8072 122.424 37.8072H122.426Z" fill="#14100D"/>
<path fill-rule="evenodd" clip-rule="evenodd" d="M122.434 29.6588C122.703 29.6588 122.918 29.426 122.918 29.1398L122.923 24.2221C122.923 23.9388 122.708 23.706 122.439 23.7031C122.17 23.7003 121.966 23.936 121.966 24.2193L121.961 29.137C121.961 29.4232 122.176 29.6588 122.431 29.6588H122.434Z" fill="#14100D"/>
<path fill-rule="evenodd" clip-rule="evenodd" d="M109.318 65.4315C109.481 65.4315 109.643 65.3333 109.724 65.1734C109.858 64.9238 109.778 64.6039 109.55 64.4637L105.626 62.0006C105.411 61.8604 105.114 61.9389 104.979 62.1914C104.845 62.4383 104.925 62.7553 105.153 62.9011L109.077 65.3642C109.142 65.4091 109.235 65.4343 109.318 65.4343V65.4315Z" fill="#14100D"/>
<path fill-rule="evenodd" clip-rule="evenodd" d="M99.1472 6.19083C99.429 6.36756 99.6591 6.83043 99.6591 7.21476C99.6591 7.6047 99.4265 7.77021 99.1472 7.59348C98.8629 7.41674 98.625 6.95667 98.625 6.56954C98.625 6.18522 98.8654 6.01409 99.1498 6.19083H99.1472Z" fill="#7BCCEC"/>
<path fill-rule="evenodd" clip-rule="evenodd" d="M98.9034 8.04526C98.4742 7.77314 98.1484 7.13914 98.1484 6.57247C98.1484 6.18815 98.2984 5.87396 98.5543 5.71125C98.7974 5.55976 99.1076 5.57098 99.3765 5.74491C99.8057 6.01703 100.131 6.65102 100.131 7.2205C100.131 7.60482 99.984 7.91621 99.7229 8.07892C99.6169 8.15466 99.4825 8.18272 99.361 8.18272C99.1981 8.18272 99.0481 8.13783 98.9008 8.04526H98.9034Z" fill="#14100D"/>
<path fill-rule="evenodd" clip-rule="evenodd" d="M104.008 40.4878C104.171 40.4878 104.334 40.3952 104.427 40.2325C104.567 39.9856 104.487 39.663 104.254 39.5227L100.399 37.1158C100.185 36.9727 99.8873 37.0597 99.7529 37.3094C99.6185 37.5562 99.6986 37.8732 99.9261 38.0163L103.765 40.4232C103.846 40.4709 103.926 40.4906 104.008 40.4906V40.4878Z" fill="#14100D"/>
<path fill-rule="evenodd" clip-rule="evenodd" d="M104.001 48.7454C104.163 48.7454 104.326 48.65 104.419 48.4845C104.559 48.2348 104.479 47.9206 104.246 47.7747L100.391 45.3706C100.177 45.2303 99.8795 45.3145 99.7451 45.5586C99.6107 45.811 99.6908 46.128 99.9183 46.2683L103.758 48.6724C103.838 48.7201 103.918 48.7454 104.001 48.7454Z" fill="#14100D"/>
<path fill-rule="evenodd" clip-rule="evenodd" d="M117.45 20.1638C117.626 20.1638 117.789 20.0685 117.869 19.9001C118.003 19.6533 117.923 19.3363 117.696 19.1932L116.563 18.4863C116.349 18.3404 116.051 18.4302 115.917 18.677C115.783 18.9239 115.863 19.2465 116.09 19.3868L117.225 20.0937C117.295 20.1386 117.375 20.1638 117.453 20.1638H117.45Z" fill="#14100D"/>
<path fill-rule="evenodd" clip-rule="evenodd" d="M115.197 18.7458C115.36 18.7458 115.523 18.6533 115.606 18.4849C115.74 18.2381 115.658 17.9211 115.43 17.7752L114.298 17.0683C114.083 16.928 113.786 17.0094 113.651 17.2618C113.517 17.5087 113.597 17.8257 113.825 17.9688L114.957 18.6757C115.037 18.7234 115.12 18.7458 115.197 18.7458Z" fill="#14100D"/>
<path fill-rule="evenodd" clip-rule="evenodd" d="M112.946 17.3294C113.109 17.3294 113.269 17.2369 113.365 17.0685C113.489 16.8217 113.419 16.5019 113.189 16.356L112.059 15.6491C111.832 15.5116 111.535 15.5901 111.395 15.8426C111.274 16.0895 111.343 16.4065 111.568 16.5496L112.701 17.2565C112.783 17.3042 112.864 17.3266 112.944 17.3266L112.946 17.3294Z" fill="#14100D"/>
<path fill-rule="evenodd" clip-rule="evenodd" d="M116.383 46.6224C116.545 46.6224 116.708 46.527 116.801 46.3615C116.918 46.1118 116.838 45.792 116.61 45.6517L114.684 44.4539C114.454 44.3136 114.172 44.4006 114.038 44.6446C113.898 44.8915 113.978 45.2113 114.211 45.3516L116.137 46.5494C116.217 46.5943 116.3 46.6196 116.38 46.6196L116.383 46.6224Z" fill="#14100D"/>
<path fill-rule="evenodd" clip-rule="evenodd" d="M116.375 54.8846C116.538 54.8846 116.7 54.792 116.794 54.6209C116.91 54.374 116.83 54.0598 116.602 53.914L114.676 52.7161C114.446 52.5758 114.164 52.66 114.03 52.9097C113.89 53.1565 113.97 53.4735 114.203 53.6166L116.129 54.8173C116.209 54.8622 116.292 54.8846 116.372 54.8846H116.375Z" fill="#14100D"/>
<path fill-rule="evenodd" clip-rule="evenodd" d="M116.403 30.1081C116.566 30.1081 116.729 30.0155 116.822 29.8472C116.939 29.5947 116.858 29.2777 116.649 29.1374L114.72 27.9396C114.493 27.7993 114.195 27.8807 114.061 28.1275C113.921 28.3772 114.002 28.6914 114.234 28.8373L116.16 30.0351C116.24 30.0828 116.323 30.1053 116.403 30.1053V30.1081Z" fill="#14100D"/>
<path fill-rule="evenodd" clip-rule="evenodd" d="M116.39 38.3638C116.553 38.3638 116.716 38.2712 116.809 38.1029C116.926 37.8533 116.845 37.5391 116.618 37.3932L114.692 36.1953C114.462 36.0551 114.18 36.1364 114.045 36.3861C113.906 36.633 113.986 36.9528 114.219 37.093L116.145 38.2909C116.225 38.3386 116.308 38.3638 116.388 38.3638H116.39Z" fill="#14100D"/>
<path fill-rule="evenodd" clip-rule="evenodd" d="M104.032 23.9742C104.195 23.9742 104.358 23.8816 104.451 23.7161C104.59 23.4636 104.51 23.1494 104.277 23.0064L100.423 20.6022C100.208 20.4591 99.9108 20.5377 99.7763 20.7902C99.6419 21.0398 99.7221 21.3596 99.9496 21.4999L103.789 23.9041C103.869 23.9517 103.949 23.9742 104.032 23.9742Z" fill="#14100D"/>
<path fill-rule="evenodd" clip-rule="evenodd" d="M104.016 32.236C104.179 32.236 104.342 32.1379 104.435 31.978C104.575 31.7255 104.495 31.4085 104.262 31.2682L100.407 28.8613C100.192 28.7154 99.8952 28.8052 99.7607 29.052C99.6263 29.3017 99.7064 29.6159 99.9339 29.7618L103.773 32.1659C103.853 32.2136 103.933 32.236 104.016 32.236Z" fill="#14100D"/>
<path fill-rule="evenodd" clip-rule="evenodd" d="M99.2265 18.8008L112.094 26.8941L112.089 32.5159L99.2188 24.4254L99.2265 18.8008Z" fill="#00AF81"/>
<path fill-rule="evenodd" clip-rule="evenodd" d="M111.622 27.1938L99.6961 19.7036L99.691 24.1276L111.617 31.6177L111.622 27.1938ZM111.842 32.9643L98.9748 24.8738C98.8274 24.7812 98.7344 24.6073 98.7344 24.4278L98.7421 18.8031C98.7421 18.618 98.8352 18.4525 98.9826 18.3543C99.1325 18.2673 99.3083 18.2673 99.4583 18.3543L112.339 26.4504C112.486 26.543 112.582 26.7141 112.582 26.8964L112.574 32.5182C112.574 32.7006 112.476 32.8745 112.331 32.9643C112.248 33.012 112.168 33.0344 112.088 33.0344C112.008 33.0344 111.925 33.012 111.845 32.9643H111.842Z" fill="#14100D"/>
<path fill-rule="evenodd" clip-rule="evenodd" d="M99.2187 26.8965L112.086 34.9926L112.081 40.6116L99.2109 32.5155L99.2187 26.8965Z" fill="#00AF81"/>
<path fill-rule="evenodd" clip-rule="evenodd" d="M111.604 35.4499L99.6779 27.9598L99.6727 32.3838L111.599 39.8739L111.604 35.4499ZM111.827 41.2232L98.9592 33.1272C98.8118 33.0346 98.7188 32.8663 98.7188 32.6755L98.7265 27.0565C98.7265 26.8713 98.8196 26.7002 98.9669 26.6104C99.1169 26.5179 99.2927 26.5179 99.4427 26.6104L112.323 34.7009C112.47 34.7935 112.566 34.9674 112.566 35.1498L112.558 40.7688C112.558 40.9539 112.46 41.1223 112.315 41.2176C112.232 41.2625 112.152 41.2878 112.072 41.2878C111.992 41.2878 111.909 41.2597 111.829 41.2176L111.827 41.2232Z" fill="#14100D"/>
<path fill-rule="evenodd" clip-rule="evenodd" d="M99.2031 35.1602L112.07 43.2506L112.065 48.8725L99.1953 40.7792L99.2031 35.1602Z" fill="#00AF81"/>
<path fill-rule="evenodd" clip-rule="evenodd" d="M111.596 43.7078L99.6701 36.212L99.6649 40.636L111.591 48.1261L111.596 43.7078ZM111.819 49.4726L98.9514 41.3822C98.804 41.2896 98.7109 41.1213 98.7109 40.9361L98.7187 35.3171C98.7187 35.132 98.8118 34.9608 98.9591 34.8683C99.1091 34.7757 99.2849 34.7757 99.4348 34.8683L112.315 42.9587C112.462 43.0513 112.558 43.2252 112.558 43.4104L112.55 49.0294C112.55 49.2146 112.452 49.3857 112.307 49.4754C112.225 49.5231 112.144 49.5456 112.064 49.5456C111.984 49.5456 111.901 49.5231 111.821 49.4754L111.819 49.4726Z" fill="#14100D"/>
<path fill-rule="evenodd" clip-rule="evenodd" d="M99.1874 43.4141L112.055 51.5102L112.047 57.1292L99.1797 49.0359L99.1874 43.4141Z" fill="#00AF81"/>
<path fill-rule="evenodd" clip-rule="evenodd" d="M111.581 51.9608L99.6545 44.4707L99.6493 48.8946L111.576 56.3904L111.581 51.9608ZM111.803 57.7341L98.9358 49.6436C98.7884 49.5511 98.6953 49.3743 98.6953 49.192L98.7031 43.5702C98.7031 43.3878 98.7961 43.2167 98.9435 43.1241C99.0935 43.0315 99.2693 43.0315 99.4192 43.1241L112.299 51.2146C112.447 51.3072 112.543 51.4811 112.543 51.6663L112.535 57.2853C112.535 57.4704 112.437 57.6415 112.292 57.7341C112.209 57.779 112.129 57.8042 112.049 57.8042C111.969 57.8042 111.886 57.7762 111.806 57.7341H111.803Z" fill="#14100D"/>
</g>
<g clip-path="url(#clip1_2044_8045)">
<path fill-rule="evenodd" clip-rule="evenodd" d="M60.4713 41.8691V44.2051L68.5312 46.6682V44.3322L60.4713 41.8691Z" fill="#DD784B"/>
<path fill-rule="evenodd" clip-rule="evenodd" d="M68.3489 44.4638V46.4204L60.6547 44.0727V42.115L68.3489 44.4648V44.4638ZM68.5318 46.848C68.5732 46.848 68.6086 46.8352 68.6399 46.8126C68.6935 46.7791 68.7188 46.7249 68.7188 46.6687V44.3328C68.7188 44.2529 68.6662 44.184 68.5874 44.1594L60.5234 41.6973C60.4668 41.6805 60.4081 41.6914 60.3627 41.7229C60.3152 41.7584 60.2838 41.8126 60.2838 41.8687V44.2047C60.2838 44.2845 60.3354 44.3534 60.4152 44.3781L68.4792 46.8401C68.4954 46.8461 68.5156 46.848 68.5308 46.848H68.5318Z" fill="black"/>
<path fill-rule="evenodd" clip-rule="evenodd" d="M61.7404 48.1582V50.4942L65.0078 52.3326V49.9966L61.7404 48.1582Z" fill="#DD784B"/>
<path fill-rule="evenodd" clip-rule="evenodd" d="M64.8244 50.1009V52.0201L61.9228 50.3906V48.4714L64.8244 50.1009ZM65.0073 52.5137C65.0387 52.5137 65.07 52.5039 65.1023 52.4891C65.1589 52.4566 65.1953 52.3965 65.1953 52.3325V49.9965C65.1953 49.9315 65.1589 49.8724 65.1023 49.8418L61.8298 48.0014C61.7712 47.9709 61.7035 47.9709 61.6469 48.0014C61.5883 48.0339 61.5519 48.094 61.5519 48.1581V50.494C61.5519 50.56 61.5883 50.6182 61.6469 50.6507L64.9123 52.4891C64.9437 52.5049 64.975 52.5137 65.0073 52.5137Z" fill="black"/>
<path fill-rule="evenodd" clip-rule="evenodd" d="M65.0101 49.9956V52.3315L71.8047 48.5039V46.168L65.0101 49.9956Z" fill="black"/>
<path fill-rule="evenodd" clip-rule="evenodd" d="M71.6165 48.4018L65.1938 52.0196V50.1004L71.6165 46.4826V48.4018ZM65.0068 52.5132C65.0381 52.5132 65.0695 52.5033 65.1018 52.4885L71.8944 48.6619C71.953 48.6294 71.9844 48.5693 71.9844 48.5053V46.1693C71.9844 46.1053 71.953 46.0452 71.8944 46.0127C71.8378 45.9802 71.763 45.9802 71.7064 46.0127L64.9118 49.8412C64.8552 49.8718 64.8239 49.9319 64.8239 49.9959V52.3319C64.8239 52.3959 64.8552 52.456 64.9118 52.4885C64.9431 52.5043 64.9745 52.5132 65.0068 52.5132Z" fill="black"/>
<path fill-rule="evenodd" clip-rule="evenodd" d="M71.8025 46.168V48.5039L76.1797 53.0409V50.7049L71.8025 46.168Z" fill="#DD784B"/>
<path fill-rule="evenodd" clip-rule="evenodd" d="M75.9953 50.7757V52.5866L71.983 48.4339V46.624L75.9953 50.7767V50.7757ZM76.1782 53.222C76.2055 53.222 76.2257 53.2161 76.2479 53.2082C76.3207 53.1806 76.3672 53.1146 76.3672 53.0407V50.7048C76.3672 50.6585 76.347 50.6141 76.3156 50.5806L71.9365 46.0457C71.8829 45.9905 71.8061 45.9738 71.7323 46.0013C71.6596 46.0289 71.6171 46.0949 71.6171 46.1688V48.5048C71.6171 48.5531 71.6333 48.5954 71.6646 48.6289L76.0438 53.1639C76.0812 53.2023 76.1337 53.222 76.1792 53.222H76.1782Z" fill="black"/>
<path fill-rule="evenodd" clip-rule="evenodd" d="M76.1803 50.7048V53.0408L84.0938 39.7383V37.4023L76.1803 50.7048Z" fill="black"/>
<path fill-rule="evenodd" clip-rule="evenodd" d="M83.9093 39.6916L76.3678 52.3705V50.7537L83.9093 38.0739V39.6906V39.6916ZM76.1788 53.2227C76.2486 53.2227 76.3052 53.1892 76.3426 53.132L84.254 39.8296C84.2691 39.802 84.2812 39.7714 84.2812 39.7389V37.403C84.2812 37.3222 84.2226 37.2512 84.1438 37.2296C84.0619 37.2069 83.977 37.2414 83.9356 37.3123L76.0232 50.6148C76.003 50.6414 75.9959 50.6729 75.9959 50.7054V53.0414C75.9959 53.1232 76.0545 53.1951 76.1334 53.2168C76.1475 53.2197 76.1647 53.2227 76.1788 53.2227Z" fill="black"/>
<path fill-rule="evenodd" clip-rule="evenodd" d="M84.0938 37.4023L60.4707 41.8684L68.5357 44.3314L61.7411 48.157L65.0086 49.9954L71.8032 46.1679L76.1803 50.7048L84.0938 37.4023Z" fill="white"/>
<path fill-rule="evenodd" clip-rule="evenodd" d="M83.7339 37.6556L76.1459 50.4034L71.9396 46.0448C71.8809 45.9837 71.788 45.9699 71.7101 46.0113L65.0105 49.7877L62.115 48.1561L68.6277 44.4862C68.6893 44.4507 68.7257 44.3818 68.7206 44.3108C68.7115 44.2389 68.664 44.1788 68.5893 44.1571L61.2266 41.9088L83.7339 37.6556ZM76.1813 50.8852H76.1985C76.2601 50.8773 76.3137 50.8448 76.345 50.7965L84.2564 37.4931C84.2928 37.432 84.2887 37.3561 84.2473 37.298C84.2049 37.2409 84.1372 37.2123 84.0644 37.2261L60.4353 41.6921C60.3514 41.7079 60.2887 41.7768 60.2837 41.8596C60.2776 41.9404 60.3352 42.0162 60.4151 42.0409L68.0758 44.3808L61.6481 48.0005C61.5895 48.033 61.5531 48.0931 61.5531 48.1571C61.5531 48.2212 61.5895 48.2813 61.6481 48.3138L64.9135 50.1522C64.9701 50.1847 65.0449 50.1847 65.1025 50.1522L71.7647 46.3955L76.0448 50.8281C76.0822 50.8655 76.1348 50.8852 76.1803 50.8852H76.1813Z" fill="black"/>
</g>
<rect x="0.28125" y="48.2227" width="53.5714" height="25" rx="12.5" fill="#002568"/>
<path d="M40.0338 65.2814H36.75V56.0352H40.0338C42.9699 56.0352 44.7471 57.9153 44.7471 60.6068C44.7471 63.2982 42.9055 65.2814 40.0338 65.2814ZM38.7074 57.7221V63.5944H39.9308C41.7723 63.5944 42.7381 62.5255 42.7381 60.6068C42.7381 58.7652 41.7723 57.7221 39.9308 57.7221H38.7074Z" fill="#53A6F0"/>
<path d="M34.8637 65.2814H32.9062V56.0352H34.8637V65.2814Z" fill="#53A6F0"/>
<path d="M29.359 62.3855V58.4062H31.1361V65.283H29.5007V64.3815C29.1272 64.9868 28.3674 65.4117 27.4918 65.4117C26.1138 65.4117 25.1094 64.5747 25.1094 62.7847V58.4062H26.8994V62.437C26.8994 63.4028 27.3759 63.8278 28.097 63.8278C28.7409 63.8278 29.359 63.3127 29.359 62.3855Z" fill="white"/>
<path d="M16.7188 61.843C16.7188 59.8083 17.9164 58.2759 19.7708 58.2759C20.5949 58.2759 21.2903 58.6365 21.8054 59.2932V56.0352H23.5826V65.2814H21.9471V64.2898C21.4062 65.0109 20.6593 65.4102 19.7708 65.4102C17.9164 65.4102 16.7188 63.8519 16.7188 61.843ZM18.5603 61.843C18.5603 63.1308 19.2943 63.8133 20.17 63.8133C21.0585 63.8133 21.7926 63.1179 21.7926 61.8173C21.7926 60.5166 21.0457 59.8598 20.17 59.8598C19.2943 59.8598 18.5603 60.5295 18.5603 61.843Z" fill="white"/>
<path d="M12.8212 65.3987C10.7607 65.3987 9.38281 63.9693 9.38281 61.8187C9.38281 59.7712 10.8122 58.2773 12.7954 58.2773C14.9717 58.2773 16.414 60.0416 16.0921 62.2823H11.2114C11.3273 63.4027 11.8682 64.0208 12.7825 64.0208C13.5681 64.0208 14.0961 63.6345 14.3021 62.952H16.0792C15.6929 64.5102 14.4953 65.3987 12.8212 65.3987ZM12.7568 59.5909C11.9197 59.5909 11.3917 60.1317 11.2372 61.1491H14.1991C14.1476 60.1961 13.6067 59.5909 12.7568 59.5909Z" fill="white"/>
<defs>
<clipPath id="clip0_2044_8045">
<rect width="29.9437" height="73.1481" fill="white" transform="translate(94.8438 0.222656)"/>
</clipPath>
<clipPath id="clip1_2044_8045">
<rect width="24" height="16" fill="white" transform="matrix(-1 0 0 1 84.2812 37.2227)"/>
</clipPath>
</defs>
</svg>
