<svg width="80" height="80" viewBox="0 0 80 80" fill="none" xmlns="http://www.w3.org/2000/svg">
<rect width="80" height="80" rx="12" fill="#00A479"/>
<mask id="mask0_1925_8914" style="mask-type:alpha" maskUnits="userSpaceOnUse" x="0" y="0" width="80" height="80">
<path d="M78.0247 0H1.97531C0.884376 0 0 0.884376 0 1.97531V78.0247C0 79.1156 0.884376 80 1.97531 80H78.0247C79.1156 80 80 79.1156 80 78.0247V1.97531C80 0.884376 79.1156 0 78.0247 0Z" fill="#CCEEE6"/>
</mask>
<g mask="url(#mask0_1925_8914)">
<path d="M38.8302 74.801C56.6738 74.801 71.1389 60.3359 71.1389 42.4923C71.1389 24.6487 56.6738 10.1836 38.8302 10.1836C20.9866 10.1836 6.52148 24.6487 6.52148 42.4923C6.52148 60.3359 20.9866 74.801 38.8302 74.801Z" stroke="white" stroke-width="0.715884"/>
<mask id="mask1_1925_8914" style="mask-type:luminance" maskUnits="userSpaceOnUse" x="67" y="46" width="7" height="7">
<path d="M73.4781 46.7734H67.1689V52.9429H73.4781V46.7734Z" fill="white"/>
</mask>
<g mask="url(#mask1_1925_8914)">
<path d="M67.4786 49.848L68.468 47.6973C68.5523 47.5128 68.785 47.348 68.9871 47.3293L71.1638 47.0332C71.3661 47.0145 71.6247 47.1333 71.7413 47.2991L73.1092 49.2297C73.226 49.3955 73.2531 49.6791 73.1676 49.8636L72.1792 52.0132C72.0948 52.1978 71.8623 52.3625 71.6601 52.3812L69.4833 52.6773C69.2812 52.696 69.0226 52.5772 68.9058 52.4115L67.5381 50.4808C67.4213 50.315 67.3942 50.0314 67.4797 49.8469L67.4786 49.848Z" fill="#DD784B"/>
<path d="M69.4415 52.9428C69.1631 52.9428 68.8503 52.7885 68.6929 52.5653L67.3252 50.6337C67.1542 50.3928 67.1187 50.0091 67.2428 49.7412L68.2311 47.5906C68.3531 47.3248 68.6648 47.1028 68.9566 47.0735L71.1396 46.7764C71.4336 46.7493 71.7839 46.9109 71.9549 47.1516L73.3226 49.0824C73.4936 49.3233 73.5291 49.7069 73.4061 49.9747L72.4178 52.1244C72.2948 52.3902 71.984 52.6122 71.6922 52.6415L69.5081 52.9386C69.4863 52.9406 69.4644 52.9417 69.4424 52.9417L69.4415 52.9428ZM71.1929 47.2946L69.0108 47.5906C68.9025 47.601 68.7503 47.7084 68.7044 47.8075L67.7161 49.9581C67.6702 50.0571 67.688 50.2427 67.7506 50.3313L69.1183 52.263C69.1809 52.3506 69.3465 52.4277 69.455 52.4204L71.6369 52.1244C71.7464 52.114 71.8976 52.0065 71.9434 51.9075L72.9318 49.758C72.9776 49.659 72.9598 49.4734 72.8974 49.3848L71.5295 47.4529C71.4671 47.3643 71.2992 47.2873 71.1929 47.2955V47.2946Z" fill="black"/>
<g opacity="0.1">
<path d="M68.9057 52.4128C69.0225 52.5784 69.2821 52.6974 69.4832 52.6785L71.66 52.3825C71.8423 52.3657 72.0488 52.2292 72.15 52.0677C72.0603 52.2001 71.9185 52.1969 71.8143 52.0489L70.4464 50.1181C70.3882 50.0358 70.3516 49.9232 70.3412 49.8086L67.4326 50.1725C67.443 50.2871 67.4796 50.3997 67.538 50.482L68.9057 52.4128Z" fill="black"/>
</g>
</g>
<mask id="mask2_1925_8914" style="mask-type:luminance" maskUnits="userSpaceOnUse" x="9" y="57" width="7" height="7">
<path d="M15.4 57.5156H9.09082V63.6851H15.4V57.5156Z" fill="white"/>
</mask>
<g mask="url(#mask2_1925_8914)">
<path d="M9.40049 60.5902L10.3898 58.4395C10.4742 58.2549 10.7068 58.0902 10.909 58.0715L13.0857 57.7754C13.288 57.7567 13.5466 57.8755 13.6632 58.0413L15.0311 59.9719C15.1479 60.1377 15.1749 60.4213 15.0895 60.6058L14.1011 62.7554C14.0167 62.9399 13.7842 63.1047 13.5819 63.1234L11.4052 63.4195C11.2031 63.4382 10.9445 63.3194 10.8277 63.1537L9.45997 61.223C9.34319 61.0572 9.31609 60.7736 9.40158 60.5891L9.40049 60.5902Z" fill="#00AF81"/>
<path d="M11.3634 63.685C11.085 63.685 10.7722 63.5307 10.6148 63.3075L9.24704 61.3759C9.07608 61.135 9.04058 60.7513 9.16468 60.4834L10.1529 58.3328C10.275 58.067 10.5867 57.8449 10.8785 57.8157L13.0615 57.5186C13.3555 57.4915 13.7058 57.6531 13.8768 57.8938L15.2445 59.8246C15.4154 60.0654 15.4509 60.4491 15.3279 60.7169L14.3397 62.8666C14.2167 63.1324 13.9059 63.3544 13.6141 63.3837L11.43 63.6808C11.4082 63.6828 11.3863 63.6839 11.3643 63.6839L11.3634 63.685ZM13.1147 58.0368L10.9327 58.3328C10.8243 58.3432 10.6722 58.4506 10.6263 58.5497L9.63802 60.7003C9.59208 60.7993 9.60983 60.9849 9.67243 61.0735L11.0401 63.0052C11.1027 63.0928 11.2684 63.1699 11.3769 63.1626L13.5588 62.8666C13.6683 62.8561 13.8195 62.7487 13.8652 62.6497L14.8537 60.5002C14.8994 60.4011 14.8817 60.2155 14.8192 60.127L13.4514 58.1951C13.3889 58.1065 13.2211 58.0295 13.1147 58.0377V58.0368Z" fill="black"/>
<g opacity="0.1">
<path d="M10.8276 63.1549C10.9444 63.3206 11.204 63.4396 11.4051 63.4207L13.5819 63.1247C13.7642 63.1079 13.9707 62.9714 14.0719 62.8099C13.9822 62.9423 13.8403 62.9391 13.7362 62.7911L12.3683 60.8603C12.3101 60.778 12.2735 60.6654 12.2631 60.5508L9.35449 60.9147C9.36492 61.0293 9.40152 61.1418 9.4599 61.2242L10.8276 63.1549Z" fill="black"/>
</g>
</g>
<mask id="mask3_1925_8914" style="mask-type:luminance" maskUnits="userSpaceOnUse" x="13" y="37" width="5" height="5">
<path d="M17.1872 37.7422H13.7617V41.1677H17.1872V37.7422Z" fill="white"/>
</mask>
<g mask="url(#mask3_1925_8914)">
<path d="M15.4741 40.9035C16.2738 40.9035 16.922 40.2553 16.922 39.4556C16.922 38.656 16.2738 38.0078 15.4741 38.0078C14.6746 38.0078 14.0264 38.656 14.0264 39.4556C14.0264 40.2553 14.6746 40.9035 15.4741 40.9035Z" fill="#3D68EC"/>
<path d="M15.4745 41.1677C14.5301 41.1677 13.7617 40.3993 13.7617 39.4549C13.7617 38.5106 14.5301 37.7422 15.4745 37.7422C16.4188 37.7422 17.1872 38.5106 17.1872 39.4549C17.1872 40.3993 16.4188 41.1677 15.4745 41.1677ZM15.4745 38.2721C14.8227 38.2721 14.2916 38.8032 14.2916 39.4549C14.2916 40.1067 14.8227 40.6378 15.4745 40.6378C16.1263 40.6378 16.6574 40.1067 16.6574 39.4549C16.6574 38.8032 16.1263 38.2721 15.4745 38.2721Z" fill="black"/>
</g>
<mask id="mask4_1925_8914" style="mask-type:luminance" maskUnits="userSpaceOnUse" x="25" y="19" width="29" height="47">
<path d="M53.9341 19.9922H25.9072V65.458H53.9341V19.9922Z" fill="white"/>
</mask>
<g mask="url(#mask4_1925_8914)">
<g opacity="0.1">
<path fill-rule="evenodd" clip-rule="evenodd" d="M30.3501 54.0141C30.2218 53.8476 30.1582 53.6732 30.1572 53.4957C30.1572 52.8371 31.0493 52.2492 32.4343 51.998C32.8797 51.9163 33.3515 51.875 33.8354 51.875C34.3183 51.875 34.7912 51.9153 35.2387 51.995C36.1347 52.1543 36.8611 52.469 37.2318 52.8603C37.4227 53.059 37.5197 53.2698 37.5188 53.4876C37.5188 53.7055 37.4238 53.9163 37.2339 54.1159C36.8622 54.5072 36.1368 54.8248 35.2427 54.9863C34.7961 55.0659 34.3244 55.1082 33.8395 55.1093C33.3556 55.1093 32.8828 55.0699 32.4363 54.9893C31.5422 54.8309 30.8149 54.5153 30.4422 54.1249C30.4087 54.0887 30.3765 54.0513 30.3481 54.015L30.3501 54.0141Z" fill="#0083C3"/>
</g>
<path fill-rule="evenodd" clip-rule="evenodd" d="M42.8046 21.5621L40.6629 20.3317L40.5901 20.3125L40.5173 20.2954L40.4547 20.2864L40.3718 20.2812H40.3012L40.2213 20.2864L40.1395 20.2984L40.0587 20.3175L39.9779 20.3418L39.891 20.3711L39.8082 20.4083L39.7202 20.4486L39.6304 20.4981L27.9208 27.2753C27.3076 27.6504 26.9045 28.2001 26.5914 28.8344C26.3418 29.3649 26.2054 29.851 26.1973 30.436L26.2448 57.3713C26.2529 57.8252 26.3348 58.2528 26.6963 58.5634L28.8391 59.7947C28.4765 59.4843 28.3925 59.0565 28.3855 58.6028L28.3401 31.6675C28.3471 31.0794 28.4916 30.5933 28.732 30.0659C29.0471 29.4295 29.4502 28.8799 30.0614 28.5078L41.7701 21.7285L41.861 21.6801L41.9508 21.6357L42.0317 21.6024L42.1185 21.5731L42.1993 21.549L42.2812 21.5298L42.3621 21.5177L42.4418 21.5096H42.5156L42.5955 21.5147L42.6691 21.5247L42.7328 21.542L42.8066 21.5632L42.8046 21.5621Z" fill="#3D68EC"/>
<path fill-rule="evenodd" clip-rule="evenodd" d="M39.7687 20.7485L28.0661 27.5237C27.5659 27.8253 27.1792 28.283 26.8427 28.9617C26.6003 29.4963 26.4891 29.941 26.4801 30.4413L26.5276 57.3716C26.5456 57.8577 26.6406 58.1411 26.8841 58.3499L28.1428 59.0699C28.1106 58.9095 28.1034 58.7543 28.1034 58.6081L28.0489 31.6676C28.0651 31.0776 28.1833 30.5622 28.4753 29.945C28.8611 29.1604 29.3126 28.6279 29.9107 28.2629L41.876 21.3606L40.4303 20.6043C40.302 20.5316 40.0575 20.5851 39.7687 20.7485ZM28.839 60.0815C28.7904 60.0815 28.7409 60.0673 28.6925 60.0432L26.5517 58.8127C26.0346 58.3761 25.9689 57.8204 25.9608 57.3807L25.9072 30.4363C25.9234 29.8463 26.0446 29.3319 26.3335 28.7167C26.7184 27.928 27.1711 27.3955 27.766 27.0305L39.9484 20.1353C40.2293 19.9759 40.4141 19.9477 40.7425 20.0606L42.9418 21.3162C43.071 21.3889 43.1196 21.5441 43.062 21.6773C43.0053 21.8115 42.8599 21.88 42.7165 21.8356L42.4982 21.7973L41.982 21.9385L41.9093 21.9798L30.2058 28.752C29.7056 29.0536 29.3187 29.5134 28.9885 30.1892C28.7389 30.7237 28.6279 31.1684 28.6207 31.6716L28.6662 58.602C28.6813 59.087 28.7794 59.3715 29.0227 59.5772C29.135 59.675 29.1521 59.8394 29.0722 59.9615C29.0166 60.0392 28.9268 60.0804 28.839 60.0804V60.0815Z" fill="#14100D"/>
<path fill-rule="evenodd" clip-rule="evenodd" d="M30.1139 59.7682L41.8244 52.9901C42.7741 52.4394 43.5489 51.0204 43.5469 49.8274L43.4994 22.8941C43.4973 21.702 42.7236 21.1806 41.77 21.7311L30.0603 28.5094C29.1098 29.06 28.3379 30.4791 28.3389 31.6691L28.3843 58.6045C28.3864 59.7945 29.1602 60.3179 30.1128 59.7682H30.1139Z" fill="#3D68EC"/>
<path fill-rule="evenodd" clip-rule="evenodd" d="M42.4911 21.7949C42.3133 21.7949 42.1184 21.8564 41.9093 21.9735L30.2057 28.7507C29.343 29.2479 28.6197 30.5821 28.6207 31.6653L28.6661 58.6007C28.6661 59.0958 28.8207 59.4669 29.0884 59.6202C29.3128 59.7513 29.629 59.714 29.9664 59.5164L41.677 52.7392C42.5397 52.242 43.265 50.9097 43.263 49.8245L43.2094 22.8912C43.2094 22.393 43.0619 22.0249 42.7963 21.8717C42.7063 21.8201 42.6023 21.794 42.4902 21.794L42.4911 21.7949ZM29.3965 60.2687C29.1854 60.2687 28.9855 60.2183 28.8045 60.1165C28.3541 59.8602 28.1025 59.3087 28.1015 58.6016L28.0469 31.6663C28.0449 30.3834 28.8824 28.8555 29.9158 28.2585L41.6254 21.4802C42.1508 21.1757 42.6669 21.1414 43.0781 21.3764C43.5308 21.6325 43.7793 22.1842 43.7802 22.8912L43.8277 49.8245C43.8369 51.1094 43.0003 52.6383 41.97 53.2353L30.2573 60.0115C29.9613 60.185 29.6693 60.2697 29.3965 60.2697V60.2687Z" fill="#14100D"/>
<path fill-rule="evenodd" clip-rule="evenodd" d="M43.5459 49.5046L43.4994 22.8941C43.4973 21.702 42.7236 21.1806 41.77 21.7311L30.0603 28.5094C29.1098 29.06 28.3379 30.4791 28.3389 31.6691L28.3834 58.2767L43.5448 49.5046H43.5459Z" fill="#F4D9DC"/>
<path fill-rule="evenodd" clip-rule="evenodd" d="M42.4912 21.7957C42.3134 21.7957 42.1185 21.8572 41.9094 21.9741L30.2058 28.7513C29.3431 29.2486 28.6198 30.5829 28.6208 31.6659L28.6653 57.7784L43.2631 49.3392L43.2095 22.892C43.2095 22.3937 43.0621 22.0256 42.7963 21.8723C42.7064 21.8209 42.6024 21.7947 42.4903 21.7947L42.4912 21.7957ZM28.3844 58.561C28.3349 58.561 28.2865 58.5468 28.2379 58.5227C28.1501 58.4722 28.1015 58.3794 28.1006 58.2746L28.0459 31.667C28.0439 30.3842 28.8814 28.8562 29.9148 28.2593L41.6255 21.481C42.1509 21.1764 42.667 21.1391 43.0783 21.3801C43.5307 21.6344 43.7792 22.1849 43.7803 22.892L43.8267 49.5025C43.8267 49.6044 43.7783 49.6992 43.6883 49.7506L28.5298 58.5217C28.4814 58.5459 28.4328 58.56 28.3844 58.561Z" fill="#14100D"/>
<path fill-rule="evenodd" clip-rule="evenodd" d="M26.5984 28.8086L26.5914 28.8348C26.3418 29.3652 26.2054 29.8513 26.1973 30.4363L26.2448 57.3717C26.2529 57.8256 26.3348 58.2552 26.6963 58.5638L28.8391 59.7951C28.4765 59.4844 28.3925 59.0569 28.3855 58.603L28.3401 31.6676C28.3471 31.0828 28.4815 30.5936 28.732 30.0662L28.739 30.0399L26.5984 28.8095V28.8086Z" fill="#14100D"/>
<path fill-rule="evenodd" clip-rule="evenodd" d="M26.7376 29.2168C26.5679 29.6414 26.4882 30.0237 26.479 30.4462L26.5265 57.3735C26.5447 57.8596 26.6397 58.143 26.8832 58.3518L28.1419 59.0718C28.1095 58.9115 28.1025 58.7562 28.1025 58.6099L28.0479 31.6695C28.064 31.1421 28.1611 30.6832 28.3762 30.1577L26.7376 29.2159V29.2168ZM28.839 60.0834C28.7904 60.0834 28.7409 60.0692 28.6925 60.0451L26.5517 58.8147C26.0346 58.3779 25.9689 57.8222 25.9608 57.3825L25.9072 30.4381C25.9234 29.843 26.0446 29.3308 26.3335 28.7156C26.3648 28.6419 26.4306 28.5744 26.5103 28.5502C26.5831 28.5259 26.671 28.52 26.7437 28.5624L28.8843 29.7927C29.0137 29.8673 29.0702 30.0338 28.9995 30.1669C28.7389 30.7236 28.6349 31.1673 28.6218 31.6746L28.6672 58.6029C28.6824 59.088 28.7803 59.3724 29.0238 59.5781C29.1359 59.6759 29.153 59.8403 29.0733 59.9624C29.0177 60.0399 28.9277 60.0814 28.8399 60.0814L28.839 60.0834Z" fill="#14100D"/>
<path fill-rule="evenodd" clip-rule="evenodd" d="M27.3262 40.6888C27.1655 40.6888 27.0363 40.5597 27.0363 40.4045L27.0322 37.6967C27.0322 37.5383 27.1605 37.4102 27.3211 37.4102C27.4746 37.4102 27.604 37.5383 27.604 37.6967L27.608 40.4045C27.608 40.5597 27.4797 40.6899 27.3262 40.6899V40.6888Z" fill="#14100D"/>
<path fill-rule="evenodd" clip-rule="evenodd" d="M27.3184 36.2016C27.1577 36.2016 27.0285 36.0735 27.0285 35.9151L27.0244 33.2073C27.0244 33.051 27.1527 32.923 27.3132 32.9219C27.4739 32.9209 27.5962 33.05 27.5962 33.2064L27.6002 35.9142C27.6002 36.0726 27.4719 36.2006 27.3184 36.2006V36.2016Z" fill="#14100D"/>
<path fill-rule="evenodd" clip-rule="evenodd" d="M35.1685 55.8979C35.0715 55.8979 34.9735 55.8445 34.925 55.7547C34.8442 55.6166 34.8927 55.4411 35.0291 55.3634L37.3778 54.007C37.5061 53.9294 37.6839 53.9726 37.7647 54.1118C37.8455 54.247 37.7971 54.4225 37.6607 54.5031L35.3119 55.8587C35.2736 55.8828 35.218 55.897 35.1685 55.8979Z" fill="#14100D"/>
<path fill-rule="evenodd" clip-rule="evenodd" d="M41.2563 23.2808C41.0886 23.3785 40.9502 23.6328 40.9502 23.8446C40.9502 24.0583 41.0886 24.1501 41.2574 24.0534C41.4281 23.9565 41.5705 23.7033 41.5705 23.4896C41.5705 23.2778 41.4271 23.183 41.2563 23.2808Z" fill="#7BCCEC"/>
<path fill-rule="evenodd" clip-rule="evenodd" d="M41.1285 24.3756C41.0558 24.3756 40.975 24.3596 40.9124 24.3182C40.7569 24.2285 40.668 24.056 40.668 23.8452C40.668 23.5316 40.8629 23.1837 41.1195 23.0333C41.2802 22.9386 41.465 22.9315 41.6115 23.0152C41.7651 23.1049 41.8549 23.2775 41.8549 23.4892C41.8549 23.8019 41.6611 24.1508 41.4034 24.3011C41.3155 24.3524 41.2255 24.3767 41.1276 24.3767L41.1285 24.3756Z" fill="#14100D"/>
<path fill-rule="evenodd" clip-rule="evenodd" d="M38.346 42.16C38.2479 42.16 38.15 42.1095 38.0955 42.0197C38.0127 41.8836 38.0602 41.7061 38.1995 41.6284L40.5058 40.3032C40.6352 40.2255 40.8119 40.2719 40.8927 40.4091C40.9736 40.5453 40.9251 40.7197 40.7887 40.7974L38.4915 42.1226C38.443 42.1499 38.3945 42.1589 38.346 42.1589V42.16Z" fill="#14100D"/>
<path fill-rule="evenodd" clip-rule="evenodd" d="M38.3538 46.7099C38.2557 46.7099 38.1578 46.6563 38.1033 46.5655C38.0205 46.4274 38.068 46.2549 38.2073 46.1743L40.5136 44.8501C40.643 44.7725 40.8197 44.8189 40.9006 44.954C40.9814 45.0932 40.9329 45.2676 40.7965 45.3453L38.4993 46.6696C38.4509 46.6967 38.4023 46.7099 38.3538 46.7099Z" fill="#14100D"/>
<path fill-rule="evenodd" clip-rule="evenodd" d="M30.2996 30.97C30.1945 30.97 30.0975 30.9166 30.049 30.8249C29.9682 30.6897 30.0166 30.5143 30.153 30.4366L30.831 30.0462C30.9593 29.9667 31.138 30.0151 31.2178 30.1512C31.2987 30.2863 31.2501 30.4648 31.1148 30.5424L30.436 30.9317C30.3945 30.956 30.346 30.9711 30.3005 30.9711L30.2996 30.97Z" fill="#14100D"/>
<path fill-rule="evenodd" clip-rule="evenodd" d="M31.6468 30.192C31.5487 30.192 31.4517 30.1416 31.4024 30.0488C31.3214 29.9136 31.3709 29.7382 31.5073 29.6575L32.1853 29.2682C32.3145 29.1906 32.4914 29.236 32.5722 29.3741C32.653 29.5093 32.6044 29.6848 32.4682 29.7625L31.7902 30.1517C31.7418 30.179 31.6923 30.191 31.6468 30.191V30.192Z" fill="#14100D"/>
<path fill-rule="evenodd" clip-rule="evenodd" d="M33.0013 29.4108C32.9034 29.4108 32.8084 29.3605 32.7508 29.2677C32.6772 29.1315 32.7186 28.956 32.8569 28.8754L33.5337 28.4861C33.6701 28.4104 33.847 28.4539 33.9307 28.592C34.0035 28.7281 33.962 28.9026 33.8267 28.9803L33.149 29.3705C33.0994 29.3977 33.0509 29.4099 33.0024 29.4099L33.0013 29.4108Z" fill="#14100D"/>
<path fill-rule="evenodd" clip-rule="evenodd" d="M30.9402 45.5437C30.8432 45.5437 30.7451 45.4913 30.6895 45.4005C30.6188 45.2624 30.6674 45.0869 30.8038 45.0092L31.9554 44.3496C32.0938 44.2719 32.2615 44.3204 32.3423 44.4555C32.4252 44.5916 32.3777 44.7671 32.2383 44.8448L31.0866 45.5044C31.0381 45.5286 30.9896 45.5437 30.9402 45.5437Z" fill="#14100D"/>
<path fill-rule="evenodd" clip-rule="evenodd" d="M30.946 50.0871C30.849 50.0871 30.7509 50.0367 30.6955 49.943C30.6246 49.8067 30.6732 49.6344 30.8096 49.5537L31.9612 48.893C32.0996 48.8153 32.2673 48.8617 32.3481 48.9989C32.431 49.1352 32.3835 49.3096 32.2441 49.3882L31.0924 50.0498C31.044 50.0741 30.9955 50.0861 30.946 50.0861V50.0871Z" fill="#14100D"/>
<path fill-rule="evenodd" clip-rule="evenodd" d="M30.9268 36.4478C30.8298 36.4478 30.7317 36.3974 30.6763 36.3046C30.6054 36.1654 30.654 35.991 30.7803 35.9133L31.935 35.2526C32.0714 35.1751 32.2492 35.2204 32.3289 35.3566C32.4117 35.4947 32.3643 35.6673 32.2249 35.7479L31.0731 36.4084C31.0247 36.4357 30.9761 36.4478 30.9268 36.4478Z" fill="#14100D"/>
<path fill-rule="evenodd" clip-rule="evenodd" d="M30.9342 40.9947C30.8373 40.9947 30.7392 40.9431 30.6837 40.8503C30.613 40.7122 30.6616 40.5397 30.7979 40.4591L31.9495 39.7995C32.088 39.7218 32.2557 39.7673 32.3365 39.9054C32.4193 40.0416 32.3718 40.2171 32.2325 40.2946L31.0807 40.9542C31.0323 40.9815 30.9837 40.9947 30.9342 40.9947Z" fill="#14100D"/>
<path fill-rule="evenodd" clip-rule="evenodd" d="M38.3343 33.0695C38.2362 33.0695 38.1383 33.019 38.0838 32.9264C38.001 32.7872 38.0484 32.6147 38.1878 32.5349L40.4941 31.2108C40.6235 31.1322 40.8002 31.1755 40.881 31.3147C40.9618 31.4528 40.9134 31.6284 40.777 31.706L38.4797 33.0302C38.4313 33.0575 38.3827 33.0685 38.3343 33.0695Z" fill="#14100D"/>
<path fill-rule="evenodd" clip-rule="evenodd" d="M38.3402 37.6174C38.2421 37.6174 38.1441 37.564 38.0896 37.4742C38.0068 37.335 38.0543 37.1606 38.1937 37.0829L40.5 35.7577C40.6293 35.677 40.8061 35.7264 40.8869 35.8626C40.9677 36.0007 40.9193 36.1732 40.7829 36.2539L38.4856 37.578C38.4372 37.6043 38.3886 37.6163 38.3402 37.6174Z" fill="#14100D"/>
<path fill-rule="evenodd" clip-rule="evenodd" d="M41.2099 30.2227L33.5078 34.6783L33.5129 37.7745L41.2139 33.3198L41.2099 30.2227Z" fill="#F8D754"/>
<path fill-rule="evenodd" clip-rule="evenodd" d="M33.7917 34.8419L33.7946 37.2775L40.932 33.1538L40.929 30.7181L33.7917 34.8419ZM33.5128 38.0582C33.4644 38.0582 33.4158 38.046 33.3663 38.0197C33.2785 37.9714 33.2208 37.8746 33.2208 37.7737L33.2168 34.6775C33.2168 34.5777 33.2744 34.4829 33.3624 34.4324L41.0704 29.9738C41.1613 29.9254 41.2653 29.9254 41.3553 29.9738C41.4431 30.0274 41.4987 30.1191 41.4997 30.2209L41.5037 33.318C41.5037 33.4169 41.4481 33.5127 41.3603 33.5631L33.6593 38.0188C33.6109 38.046 33.5623 38.0582 33.5128 38.0582Z" fill="#14100D"/>
<path fill-rule="evenodd" clip-rule="evenodd" d="M41.2166 34.6797L33.5156 39.1363L33.5197 42.2314L41.2207 37.7739L41.2166 34.6797Z" fill="#F8D754"/>
<path fill-rule="evenodd" clip-rule="evenodd" d="M33.7985 39.3879L33.8016 41.8236L40.9388 37.6987L40.9358 35.2631L33.7985 39.3879ZM33.5196 42.6062C33.4712 42.6062 33.4226 42.592 33.3733 42.5679C33.2853 42.5143 33.2277 42.4226 33.2277 42.3197L33.2236 39.2257C33.2236 39.1237 33.2812 39.029 33.3692 38.9775L41.0772 34.5229C41.1682 34.4715 41.2722 34.4715 41.3622 34.5229C41.45 34.5713 41.5056 34.6662 41.5065 34.768L41.5106 37.8622C41.5106 37.9669 41.4551 38.0588 41.3671 38.1102L33.6661 42.5679C33.6177 42.592 33.5691 42.6062 33.5196 42.6071V42.6062Z" fill="#14100D"/>
<path fill-rule="evenodd" clip-rule="evenodd" d="M41.2225 39.2305L33.5215 43.6861L33.5255 46.7801L41.2276 42.3245L41.2225 39.2305Z" fill="#F8D754"/>
<path fill-rule="evenodd" clip-rule="evenodd" d="M33.8042 43.9373L33.8074 46.3708L40.9447 42.246L40.9416 39.8105L33.8042 43.9373ZM33.5265 47.1504C33.478 47.1504 33.4295 47.1382 33.3799 47.1121C33.2921 47.0637 33.2345 46.9688 33.2345 46.867L33.2305 43.7728C33.2305 43.671 33.2881 43.5762 33.3761 43.5248L41.0841 39.0703C41.175 39.0187 41.279 39.0178 41.369 39.0703C41.4568 39.1205 41.5124 39.2144 41.5133 39.3172L41.5174 42.4114C41.5174 42.5143 41.4618 42.606 41.374 42.6575L33.673 47.1121C33.6246 47.1393 33.576 47.1504 33.5265 47.1513V47.1504Z" fill="#14100D"/>
<path fill-rule="evenodd" clip-rule="evenodd" d="M41.2294 43.7734L33.5273 48.23L33.5314 51.3253L41.2335 46.8685L41.2294 43.7734Z" fill="#F8D754"/>
<path fill-rule="evenodd" clip-rule="evenodd" d="M33.8103 48.4818L33.8132 50.9203L40.9506 46.7935L40.9474 44.358L33.8103 48.4818ZM33.5323 51.6999C33.4839 51.6999 33.4353 51.6857 33.386 51.6616C33.298 51.6112 33.2404 51.5163 33.2404 51.4145L33.2363 48.3203C33.2363 48.2185 33.2939 48.1237 33.3819 48.0723L41.0899 43.6167C41.1808 43.5653 41.2849 43.5653 41.3749 43.6167C41.4627 43.6682 41.5183 43.7619 41.5192 43.8628L41.5232 46.9589C41.5232 47.0588 41.4678 47.1555 41.3798 47.2071L33.6788 51.6625C33.6304 51.6868 33.5818 51.7019 33.5323 51.7019V51.6999Z" fill="#14100D"/>
<path fill-rule="evenodd" clip-rule="evenodd" d="M40.9678 50.7458L40.9658 64.9224C40.9658 65.1282 41.1103 65.2139 41.2891 65.113L53.2967 57.8679C53.4754 57.7629 53.624 57.514 53.624 57.3032L53.6311 36.2181C53.6311 36.0074 53.4835 35.9268 53.3037 36.0275L46.2908 40.343L40.9688 50.7458H40.9678Z" fill="#F8D754"/>
<path d="M41.1439 65.4587C41.06 65.4587 40.9803 65.4376 40.9085 65.3962C40.752 65.3054 40.6631 65.133 40.6631 64.9242L40.6651 50.6749L46.0587 40.132L53.1536 35.766C53.3364 35.6633 53.5313 35.6562 53.6879 35.7469C53.8435 35.8376 53.9335 36.0102 53.9335 36.2199L53.9263 57.305C53.9263 57.6206 53.7264 57.9675 53.4496 58.1299L41.4449 65.373C41.344 65.4306 41.2409 65.4587 41.1428 65.4587H41.1439ZM41.2711 50.8202L41.2691 64.7729L53.1394 57.6105C53.2324 57.556 53.3213 57.4048 53.3213 57.3039L53.3283 36.3692L46.5224 40.5575L41.2722 50.8202H41.2711Z" fill="black"/>
<path fill-rule="evenodd" clip-rule="evenodd" d="M41.1113 50.683L45.1604 48.5067C45.8564 48.1326 46.2899 47.4075 46.2899 46.6188V40.3438L41.1113 50.683Z" fill="#DD784B"/>
<path d="M41.1127 50.9845C41.036 50.9845 40.9592 50.9554 40.9016 50.8989C40.8066 50.807 40.7823 50.6639 40.842 50.5459L46.0204 40.2066C46.083 40.0805 46.2245 40.015 46.3609 40.0472C46.4973 40.0796 46.5942 40.2015 46.5942 40.3418V46.6167C46.5942 47.5184 46.1003 48.3433 45.3052 48.7709L41.2561 50.9473C41.2107 50.9714 41.1612 50.9836 41.1127 50.9836V50.9845ZM45.9871 41.6246L41.8108 49.9629L45.0174 48.2394C45.6153 47.9178 45.9871 47.2965 45.9871 46.6178V41.6246Z" fill="black"/>
<path d="M42.747 61.1282V58.9336L43.3674 58.5706C43.5502 58.4636 43.7048 58.4132 43.83 58.4183C43.9562 58.4242 44.0512 58.4899 44.1158 58.615C44.1806 58.74 44.2128 58.9286 44.2128 59.1797V59.1827C44.2128 59.4318 44.1806 59.6577 44.1158 59.8605C44.0512 60.0632 43.9553 60.2407 43.83 60.3939C43.7048 60.5462 43.5502 60.6743 43.3663 60.7782L42.7461 61.1271L42.747 61.1282ZM43.1965 60.4887L43.3138 60.4222C43.4108 60.3667 43.4925 60.2971 43.5582 60.2134C43.624 60.1287 43.6735 60.0249 43.7068 59.8988C43.7401 59.7726 43.7572 59.6224 43.7572 59.446V59.4429C43.7572 59.2694 43.7401 59.1414 43.7068 59.0567C43.6724 58.9729 43.6229 58.9256 43.5582 58.9175C43.4936 58.9083 43.4117 58.9326 43.3147 58.9891L43.1976 59.0576V60.4887H43.1965Z" fill="black"/>
<path d="M44.6356 58.2254C44.573 58.2617 44.5183 58.2698 44.4729 58.2495C44.4274 58.2295 44.4053 58.186 44.4053 58.1205C44.4053 58.0549 44.4274 57.9884 44.4729 57.9157C44.5183 57.8432 44.5719 57.7877 44.6356 57.7513C44.6992 57.715 44.7548 57.7049 44.7992 57.7251C44.8437 57.7463 44.8658 57.7887 44.8658 57.8522C44.8658 57.9157 44.8437 57.9873 44.7992 58.0599C44.7548 58.1326 44.7002 58.1871 44.6356 58.2254ZM44.4194 60.1839V58.5228L44.8517 58.2718V59.9399L44.4194 60.1829V60.1839Z" fill="black"/>
<path d="M45.0771 60.3604V58.1425L45.5116 57.8905V58.1265L45.5206 58.1214C45.5408 58.0569 45.5681 57.9943 45.6025 57.9359C45.6369 57.8774 45.6772 57.8229 45.7258 57.7735C45.7742 57.724 45.8278 57.6817 45.8884 57.6474C45.9904 57.5879 46.0783 57.5688 46.1501 57.591C46.2217 57.6131 46.2773 57.6767 46.3167 57.7825C46.3561 57.8884 46.3753 58.0387 46.3753 58.2304V58.2333C46.3753 58.4279 46.3561 58.6005 46.3167 58.7518C46.2773 58.903 46.2217 59.0301 46.1481 59.1339C46.0752 59.2379 45.9863 59.3195 45.8834 59.3781C45.8258 59.4103 45.7731 59.4305 45.7258 59.4366C45.6783 59.4425 45.6378 59.4366 45.6034 59.4164C45.5692 59.3963 45.5408 59.3639 45.5197 59.3186L45.5116 59.3226V60.1173L45.0771 60.3593V60.3604ZM45.7197 59.0886C45.7652 59.0624 45.8035 59.023 45.8359 58.9706C45.8672 58.9181 45.8915 58.8516 45.9075 58.7719C45.9237 58.6922 45.9318 58.5984 45.9318 58.4916V58.4885C45.9318 58.3817 45.9237 58.2968 45.9075 58.2353C45.8915 58.1738 45.8681 58.1335 45.8368 58.1164C45.8055 58.0982 45.7672 58.1033 45.7207 58.1305C45.6712 58.1587 45.6308 58.2022 45.6005 58.2596C45.5701 58.3171 45.548 58.3856 45.5338 58.4653C45.5197 58.545 45.5127 58.6347 45.5127 58.7327V58.7347C45.5127 58.8293 45.5197 58.9091 45.5327 58.9726C45.5469 59.0361 45.5692 59.0785 45.5995 59.1007C45.6308 59.1219 45.6712 59.1188 45.7207 59.0906L45.7197 59.0886Z" fill="black"/>
<path d="M46.5615 58.9808V56.7005L46.997 56.4453V58.7357L46.5615 58.9808Z" fill="black"/>
<path d="M47.8312 58.2984C47.6928 58.3761 47.5756 58.4094 47.4786 58.3973C47.3816 58.3851 47.3079 58.3277 47.2573 58.2247C47.2069 58.122 47.1816 57.9727 47.1816 57.779V57.776C47.1816 57.5854 47.2078 57.4099 47.2593 57.2485C47.3109 57.0872 47.3856 56.945 47.4826 56.8209C47.5796 56.6968 47.6969 56.595 47.8342 56.5154C47.9697 56.4366 48.0858 56.4044 48.1828 56.4166C48.2797 56.4287 48.3546 56.4861 48.4059 56.5889C48.4575 56.6918 48.4838 56.8401 48.4838 57.0327V57.0358C48.4838 57.2324 48.4586 57.4109 48.408 57.5733C48.3575 57.7346 48.2837 57.8769 48.1867 57.9988C48.0899 58.1209 47.9715 58.2207 47.8333 58.2984H47.8312ZM47.8312 57.9283C47.8756 57.9031 47.9141 57.8627 47.9463 57.8082C47.9787 57.7537 48.0019 57.6832 48.017 57.5976C48.0323 57.5118 48.0403 57.4089 48.0403 57.2879V57.2849C48.0403 57.1658 48.0323 57.073 48.017 57.0054C48.001 56.938 47.9776 56.8955 47.9463 56.8763C47.915 56.8583 47.8776 56.8612 47.8333 56.8865C47.7887 56.9117 47.7493 56.9531 47.717 57.0085C47.6857 57.063 47.6615 57.1336 47.6463 57.2183C47.6302 57.303 47.6231 57.4048 47.6231 57.5228V57.5259C47.6231 57.6458 47.6312 57.7397 47.6474 57.8073C47.6635 57.8749 47.6867 57.9182 47.718 57.9373C47.7493 57.9565 47.7867 57.9535 47.8312 57.9283Z" fill="black"/>
<path d="M48.6689 57.793V56.0603L49.1032 55.8082V56.0533L49.1124 56.0482C49.1417 55.9473 49.1871 55.8535 49.2488 55.7688C49.3104 55.6841 49.3852 55.6156 49.475 55.5641C49.5336 55.5298 49.5871 55.5107 49.6346 55.5057C49.6821 55.5006 49.7226 55.5096 49.7559 55.5328C49.7892 55.556 49.8156 55.5934 49.8336 55.6438L49.8428 55.6387C49.864 55.5681 49.8923 55.5006 49.9286 55.4361C49.965 55.3726 50.0074 55.314 50.058 55.2616C50.1084 55.2091 50.1651 55.1638 50.2297 55.1275C50.3135 55.0791 50.3862 55.0588 50.4459 55.0689C50.5055 55.0791 50.5519 55.1153 50.5843 55.1778C50.6167 55.2404 50.6328 55.3282 50.6328 55.4381V56.6897L50.1984 56.9337V55.7758C50.1984 55.7285 50.1924 55.6911 50.1812 55.663C50.169 55.6348 50.1519 55.6186 50.1296 55.6136C50.1064 55.6085 50.0771 55.6166 50.0418 55.6368C50.0044 55.658 49.9731 55.6862 49.9479 55.7215C49.9225 55.7567 49.9034 55.7961 49.8892 55.8405C49.875 55.8858 49.869 55.9322 49.869 55.9817V57.1193L49.4367 57.3623V56.2115C49.4367 56.1653 49.4307 56.1279 49.4194 56.1006C49.4084 56.0734 49.3913 56.0572 49.3679 56.0522C49.3447 56.0472 49.3154 56.0553 49.281 56.0745C49.2447 56.0957 49.2134 56.1238 49.1871 56.1592C49.1608 56.1944 49.1407 56.2347 49.1266 56.2791C49.1124 56.3235 49.1063 56.371 49.1063 56.4203V57.5479L48.671 57.793H48.6689Z" fill="black"/>
<path d="M51.2179 56.3872C51.1362 56.4336 51.0635 56.4538 51.0009 56.4487C50.9381 56.4437 50.8897 56.4144 50.8543 56.359C50.819 56.3045 50.8008 56.2259 50.8008 56.122V56.1189C50.8008 56.0171 50.8199 55.9143 50.8593 55.8114C50.8987 55.7085 50.9604 55.6066 51.0463 55.5068C51.1312 55.407 51.2442 55.3091 51.3858 55.2143L51.7928 54.943V55.2406L51.4504 55.4705C51.3797 55.519 51.325 55.5733 51.2877 55.6348C51.2503 55.6963 51.2312 55.7609 51.2312 55.8305V55.8326C51.2312 55.9001 51.2463 55.9405 51.2766 55.9535C51.3068 55.9677 51.3442 55.9616 51.3876 55.9375C51.4231 55.9173 51.4554 55.89 51.4826 55.8558C51.511 55.8215 51.5332 55.7812 51.5494 55.7348C51.5665 55.6884 51.5746 55.6389 51.5746 55.5864V54.936C51.5746 54.8664 51.5605 54.8209 51.5312 54.8009C51.5019 54.7806 51.4625 54.7847 51.413 54.813C51.3635 54.8412 51.3241 54.8806 51.2948 54.9309C51.2654 54.9804 51.2503 55.0428 51.2463 55.1176L51.2442 55.1518L50.8462 55.3798L50.8483 55.3323C50.8503 55.2203 50.8735 55.1084 50.919 54.9975C50.9644 54.8865 51.0301 54.7817 51.115 54.6828C51.2008 54.5851 51.3039 54.5004 51.4252 54.4308C51.5463 54.3612 51.6554 54.3197 51.7423 54.3168C51.8292 54.3127 51.8949 54.342 51.9393 54.4035C51.9837 54.465 52.0059 54.5587 52.0059 54.6849V55.9143L51.5715 56.1583V55.9526L51.5634 55.9567C51.5433 56.0171 51.517 56.0736 51.4846 56.1261C51.4524 56.1795 51.413 56.2279 51.3685 56.2723C51.323 56.3166 51.2726 56.3549 51.215 56.3862L51.2179 56.3872Z" fill="black"/>
<mask id="mask5_1925_8914" style="mask-type:luminance" maskUnits="userSpaceOnUse" x="48" y="26" width="4" height="4">
<path d="M51.9099 26.0664H48.4844V29.4919H51.9099V26.0664Z" fill="white"/>
</mask>
<g mask="url(#mask5_1925_8914)">
<path d="M50.1968 29.2277C50.9965 29.2277 51.6447 28.5795 51.6447 27.7798C51.6447 26.9802 50.9965 26.332 50.1968 26.332C49.3972 26.332 48.749 26.9802 48.749 27.7798C48.749 28.5795 49.3972 29.2277 50.1968 29.2277Z" fill="#F4D74B"/>
<path d="M50.1971 29.4919C49.2528 29.4919 48.4844 28.7235 48.4844 27.7792C48.4844 26.8348 49.2528 26.0664 50.1971 26.0664C51.1415 26.0664 51.9099 26.8348 51.9099 27.7792C51.9099 28.7235 51.1415 29.4919 50.1971 29.4919ZM50.1971 26.5963C49.5453 26.5963 49.0142 27.1274 49.0142 27.7792C49.0142 28.4309 49.5453 28.962 50.1971 28.962C50.8489 28.962 51.38 28.4309 51.38 27.7792C51.38 27.1274 50.8489 26.5963 50.1971 26.5963Z" fill="black"/>
</g>
</g>
<mask id="mask6_1925_8914" style="mask-type:luminance" maskUnits="userSpaceOnUse" x="49" y="5" width="16" height="18">
<path d="M64.3662 5.19922H49.5742V22.9496H64.3662V5.19922Z" fill="white"/>
</mask>
<g mask="url(#mask6_1925_8914)">
<path fill-rule="evenodd" clip-rule="evenodd" d="M54.1995 20.9037L52.4521 19.8935C54.5011 21.0485 57.0532 19.1148 58.3565 17.6211C60.1784 15.5412 61.7831 11.9883 61.0928 9.22208C60.8895 8.40899 60.4784 7.68913 59.7401 7.25391L61.5769 8.3179C63.4194 9.4902 63.1308 12.4557 62.558 14.2756C61.7114 16.9731 59.4235 20.2376 56.64 21.0771C55.8186 21.3259 54.9665 21.3375 54.2002 20.9044L54.1995 20.9037Z" fill="black"/>
<path fill-rule="evenodd" clip-rule="evenodd" d="M54.3121 20.7092C54.953 21.0685 55.7142 21.1194 56.5777 20.859C59.2453 20.0531 61.4974 16.9018 62.346 14.2037C62.9669 12.2299 63.1072 9.55113 61.4582 8.50277L60.946 8.20662C61.0993 8.49203 61.2232 8.81045 61.3098 9.1639C62.0332 12.0612 60.3746 15.6513 58.5264 17.7658C57.3348 19.1282 55.5724 20.4252 53.8909 20.4654L54.3121 20.7085V20.7092ZM55.5467 21.4714C55.0188 21.4714 54.5333 21.3459 54.0915 21.0971C54.0915 21.0971 54.0901 21.0971 54.0879 21.0949L52.3406 20.0847C52.2345 20.0237 52.1981 19.889 52.259 19.7806C52.3198 19.6746 52.4566 19.6366 52.5604 19.6969C54.5089 20.7966 57.0153 18.8134 58.1898 17.4718C60.0187 15.3782 61.5312 11.8906 60.8766 9.27211C60.6661 8.42461 60.2451 7.80944 59.6263 7.44305C59.5203 7.37996 59.4858 7.24372 59.5467 7.13904C59.6092 7.03077 59.7445 6.99635 59.8525 7.05731L61.6894 8.12135C63.5585 9.31088 63.4411 12.2134 62.7729 14.3392C61.8885 17.1492 59.5224 20.4374 56.7067 21.2864C56.3006 21.4098 55.9154 21.4706 55.5473 21.4706L55.5467 21.4714Z" fill="black"/>
<path fill-rule="evenodd" clip-rule="evenodd" d="M57.2948 8.37851C54.4848 10.0047 52.2061 13.9548 52.2061 17.2049C52.2061 20.4551 54.4848 21.77 57.2948 20.146C60.1048 18.522 62.3834 14.5706 62.3834 11.3218C62.3834 8.07304 60.1048 6.75446 57.2948 8.37928V8.37851Z" fill="white"/>
<path fill-rule="evenodd" clip-rule="evenodd" d="M59.568 7.90571C58.9098 7.90571 58.1736 8.12798 57.4066 8.57254C54.6611 10.1586 52.4297 14.0305 52.4297 17.2053C52.4297 18.6932 52.9195 19.7951 53.8075 20.31C54.6977 20.8248 55.8986 20.6973 57.1848 19.9544C59.9281 18.3662 62.1617 14.4943 62.1617 11.3215C62.1617 9.83235 61.6705 8.73027 60.7825 8.21691C60.4237 8.00824 60.0141 7.90571 59.568 7.90571ZM55.022 21.0672C54.4985 21.0672 54.0145 20.9453 53.5855 20.6965C52.5536 20.0978 51.9844 18.8573 51.9844 17.2047C51.9844 13.8877 54.3159 9.84309 57.1854 8.18608C58.614 7.35791 59.9711 7.23028 61.0051 7.82899C62.037 8.42556 62.6086 9.6659 62.6086 11.3209C62.6086 14.6363 60.2747 18.6809 57.4082 20.3395C56.571 20.822 55.759 21.0672 55.0228 21.0672H55.022Z" fill="black"/>
<path fill-rule="evenodd" clip-rule="evenodd" d="M56.0951 6.29098C57.3776 5.56751 59.0476 5.04123 60.4397 5.78907L62.1892 6.80006C59.6162 5.51733 56.5656 7.89781 54.9773 9.75622C52.8504 12.245 51.0228 16.3162 51.676 19.6181C51.8865 20.6914 52.3591 21.6264 53.2873 22.2416C52.8698 22.0021 51.6538 21.3318 51.3344 21.0901C49.3292 19.5722 49.6573 16.1979 50.2932 14.0935C51.2134 11.0419 53.3288 7.93007 56.0951 6.29098Z" fill="black"/>
<path fill-rule="evenodd" clip-rule="evenodd" d="M56.2075 6.48428C53.6647 7.99287 51.4805 10.932 50.5074 14.1555C49.8221 16.4199 49.6651 19.5476 51.4691 20.9112C51.575 20.993 51.7992 21.13 52.0591 21.2819C51.7806 20.8259 51.5808 20.2882 51.4562 19.6594C50.7823 16.2399 52.7216 12.0526 54.809 9.6097C56.3042 7.86022 58.5794 6.1487 60.7384 6.2204L60.3301 5.98308C58.9624 5.24814 57.3341 5.85043 56.2075 6.48499V6.48428ZM53.2873 22.465C53.2493 22.465 53.2113 22.4557 53.1755 22.4349L52.7889 22.2148C52.2274 21.8971 51.459 21.4641 51.2006 21.2668C49.2155 19.7655 49.3193 16.544 50.0806 14.0266C51.0846 10.6981 53.346 7.66017 55.9813 6.09852C55.9813 6.09852 55.9849 6.09637 55.9849 6.09494C57.2087 5.40517 58.9939 4.75915 60.5458 5.59302L62.3009 6.60759C62.4055 6.66854 62.4435 6.79975 62.3862 6.90588C62.3274 7.01414 62.1964 7.0543 62.0904 7.00123C59.7796 5.84829 56.9065 7.843 55.1477 9.90009C53.1269 12.2634 51.2485 16.2988 51.8937 19.574C52.1194 20.7155 52.6148 21.5286 53.4097 22.0549C53.51 22.1215 53.5386 22.2563 53.4741 22.359C53.4326 22.427 53.3603 22.465 53.2865 22.465H53.2873Z" fill="black"/>
<path fill-rule="evenodd" clip-rule="evenodd" d="M61.4892 8.26351C61.0131 7.98816 60.446 7.87415 59.8157 7.93654C59.2085 7.99748 58.5447 8.22115 57.8444 8.62412C57.1462 9.02848 56.4801 9.57423 55.8728 10.2145C55.2435 10.8814 54.6776 11.6527 54.1993 12.4773C53.7253 13.302 53.3422 14.1795 53.0815 15.0594C52.8294 15.9047 52.6905 16.7558 52.6905 17.5631C52.6905 18.3705 52.8294 19.0602 53.0815 19.6167C53.3414 20.1939 53.7246 20.6291 54.1993 20.903C54.6776 21.1783 55.2427 21.2944 55.8728 21.2314C56.4801 21.1705 57.1462 20.946 57.8444 20.5416C58.5447 20.1372 59.2085 19.5937 59.8157 18.9512C60.446 18.2845 61.0131 17.5152 61.4892 16.6906C61.9655 15.8659 62.3494 14.9884 62.6086 14.1085C62.8593 13.261 62.9974 12.4121 62.9974 11.6048C62.9974 10.7974 62.8593 10.1077 62.6086 9.55118C62.3486 8.97336 61.9655 8.53879 61.4892 8.26351ZM53.3909 12.0099C54.531 10.0339 56.1056 8.30726 57.8444 7.30198C59.5845 6.29745 61.1591 6.20208 62.2978 6.86101C63.4379 7.52067 64.1418 8.93179 64.1418 10.9437C64.1418 12.9557 63.4379 15.1805 62.2978 17.158C61.1591 19.1334 59.5845 20.8585 57.8444 21.8637C56.1064 22.8705 54.5316 22.9636 53.3909 22.3062C52.25 21.6465 51.5469 20.2355 51.5469 18.2235C51.5469 16.2116 52.2508 13.9852 53.3909 12.0091V12.0099Z" fill="#00AF81"/>
<path fill-rule="evenodd" clip-rule="evenodd" d="M60.148 8.14307C60.0477 8.14307 59.9431 8.14665 59.8386 8.15811C59.2449 8.21697 58.6112 8.43916 57.9566 8.81783C57.2928 9.20133 56.6476 9.72403 56.0346 10.368C55.4223 11.0176 54.8694 11.7647 54.3933 12.5885C53.9192 13.411 53.549 14.2642 53.2948 15.1211C53.0427 15.9743 52.9152 16.7946 52.9152 17.5625C52.9152 18.3303 53.0383 18.9793 53.2854 19.5249C53.5246 20.0547 53.872 20.4541 54.3123 20.7101C54.7564 20.9647 55.2719 21.0651 55.8513 21.0084C56.4448 20.9496 57.0787 20.7274 57.7353 20.3487C58.3992 19.963 59.0465 19.4411 59.6559 18.7971C60.2703 18.1475 60.8225 17.4004 61.2972 16.578C61.7713 15.7556 62.1416 14.9023 62.3957 14.0455C62.6478 13.1944 62.7767 12.3741 62.7767 11.604C62.7767 10.8341 62.6514 10.1851 62.4072 9.64167C62.1659 9.10962 61.8207 8.71102 61.379 8.45644C61.0187 8.24702 60.6048 8.14307 60.1494 8.14307H60.148ZM55.5405 21.4702C55.0069 21.4702 54.52 21.3447 54.0875 21.0959C53.564 20.794 53.1579 20.3266 52.8787 19.7092C52.6058 19.1048 52.4669 18.3848 52.4669 17.5625C52.4669 16.7401 52.6016 15.889 52.8672 14.9942C53.1314 14.1029 53.5146 13.218 54.0073 12.3648C54.5007 11.5115 55.0735 10.7364 55.7116 10.0604C56.3525 9.38569 57.0322 8.83636 57.7339 8.432C58.4414 8.0219 59.136 7.78026 59.7926 7.71431C60.4679 7.64619 61.0774 7.76736 61.5988 8.06922C62.1243 8.3733 62.5326 8.83854 62.8111 9.45809C63.0825 10.0582 63.2208 10.7802 63.2208 11.6048C63.2208 12.4294 63.0861 13.2827 62.8205 14.1731C62.5569 15.0644 62.1738 15.9491 61.6804 16.8024C61.1906 17.6535 60.6155 18.4307 59.9761 19.1048C59.3388 19.7794 58.6577 20.328 57.9552 20.7352C57.2441 21.1453 56.5509 21.3869 55.8949 21.4537C55.7731 21.4651 55.6557 21.4709 55.5397 21.4709L55.5405 21.4702ZM60.6563 6.66101C61.2178 6.66101 61.7341 6.79222 62.186 7.0525C63.3038 7.69852 63.9204 9.07942 63.9204 10.943C63.9204 12.8065 63.2751 15.0163 62.1044 17.0454C60.9335 19.0746 59.3817 20.718 57.7347 21.6716C56.1233 22.6024 54.6209 22.7587 53.5031 22.1127C52.3853 21.4665 51.7709 20.0856 51.7709 18.2235C51.7709 16.3614 52.414 14.1503 53.5847 12.1196C54.7556 10.0904 56.3074 8.44928 57.9566 7.4956C58.9148 6.94279 59.8336 6.66173 60.6563 6.66173V6.66101ZM55.0328 22.9501C54.3933 22.9501 53.8032 22.8017 53.2811 22.4998C52.0172 21.7698 51.3232 20.252 51.3232 18.2235C51.3232 16.1951 51.9914 13.9925 53.1995 11.8974C54.4082 9.80002 56.0188 8.09933 57.7339 7.10771C59.4854 6.09529 61.1476 5.93754 62.4094 6.66674C63.6711 7.39595 64.3651 8.9139 64.3651 10.943C64.3651 12.9722 63.6991 15.172 62.4902 17.2692C61.2815 19.3643 59.671 21.0651 57.956 22.0566C56.9275 22.6511 55.9337 22.9494 55.032 22.9494L55.0328 22.9501Z" fill="black"/>
<path fill-rule="evenodd" clip-rule="evenodd" d="M61.008 10.4946L57.6823 17.5214H57.6817L54.167 16.5168L54.7979 15.1789L57.0064 15.8099L59.6989 10.1211L61.008 10.4946Z" fill="#00AF81"/>
<path fill-rule="evenodd" clip-rule="evenodd" d="M60.6686 10.6508L59.8307 10.4099L57.1381 16.0994L54.9296 15.4677L54.5086 16.3633L57.5506 17.2316C58.5904 15.0382 59.6295 12.8442 60.6686 10.6502V10.6508ZM56.8768 15.5215L59.4805 10.0191C59.5321 9.9101 59.6467 9.8542 59.767 9.88939L61.0732 10.2615C61.2185 10.3039 61.2879 10.4622 61.225 10.5993L57.8993 17.6253C57.8528 17.7313 57.7253 17.7866 57.6136 17.755L54.1011 16.7505C53.9564 16.711 53.8862 16.5497 53.9486 16.4148L54.5794 15.077C54.6311 14.968 54.7463 14.9121 54.8651 14.9471L56.8768 15.5208V15.5215Z" fill="black"/>
</g>
</g>
</svg>
