<svg width="107" height="74" viewBox="0 0 107 74" fill="none" xmlns="http://www.w3.org/2000/svg">
<g clip-path="url(#clip0_2044_8112)">
<path opacity="0.1" fill-rule="evenodd" clip-rule="evenodd" d="M99.5822 61.8335C99.7968 61.5306 99.9028 61.2136 99.9028 60.891C99.9028 59.6959 98.411 58.6271 96.0971 58.1698C95.3525 58.0211 94.564 57.9482 93.7548 57.9454C92.9455 57.9426 92.1596 58.0183 91.4098 58.1614C89.9129 58.4503 88.7004 59.0226 88.0799 59.7324C87.7619 60.0942 87.599 60.4758 87.6016 60.8713C87.6016 61.2669 87.7593 61.6484 88.0773 62.0103C88.6978 62.72 89.9103 63.2979 91.4047 63.5925C92.1492 63.7383 92.9404 63.8141 93.7496 63.8141C94.5588 63.8141 95.3473 63.7439 96.0945 63.5953C97.5889 63.3091 98.804 62.734 99.427 62.0271C99.4839 61.9626 99.5356 61.8952 99.5822 61.8279V61.8335Z" fill="#0083C3"/>
<path fill-rule="evenodd" clip-rule="evenodd" d="M78.776 2.89786L82.3542 0.662035L82.4757 0.628372L82.5972 0.597513L82.7032 0.580682L82.8428 0.572266H82.9617L83.0962 0.580682L83.2332 0.603124L83.3676 0.636787L83.5021 0.681672L83.6468 0.734973L83.7865 0.8023L83.9338 0.875238L84.0838 0.965007L103.647 13.2719C104.671 13.9535 105.346 14.9522 105.868 16.1024C106.287 17.0646 106.512 17.9483 106.527 19.0115L106.45 67.9303C106.434 68.755 106.3 69.5321 105.695 70.096L102.114 72.3318C102.719 71.7679 102.859 70.9909 102.872 70.1661L102.947 21.2501C102.936 20.1813 102.693 19.3004 102.292 18.341C101.765 17.1852 101.093 16.1894 100.072 15.5105L80.503 3.20083L80.3505 3.11387L80.2006 3.03251L80.0661 2.9708L79.9213 2.91749L79.7869 2.87261L79.6499 2.83895L79.5154 2.8165L79.381 2.80248H79.2595L79.1276 2.81089L79.0035 2.82773L78.8975 2.85858L78.7734 2.89786H78.776Z" fill="#3D68EC"/>
<path fill-rule="evenodd" clip-rule="evenodd" d="M83.8566 1.42135C83.3731 1.12399 82.9646 1.0258 82.7501 1.16045L80.3353 2.53505L100.331 15.0691C101.328 15.7312 102.086 16.699 102.73 18.1241C103.216 19.2462 103.415 20.1804 103.441 21.252L103.35 70.1764C103.35 70.4401 103.337 70.7234 103.283 71.0152L105.388 69.7079C105.796 69.3292 105.954 68.813 105.982 67.9322L106.06 19.0246C106.044 18.1157 105.861 17.3078 105.455 16.3371C104.891 15.1056 104.245 14.2752 103.41 13.7254L83.8566 1.42135ZM101.729 72.6367C101.595 72.415 101.623 72.1149 101.812 71.9381C102.22 71.565 102.383 71.0461 102.407 70.1652L102.482 21.2576C102.471 20.3431 102.285 19.5352 101.866 18.5645C101.316 17.3358 100.669 16.5026 99.8341 15.9528L80.2785 3.65717L80.1569 3.58143L79.2934 3.32334L78.9289 3.39347C78.6885 3.47202 78.4454 3.34859 78.3524 3.10453C78.2567 2.86047 78.3368 2.57994 78.554 2.44809L82.2278 0.170184C82.7759 -0.0346024 83.0862 0.0186983 83.5541 0.307644L103.911 12.8333C104.907 13.4954 105.662 14.4632 106.305 15.8939C106.789 17.0104 106.99 17.9446 107.019 19.0162L106.928 67.9462C106.915 68.7457 106.804 69.7556 105.941 70.5467L102.365 72.7825C102.285 72.8274 102.202 72.8527 102.122 72.8527C101.977 72.8527 101.825 72.7769 101.732 72.6367H101.729Z" fill="#14100D"/>
<path fill-rule="evenodd" clip-rule="evenodd" d="M99.9826 72.2823L80.4166 59.9727C78.8292 58.974 77.5365 56.3959 77.5391 54.2302L77.6192 5.31704C77.6218 3.15135 78.9171 2.20597 80.5096 3.20465L100.073 15.5143C101.663 16.513 102.951 19.0911 102.948 21.2539L102.873 70.1699C102.87 72.33 101.575 73.281 99.9852 72.2823H99.9826Z" fill="#3D68EC"/>
<path fill-rule="evenodd" clip-rule="evenodd" d="M79.2964 3.32563C79.1102 3.32563 78.9344 3.37332 78.7845 3.46589C78.3398 3.74362 78.0942 4.41408 78.0942 5.31739L78.0037 54.2306C78.0037 56.2027 79.2137 58.6209 80.6537 59.5242L100.22 71.8338C100.783 72.1929 101.313 72.2602 101.686 72.0218C102.133 71.7441 102.391 71.0708 102.391 70.1703L102.466 21.2543C102.466 19.2878 101.262 16.864 99.819 15.9607L80.2685 3.65104C79.9195 3.44065 79.5937 3.32843 79.2964 3.32563ZM99.7389 72.7287L80.1677 60.4219C78.4458 59.339 77.0471 56.5618 77.0626 54.2278L77.1428 5.31739C77.1428 4.03537 77.559 3.03388 78.3165 2.5682C79.0042 2.14179 79.8652 2.20351 80.7442 2.75615L100.308 15.0658C102.035 16.1486 103.433 18.9259 103.431 21.2543L103.34 70.1703C103.34 71.4551 102.919 72.4538 102.167 72.9195C101.867 73.1046 101.531 73.1972 101.179 73.1944C100.724 73.1944 100.235 73.0401 99.7414 72.7259L99.7389 72.7287Z" fill="#14100D"/>
<path fill-rule="evenodd" clip-rule="evenodd" d="M77.5391 53.6439L77.6166 5.31704C77.6192 3.15135 78.9145 2.20597 80.5071 3.20465L100.071 15.5143C101.661 16.513 102.948 19.0911 102.945 21.2539L102.87 69.5752L77.5391 53.6439Z" fill="#F4D9DC"/>
<path fill-rule="evenodd" clip-rule="evenodd" d="M79.2937 3.32758C79.1075 3.32758 78.9317 3.37527 78.7818 3.46784C78.3371 3.74557 78.0915 4.41603 78.0915 5.31934L78.0036 53.3488L102.394 68.6742L102.466 21.2506C102.466 19.2841 101.262 16.8603 99.8189 15.957L80.2658 3.65299C79.9167 3.44259 79.591 3.33038 79.2937 3.32758ZM102.621 70.0263L77.2926 54.0951C77.1426 54.0025 77.0625 53.8285 77.0625 53.6434L77.1401 5.31934C77.1401 4.03732 77.5563 3.03583 78.3138 2.57295C79.0015 2.13532 79.8624 2.20265 80.7415 2.7581L100.305 15.0677C102.032 16.1506 103.431 18.9278 103.428 21.2562L103.338 69.5775C103.338 69.7682 103.255 69.9338 103.107 70.0263C103.027 70.0712 102.945 70.0965 102.864 70.0965C102.784 70.0965 102.702 70.0684 102.621 70.0263Z" fill="#14100D"/>
<path fill-rule="evenodd" clip-rule="evenodd" d="M105.858 16.0586L105.871 16.1063C106.29 17.0685 106.515 17.9522 106.53 19.0154L106.453 67.9342C106.437 68.7589 106.303 69.5388 105.698 70.0999L102.117 72.3357C102.722 71.7718 102.862 70.9947 102.875 70.17L102.95 21.254C102.939 20.1908 102.712 19.3043 102.296 18.3449L102.283 18.2972L105.858 16.0642V16.0586Z" fill="#14100D"/>
<path fill-rule="evenodd" clip-rule="evenodd" d="M105.623 16.7979L102.885 18.5092C103.247 19.463 103.407 20.2961 103.433 21.2556L103.342 70.18C103.342 70.4437 103.33 70.727 103.275 71.0187L105.38 69.7115C105.788 69.3328 105.946 68.8166 105.974 67.9357L106.052 19.031C106.036 18.2623 105.905 17.5694 105.62 16.7979H105.623ZM101.724 72.6402C101.59 72.4186 101.618 72.1184 101.807 71.9417C102.215 71.5686 102.378 71.0496 102.401 70.1687L102.476 21.264C102.453 20.3438 102.28 19.5359 101.846 18.526C101.729 18.2819 101.822 17.9818 102.039 17.8471L105.615 15.6113C105.737 15.5356 105.884 15.544 106.005 15.5889C106.14 15.6337 106.248 15.7572 106.3 15.889C106.784 17.0055 106.985 17.9369 107.014 19.0169L106.923 67.9469C106.91 68.7465 106.799 69.7564 105.936 70.5475L102.36 72.7833C102.28 72.8282 102.197 72.8534 102.117 72.8534C101.972 72.8534 101.82 72.7777 101.727 72.6374L101.724 72.6402Z" fill="#14100D"/>
<path fill-rule="evenodd" clip-rule="evenodd" d="M104.645 37.6314C104.914 37.6314 105.128 37.3958 105.128 37.1153L105.134 32.1976C105.134 31.9114 104.919 31.6758 104.65 31.6758C104.392 31.6758 104.177 31.9086 104.177 32.1948L104.172 37.1124C104.172 37.3958 104.386 37.6314 104.642 37.6314H104.645Z" fill="#14100D"/>
<path fill-rule="evenodd" clip-rule="evenodd" d="M104.653 29.483C104.922 29.483 105.136 29.2502 105.136 28.964L105.141 24.0464C105.141 23.763 104.927 23.5302 104.658 23.5274C104.389 23.5246 104.185 23.7602 104.185 24.0435L104.18 28.9612C104.18 29.2474 104.394 29.483 104.65 29.483H104.653Z" fill="#14100D"/>
<path fill-rule="evenodd" clip-rule="evenodd" d="M91.5365 65.2557C91.6993 65.2557 91.8622 65.1575 91.9424 64.9976C92.0768 64.748 91.9967 64.4282 91.7691 64.2879L87.8446 61.8249C87.63 61.6846 87.3327 61.7631 87.1982 62.0156C87.0638 62.2625 87.1439 62.5795 87.3714 62.7253L91.296 65.1884C91.3607 65.2333 91.4537 65.2585 91.5365 65.2585V65.2557Z" fill="#14100D"/>
<path fill-rule="evenodd" clip-rule="evenodd" d="M81.366 6.01505C81.6478 6.19178 81.8779 6.65465 81.8779 7.03898C81.8779 7.42892 81.6452 7.59443 81.366 7.41769C81.0816 7.24096 80.8438 6.78089 80.8438 6.39376C80.8438 6.00943 81.0842 5.83831 81.3686 6.01505H81.366Z" fill="#7BCCEC"/>
<path fill-rule="evenodd" clip-rule="evenodd" d="M81.1221 7.86947C80.6929 7.59736 80.3672 6.96336 80.3672 6.39669C80.3672 6.01237 80.5171 5.69817 80.7731 5.53547C81.0161 5.38398 81.3264 5.3952 81.5952 5.56913C82.0244 5.84124 82.3502 6.47524 82.3502 7.04472C82.3502 7.42904 82.2028 7.74043 81.9417 7.90314C81.8357 7.97888 81.7012 8.00693 81.5797 8.00693C81.4168 8.00693 81.2669 7.96205 81.1195 7.86947H81.1221Z" fill="#14100D"/>
<path fill-rule="evenodd" clip-rule="evenodd" d="M86.2272 40.312C86.39 40.312 86.5529 40.2194 86.646 40.0567C86.7856 39.8098 86.7055 39.4872 86.4728 39.347L82.618 36.94C82.4034 36.7969 82.1061 36.8839 81.9717 37.1336C81.8372 37.3804 81.9174 37.6974 82.1449 37.8405L85.9841 40.2475C86.0643 40.2951 86.1444 40.3148 86.2272 40.3148V40.312Z" fill="#14100D"/>
<path fill-rule="evenodd" clip-rule="evenodd" d="M86.2194 48.5696C86.3822 48.5696 86.5451 48.4742 86.6382 48.3087C86.7778 48.059 86.6976 47.7448 86.465 47.599L82.6102 45.1948C82.3956 45.0546 82.0983 45.1387 81.9638 45.3828C81.8294 45.6352 81.9096 45.9522 82.1371 46.0925L85.9763 48.4967C86.0565 48.5443 86.1366 48.5696 86.2194 48.5696Z" fill="#14100D"/>
<path fill-rule="evenodd" clip-rule="evenodd" d="M99.6688 19.9881C99.8446 19.9881 100.008 19.8927 100.088 19.7244C100.222 19.4775 100.142 19.1605 99.9144 19.0174L98.7821 18.3105C98.5675 18.1646 98.2702 18.2544 98.1357 18.5013C98.0013 18.7481 98.0814 19.0707 98.3089 19.211L99.4439 19.9179C99.5137 19.9628 99.5939 19.9881 99.6714 19.9881H99.6688Z" fill="#14100D"/>
<path fill-rule="evenodd" clip-rule="evenodd" d="M97.4161 18.5701C97.579 18.5701 97.7419 18.4775 97.8246 18.3092C97.9591 18.0623 97.8763 17.7453 97.6488 17.5994L96.5164 16.8925C96.3018 16.7522 96.0045 16.8336 95.8701 17.0861C95.7357 17.3329 95.8158 17.6499 96.0433 17.793L97.1757 18.4999C97.2558 18.5476 97.3386 18.5701 97.4161 18.5701Z" fill="#14100D"/>
<path fill-rule="evenodd" clip-rule="evenodd" d="M95.165 17.1537C95.3279 17.1537 95.4882 17.0611 95.5838 16.8928C95.7079 16.6459 95.6381 16.3261 95.408 16.1802L94.2782 15.4733C94.0507 15.3358 93.7534 15.4144 93.6138 15.6668C93.4923 15.9137 93.5621 16.2307 93.787 16.3738L94.9194 17.0807C95.0021 17.1284 95.0823 17.1508 95.1624 17.1508L95.165 17.1537Z" fill="#14100D"/>
<path fill-rule="evenodd" clip-rule="evenodd" d="M98.6013 46.4466C98.7642 46.4466 98.927 46.3512 99.0201 46.1857C99.1364 45.936 99.0563 45.6162 98.8288 45.476L96.9027 44.2781C96.6726 44.1378 96.3908 44.2248 96.2563 44.4689C96.1167 44.7157 96.1969 45.0355 96.4296 45.1758L98.3557 46.3737C98.4358 46.4185 98.5185 46.4438 98.5987 46.4438L98.6013 46.4466Z" fill="#14100D"/>
<path fill-rule="evenodd" clip-rule="evenodd" d="M98.5935 54.7088C98.7563 54.7088 98.9192 54.6162 99.0123 54.4451C99.1286 54.1983 99.0485 53.8841 98.821 53.7382L96.8949 52.5403C96.6648 52.4001 96.383 52.4842 96.2485 52.7339C96.1089 52.9808 96.1891 53.2978 96.4218 53.4408L98.3479 54.6415C98.428 54.6864 98.5107 54.7088 98.5909 54.7088H98.5935Z" fill="#14100D"/>
<path fill-rule="evenodd" clip-rule="evenodd" d="M98.6221 29.9323C98.785 29.9323 98.9479 29.8397 99.041 29.6714C99.1573 29.4189 99.0772 29.1019 98.8677 28.9617L96.9391 27.7638C96.7115 27.6235 96.4142 27.7049 96.2798 27.9517C96.1402 28.2014 96.2203 28.5156 96.453 28.6615L98.3791 29.8593C98.4592 29.907 98.542 29.9295 98.6221 29.9295V29.9323Z" fill="#14100D"/>
<path fill-rule="evenodd" clip-rule="evenodd" d="M98.6091 38.188C98.772 38.188 98.9348 38.0955 99.0279 37.9271C99.1443 37.6775 99.0641 37.3633 98.8366 37.2174L96.9105 36.0195C96.6804 35.8793 96.3986 35.9606 96.2642 36.2103C96.1246 36.4572 96.2047 36.777 96.4374 36.9172L98.3635 38.1151C98.4436 38.1628 98.5264 38.188 98.6065 38.188H98.6091Z" fill="#14100D"/>
<path fill-rule="evenodd" clip-rule="evenodd" d="M86.2506 23.7984C86.4135 23.7984 86.5764 23.7058 86.6694 23.5403C86.809 23.2878 86.7289 22.9736 86.4962 22.8306L82.6414 20.4264C82.4268 20.2834 82.1295 20.3619 81.9951 20.6144C81.8607 20.8641 81.9408 21.1839 82.1683 21.3241L86.0076 23.7283C86.0877 23.776 86.1679 23.7984 86.2506 23.7984Z" fill="#14100D"/>
<path fill-rule="evenodd" clip-rule="evenodd" d="M86.235 32.0603C86.3979 32.0603 86.5607 31.9621 86.6538 31.8022C86.7934 31.5497 86.7133 31.2327 86.4806 31.0924L82.6258 28.6855C82.4112 28.5396 82.1139 28.6294 81.9795 28.8763C81.845 29.1259 81.9252 29.4401 82.1527 29.586L85.992 31.9901C86.0721 32.0378 86.1522 32.0603 86.235 32.0603Z" fill="#14100D"/>
<path fill-rule="evenodd" clip-rule="evenodd" d="M81.4453 18.625L94.3126 26.7183L94.3074 32.3401L81.4375 24.2496L81.4453 18.625Z" fill="#00AF81"/>
<path fill-rule="evenodd" clip-rule="evenodd" d="M93.8412 27.018L81.9149 19.5279L81.9097 23.9518L93.836 31.442L93.8412 27.018ZM94.0609 32.7885L81.1936 24.698C81.0462 24.6054 80.9531 24.4315 80.9531 24.252L80.9609 18.6274C80.9609 18.4422 81.054 18.2767 81.2013 18.1785C81.3513 18.0915 81.5271 18.0915 81.677 18.1785L94.5573 26.2746C94.7047 26.3672 94.8003 26.5383 94.8003 26.7206L94.7926 32.3425C94.7926 32.5248 94.6943 32.6987 94.5496 32.7885C94.4668 32.8362 94.3867 32.8586 94.3065 32.8586C94.2264 32.8586 94.1437 32.8362 94.0635 32.7885H94.0609Z" fill="#14100D"/>
<path fill-rule="evenodd" clip-rule="evenodd" d="M81.4374 26.7207L94.3048 34.8168L94.2996 40.4358L81.4297 32.3397L81.4374 26.7207Z" fill="#00AF81"/>
<path fill-rule="evenodd" clip-rule="evenodd" d="M93.823 35.2742L81.8967 27.784L81.8915 32.208L93.8178 39.6981L93.823 35.2742ZM94.0453 41.0475L81.1779 32.9514C81.0306 32.8588 80.9375 32.6905 80.9375 32.4997L80.9453 26.8807C80.9453 26.6956 81.0383 26.5244 81.1857 26.4347C81.3356 26.3421 81.5115 26.3421 81.6614 26.4347L94.5417 34.5251C94.689 34.6177 94.7847 34.7916 94.7847 34.974L94.777 40.593C94.777 40.7782 94.6787 40.9465 94.5339 41.0419C94.4512 41.0867 94.371 41.112 94.2909 41.112C94.2108 41.112 94.128 41.0839 94.0479 41.0419L94.0453 41.0475Z" fill="#14100D"/>
<path fill-rule="evenodd" clip-rule="evenodd" d="M81.4218 34.9844L94.2892 43.0749L94.284 48.6967L81.4141 40.6034L81.4218 34.9844Z" fill="#00AF81"/>
<path fill-rule="evenodd" clip-rule="evenodd" d="M93.8151 43.532L81.8889 36.0362L81.8837 40.4602L93.81 47.9503L93.8151 43.532ZM94.0375 49.2969L81.1701 41.2064C81.0228 41.1138 80.9297 40.9455 80.9297 40.7603L80.9374 35.1413C80.9374 34.9562 81.0305 34.7851 81.1779 34.6925C81.3278 34.5999 81.5036 34.5999 81.6536 34.6925L94.5339 42.783C94.6812 42.8755 94.7769 43.0495 94.7769 43.2346L94.7691 48.8536C94.7691 49.0388 94.6709 49.2099 94.5261 49.2997C94.4434 49.3474 94.3632 49.3698 94.2831 49.3698C94.2029 49.3698 94.1202 49.3474 94.0401 49.2997L94.0375 49.2969Z" fill="#14100D"/>
<path fill-rule="evenodd" clip-rule="evenodd" d="M81.4062 43.2383L94.2736 51.3344L94.2658 56.9534L81.3984 48.8601L81.4062 43.2383Z" fill="#00AF81"/>
<path fill-rule="evenodd" clip-rule="evenodd" d="M93.7995 51.785L81.8732 44.2949L81.8681 48.7188L93.7943 56.2146L93.7995 51.785ZM94.0219 57.5583L81.1545 49.4678C81.0071 49.3753 80.9141 49.1985 80.9141 49.0162L80.9218 43.3944C80.9218 43.212 81.0149 43.0409 81.1623 42.9483C81.3122 42.8558 81.488 42.8558 81.638 42.9483L94.5182 51.0388C94.6656 51.1314 94.7613 51.3053 94.7613 51.4905L94.7535 57.1095C94.7535 57.2946 94.6553 57.4658 94.5105 57.5583C94.4278 57.6032 94.3476 57.6285 94.2675 57.6285C94.1873 57.6285 94.1046 57.6004 94.0244 57.5583H94.0219Z" fill="#14100D"/>
</g>
<g clip-path="url(#clip1_2044_8112)">
<path fill-rule="evenodd" clip-rule="evenodd" d="M42.69 41.6934V44.0293L50.75 46.4924V44.1564L42.69 41.6934Z" fill="#DD784B"/>
<path fill-rule="evenodd" clip-rule="evenodd" d="M50.5676 44.288V46.2447L42.8735 43.8969V41.9392L50.5676 44.289V44.288ZM50.7505 46.6722C50.792 46.6722 50.8273 46.6594 50.8587 46.6368C50.9122 46.6033 50.9375 46.5491 50.9375 46.4929V44.157C50.9375 44.0772 50.8849 44.0082 50.8061 43.9836L42.7421 41.5215C42.6855 41.5048 42.6269 41.5156 42.5814 41.5471C42.5339 41.5826 42.5026 41.6368 42.5026 41.6929V44.0289C42.5026 44.1087 42.5541 44.1777 42.634 44.2023L50.698 46.6644C50.7141 46.6703 50.7344 46.6722 50.7495 46.6722H50.7505Z" fill="black"/>
<path fill-rule="evenodd" clip-rule="evenodd" d="M43.9591 47.9824V50.3184L47.2266 52.1568V49.8208L43.9591 47.9824Z" fill="#DD784B"/>
<path fill-rule="evenodd" clip-rule="evenodd" d="M47.0432 49.9251V51.8444L44.1416 50.2148V48.2956L47.0432 49.9251ZM47.2261 52.338C47.2574 52.338 47.2887 52.3281 47.3211 52.3133C47.3777 52.2808 47.4141 52.2207 47.4141 52.1567V49.8207C47.4141 49.7557 47.3777 49.6966 47.3211 49.666L44.0486 47.8256C43.99 47.7951 43.9223 47.7951 43.8657 47.8256C43.807 47.8582 43.7707 47.9183 43.7707 47.9823V50.3183C43.7707 50.3843 43.807 50.4424 43.8657 50.4749L47.1311 52.3133C47.1624 52.3291 47.1937 52.338 47.2261 52.338Z" fill="black"/>
<path fill-rule="evenodd" clip-rule="evenodd" d="M47.2288 49.8198V52.1557L54.0234 48.3281V45.9922L47.2288 49.8198Z" fill="black"/>
<path fill-rule="evenodd" clip-rule="evenodd" d="M53.8352 48.226L47.4125 51.8438V49.9246L53.8352 46.3068V48.226ZM47.2256 52.3374C47.2569 52.3374 47.2882 52.3275 47.3206 52.3127L54.1132 48.4861C54.1718 48.4536 54.2031 48.3935 54.2031 48.3295V45.9935C54.2031 45.9295 54.1718 45.8694 54.1132 45.8369C54.0566 45.8044 53.9818 45.8044 53.9252 45.8369L47.1306 49.6655C47.074 49.696 47.0426 49.7561 47.0426 49.8201V52.1561C47.0426 52.2201 47.074 52.2802 47.1306 52.3127C47.1619 52.3285 47.1932 52.3374 47.2256 52.3374Z" fill="black"/>
<path fill-rule="evenodd" clip-rule="evenodd" d="M54.0213 45.9922V48.3281L58.3984 52.8651V50.5291L54.0213 45.9922Z" fill="#DD784B"/>
<path fill-rule="evenodd" clip-rule="evenodd" d="M58.214 50.5999V52.4108L54.2017 48.2581V46.4482L58.214 50.6009V50.5999ZM58.3969 53.0462C58.4242 53.0462 58.4444 53.0403 58.4667 53.0325C58.5394 53.0049 58.5859 52.9389 58.5859 52.865V50.529C58.5859 50.4827 58.5657 50.4384 58.5344 50.4049L54.1552 45.8699C54.1017 45.8147 54.0249 45.798 53.9511 45.8256C53.8783 45.8531 53.8359 45.9192 53.8359 45.993V48.329C53.8359 48.3773 53.852 48.4196 53.8834 48.4531L58.2625 52.9881C58.2999 53.0265 58.3525 53.0462 58.398 53.0462H58.3969Z" fill="black"/>
<path fill-rule="evenodd" clip-rule="evenodd" d="M58.3991 50.529V52.865L66.3125 39.5625V37.2266L58.3991 50.529Z" fill="black"/>
<path fill-rule="evenodd" clip-rule="evenodd" d="M66.1281 39.5159L58.5866 52.1947V50.5779L66.1281 37.8981V39.5149V39.5159ZM58.3976 53.0469C58.4673 53.0469 58.5239 53.0134 58.5613 52.9562L66.4727 39.6538C66.4879 39.6262 66.5 39.5957 66.5 39.5631V37.2272C66.5 37.1464 66.4414 37.0755 66.3626 37.0538C66.2807 37.0311 66.1958 37.0656 66.1544 37.1365L58.2419 50.439C58.2217 50.4656 58.2147 50.4971 58.2147 50.5296V52.8656C58.2147 52.9474 58.2733 53.0193 58.3521 53.041C58.3663 53.0439 58.3834 53.0469 58.3976 53.0469Z" fill="black"/>
<path fill-rule="evenodd" clip-rule="evenodd" d="M66.3125 37.2266L42.6895 41.6926L50.7545 44.1556L43.9599 47.9812L47.2273 49.8197L54.0219 45.9921L58.3991 50.529L66.3125 37.2266Z" fill="white"/>
<path fill-rule="evenodd" clip-rule="evenodd" d="M65.9526 37.4799L58.3647 50.2276L54.1583 45.869C54.0997 45.8079 54.0067 45.7941 53.9289 45.8355L47.2293 49.6119L44.3337 47.9804L50.8464 44.3104C50.9081 44.2749 50.9444 44.206 50.9394 44.135C50.9303 44.0631 50.8828 44.003 50.808 43.9813L43.4454 41.7331L65.9526 37.4799ZM58.4 50.7094H58.4172C58.4789 50.7015 58.5324 50.669 58.5638 50.6207L66.4752 37.3173C66.5115 37.2562 66.5075 37.1804 66.4661 37.1222C66.4236 37.0651 66.3559 37.0365 66.2831 37.0503L42.654 41.5163C42.5702 41.5321 42.5075 41.601 42.5024 41.6838C42.4964 41.7646 42.554 41.8405 42.6338 41.8651L50.2946 44.205L43.8668 47.8247C43.8082 47.8572 43.7718 47.9173 43.7718 47.9813C43.7718 48.0454 43.8082 48.1055 43.8668 48.138L47.1323 49.9764C47.1888 50.0089 47.2636 50.0089 47.3212 49.9764L53.9835 46.2198L58.2636 50.6523C58.301 50.6897 58.3535 50.7094 58.399 50.7094H58.4Z" fill="black"/>
</g>
<g clip-path="url(#clip2_2044_8112)">
<path d="M18.0462 43.5424L16.5829 44.3019C15.9686 44.6207 15.2373 44.6194 14.6241 44.2984L13.1467 43.5248C12.1741 43.0155 10.9736 43.3335 10.3808 44.2575L9.47949 45.6621C9.10746 46.2419 8.47676 46.6046 7.78853 46.6345L6.12156 46.7071C5.02606 46.7548 4.14798 47.6305 4.09734 48.7259L4.02012 50.396C3.98833 51.0836 3.62449 51.7129 3.04446 52.0835L1.64126 52.9801C0.716605 53.5709 0.396055 54.7699 0.902536 55.7433L1.67431 57.2266C1.99291 57.8389 1.99325 58.568 1.67523 59.1806L0.910636 60.6535C0.404312 61.6288 0.727768 62.8294 1.65554 63.4183L3.06387 64.3123C3.64693 64.6824 4.01299 65.3135 4.04481 66.0034L4.12093 67.6539C4.17154 68.7511 5.05214 69.6276 6.14948 69.6731L7.80911 69.742C8.50032 69.7707 9.13399 70.1351 9.50651 70.718L10.3917 72.1032C10.9842 73.0303 12.1877 73.3496 13.1619 72.8381L14.6177 72.0737C15.2313 71.7515 15.9637 71.7498 16.5788 72.0691L18.0361 72.8257C19.0125 73.3325 20.2143 73.0078 20.8026 72.0783L21.6827 70.6875C22.0539 70.1009 22.6889 69.7334 23.3825 69.7037L25.0068 69.6342C26.107 69.5872 26.9876 68.7052 27.0331 67.605L27.1004 65.9773C27.1291 65.2835 27.4959 64.6479 28.0822 64.2759L29.4614 63.4008C30.3913 62.8107 30.7141 61.6066 30.204 60.6306L29.4527 59.1928C29.1302 58.5757 29.1315 57.8396 29.4562 57.2236L30.215 55.7841C30.7294 54.8083 30.409 53.6011 29.4785 53.0088L28.106 52.1352C27.5225 51.7638 27.157 51.1309 27.127 50.4398L27.0547 48.7727C27.0071 47.6768 26.1309 46.7984 25.0351 46.7481L23.3917 46.6727C22.7007 46.641 22.0688 46.274 21.6988 45.6896L20.8122 44.2895C20.2239 43.3603 19.0224 43.0357 18.0462 43.5424Z" fill="#008939" stroke="#008939" stroke-width="0.662076"/>
<ellipse cx="15.697" cy="58.1842" rx="12.447" ry="12.1822" fill="white"/>
<ellipse cx="15.6931" cy="58.1847" rx="11.1462" ry="10.8604" fill="#008939"/>
<path d="M11.7188 58.5182L13.449 60.9737C13.5146 61.0717 13.6027 61.1527 13.7059 61.2098C13.8092 61.2669 13.9245 61.2985 14.0425 61.3021C14.1604 61.3056 14.2774 61.2809 14.3839 61.2301C14.4903 61.1792 14.5831 61.1037 14.6545 61.0097L20.1933 54.002" stroke="white" stroke-width="1.58898" stroke-linecap="round" stroke-linejoin="round"/>
</g>
<defs>
<clipPath id="clip0_2044_8112">
<rect width="29.9437" height="73.1481" fill="white" transform="translate(77.0625 0.046875)"/>
</clipPath>
<clipPath id="clip1_2044_8112">
<rect width="24" height="16" fill="white" transform="matrix(-1 0 0 1 66.5 37.0469)"/>
</clipPath>
<clipPath id="clip2_2044_8112">
<rect width="31.25" height="30.7203" fill="white" transform="translate(0.0703125 42.8242)"/>
</clipPath>
</defs>
</svg>
