<svg width="31" height="74" viewBox="0 0 31 74" fill="none" xmlns="http://www.w3.org/2000/svg">
<g clip-path="url(#clip0_2044_8004)">
<path opacity="0.1" fill-rule="evenodd" clip-rule="evenodd" d="M23.0822 61.7867C23.2968 61.4837 23.4028 61.1667 23.4028 60.8441C23.4028 59.649 21.911 58.5802 19.5971 58.1229C18.8525 57.9743 18.064 57.9013 17.2548 57.8985C16.4455 57.8957 15.6596 57.9714 14.9098 58.1145C13.4129 58.4035 12.2004 58.9757 11.5799 59.6855C11.2619 60.0474 11.099 60.4289 11.1016 60.8244C11.1016 61.22 11.2593 61.6015 11.5773 61.9634C12.1978 62.6731 13.4103 63.251 14.9047 63.5456C15.6492 63.6915 16.4404 63.7672 17.2496 63.7672C18.0588 63.7672 18.8473 63.6971 19.5945 63.5484C21.0889 63.2622 22.304 62.6872 22.927 61.9802C22.9839 61.9157 23.0356 61.8484 23.0822 61.781V61.7867Z" fill="#0083C3"/>
<path fill-rule="evenodd" clip-rule="evenodd" d="M2.27602 2.85098L5.85417 0.61516L5.97568 0.581497L6.09719 0.550638L6.20319 0.533807L6.3428 0.525391H6.46173L6.59617 0.533807L6.73319 0.556249L6.86763 0.589912L7.00207 0.634797L7.14685 0.688098L7.28646 0.755425L7.43382 0.828363L7.58378 0.918132L27.1472 13.225C28.171 13.9067 28.8458 14.9053 29.3681 16.0555C29.7869 17.0177 30.0118 17.9014 30.0273 18.9646L29.9498 67.8834C29.9342 68.7082 29.7998 69.4852 29.1948 70.0491L25.6141 72.2849C26.2191 71.7211 26.3587 70.944 26.3716 70.1192L26.4466 21.2032C26.4363 20.1344 26.1932 19.2536 25.7925 18.2941C25.2651 17.1384 24.5929 16.1425 23.5717 15.4636L4.00305 3.15395L3.85051 3.06699L3.70056 2.98564L3.56612 2.92392L3.42134 2.87062L3.2869 2.82574L3.14988 2.79207L3.01544 2.76963L2.881 2.7556H2.75949L2.62763 2.76402L2.50353 2.78085L2.39753 2.81171L2.27344 2.85098H2.27602Z" fill="#3D68EC"/>
<path fill-rule="evenodd" clip-rule="evenodd" d="M7.3566 1.37447C6.87313 1.07711 6.46464 0.978926 6.25006 1.11358L3.83533 2.48818L23.8305 15.0222C24.8285 15.6843 25.586 16.6521 26.2298 18.0772C26.7158 19.1993 26.9149 20.1335 26.9407 21.2051L26.8502 70.1295C26.8502 70.3932 26.8373 70.6766 26.783 70.9683L28.8875 69.661C29.296 69.2823 29.4537 68.7662 29.4821 67.8853L29.5597 18.9777C29.5442 18.0688 29.3606 17.2609 28.9547 16.2902C28.3911 15.0587 27.7448 14.2283 26.9097 13.6785L7.3566 1.37447ZM25.2292 72.5898C25.0948 72.3682 25.1232 72.068 25.3119 71.8913C25.7204 71.5182 25.8833 70.9992 25.9066 70.1183L25.9816 21.2107C25.9712 20.2962 25.7851 19.4883 25.3662 18.5177C24.8156 17.2889 24.1692 16.4558 23.3341 15.9059L3.77845 3.6103L3.65694 3.53455L2.79343 3.27647L2.42889 3.3466C2.18845 3.42515 1.94543 3.30171 1.85236 3.05765C1.7567 2.81359 1.83684 2.53306 2.05401 2.40121L5.72782 0.123309C6.27591 -0.0814774 6.58616 -0.0281767 7.05411 0.260769L27.4113 12.7864C28.4066 13.4485 29.1616 14.4163 29.8053 15.847C30.2888 16.9635 30.4904 17.8977 30.5189 18.9693L30.4284 67.8993C30.4155 68.6988 30.3043 69.7087 29.4408 70.4998L25.8652 72.7357C25.7851 72.7805 25.7023 72.8058 25.6222 72.8058C25.4774 72.8058 25.3249 72.7301 25.2318 72.5898H25.2292Z" fill="#14100D"/>
<path fill-rule="evenodd" clip-rule="evenodd" d="M23.4826 72.2354L3.91658 59.9258C2.32916 58.9271 1.03648 56.349 1.03907 54.1833L1.11921 5.27017C1.1218 3.10448 2.41707 2.15909 4.00965 3.15778L23.5731 15.4674C25.1631 16.4661 26.4506 19.0442 26.448 21.2071L26.373 70.1231C26.3705 72.2831 25.0752 73.2341 23.4852 72.2354H23.4826Z" fill="#3D68EC"/>
<path fill-rule="evenodd" clip-rule="evenodd" d="M2.79638 3.27875C2.61024 3.27875 2.43443 3.32644 2.28448 3.41902C1.8398 3.69674 1.59419 4.36721 1.59419 5.27052L1.5037 54.1837C1.5037 56.1558 2.71365 58.574 4.1537 59.4773L23.7197 71.7869C24.2833 72.146 24.8133 72.2134 25.1856 71.9749C25.6329 71.6972 25.8914 71.0239 25.8914 70.1234L25.9664 21.2074C25.9664 19.2409 24.7616 16.8171 23.319 15.9138L3.76848 3.60417C3.41946 3.39377 3.0937 3.28156 2.79638 3.27875ZM23.2389 72.6818L3.66765 60.375C1.9458 59.2922 0.547116 56.5149 0.562628 54.1809L0.642774 5.27052C0.642774 3.98849 1.05902 2.987 1.81653 2.52132C2.50424 2.09492 3.36516 2.15663 4.24419 2.70928L23.8076 15.0189C25.5347 16.1018 26.9333 18.879 26.9308 21.2074L26.8403 70.1234C26.8403 71.4082 26.4189 72.4069 25.6665 72.8726C25.3666 73.0578 25.0305 73.1503 24.6789 73.1475C24.2239 73.1475 23.7352 72.9932 23.2414 72.679L23.2389 72.6818Z" fill="#14100D"/>
<path fill-rule="evenodd" clip-rule="evenodd" d="M1.03906 53.597L1.11662 5.27017C1.11921 3.10448 2.41448 2.15909 4.00706 3.15778L23.5705 15.4674C25.1605 16.4661 26.448 19.0442 26.4454 21.2071L26.3705 69.5283L1.03906 53.597Z" fill="#F4D9DC"/>
<path fill-rule="evenodd" clip-rule="evenodd" d="M2.79367 3.2807C2.60752 3.2807 2.43172 3.32839 2.28177 3.42097C1.83708 3.69869 1.59148 4.36916 1.59148 5.27246L1.50357 53.302L25.8939 68.6273L25.9663 21.2038C25.9663 19.2372 24.7615 16.8135 23.3189 15.9102L3.76577 3.60612C3.41674 3.39572 3.09099 3.28351 2.79367 3.2807ZM26.1214 69.9795L0.792597 54.0482C0.642646 53.9556 0.5625 53.7817 0.5625 53.5965L0.640061 5.27246C0.640061 3.99044 1.0563 2.98895 1.81382 2.52608C2.50152 2.08845 3.36245 2.15578 4.24147 2.71123L23.8049 15.0209C25.5319 16.1037 26.9306 18.881 26.928 21.2094L26.8376 69.5306C26.8376 69.7214 26.7548 69.8869 26.6075 69.9795C26.5273 70.0244 26.4446 70.0496 26.3644 70.0496C26.2843 70.0496 26.2016 70.0215 26.1214 69.9795Z" fill="#14100D"/>
<path fill-rule="evenodd" clip-rule="evenodd" d="M29.3582 16.0117L29.3711 16.0594C29.79 17.0216 30.0149 17.9053 30.0304 18.9685L29.9528 67.8873C29.9373 68.712 29.8029 69.4919 29.1979 70.053L25.6172 72.2888C26.2222 71.7249 26.3618 70.9479 26.3747 70.1231L26.4497 21.2071C26.4393 20.1439 26.2118 19.2574 25.7956 18.298L25.7827 18.2503L29.3582 16.0173V16.0117Z" fill="#14100D"/>
<path fill-rule="evenodd" clip-rule="evenodd" d="M29.1228 16.7511L26.3849 18.4623C26.7468 19.4161 26.9071 20.2493 26.933 21.2087L26.8425 70.1331C26.8425 70.3968 26.8295 70.6801 26.7753 70.9719L28.8797 69.6646C29.2882 69.2859 29.4459 68.7697 29.4744 67.8888L29.5519 18.9841C29.5364 18.2154 29.4046 17.5225 29.1202 16.7511H29.1228ZM25.224 72.5933C25.0896 72.3717 25.118 72.0715 25.3068 71.8948C25.7153 71.5217 25.8781 71.0027 25.9014 70.1219L25.9764 21.2171C25.9531 20.297 25.7799 19.489 25.3455 18.4791C25.2292 18.2351 25.3223 17.9349 25.5394 17.8002L29.115 15.5644C29.2365 15.4887 29.3839 15.4971 29.5054 15.542C29.6398 15.5869 29.7484 15.7103 29.8001 15.8421C30.2836 16.9587 30.4852 17.89 30.5137 18.9701L30.4232 67.9001C30.4103 68.6996 30.2991 69.7095 29.4356 70.5006L25.86 72.7364C25.7799 72.7813 25.6972 72.8065 25.617 72.8065C25.4722 72.8065 25.3197 72.7308 25.2266 72.5905L25.224 72.5933Z" fill="#14100D"/>
<path fill-rule="evenodd" clip-rule="evenodd" d="M28.145 37.5846C28.4139 37.5846 28.6285 37.3489 28.6285 37.0684L28.6336 32.1507C28.6336 31.8646 28.419 31.6289 28.1502 31.6289C27.8916 31.6289 27.677 31.8617 27.677 32.1479L27.6719 37.0656C27.6719 37.3489 27.8865 37.5846 28.1424 37.5846H28.145Z" fill="#14100D"/>
<path fill-rule="evenodd" clip-rule="evenodd" d="M28.1528 29.4361C28.4217 29.4361 28.6363 29.2033 28.6363 28.9172L28.6414 23.9995C28.6414 23.7161 28.4269 23.4833 28.158 23.4805C27.8891 23.4777 27.6849 23.7133 27.6849 23.9967L27.6797 28.9144C27.6797 29.2005 27.8943 29.4361 28.1502 29.4361H28.1528Z" fill="#14100D"/>
<path fill-rule="evenodd" clip-rule="evenodd" d="M15.0365 65.2089C15.1993 65.2089 15.3622 65.1107 15.4424 64.9508C15.5768 64.7011 15.4967 64.3813 15.2691 64.241L11.3446 61.778C11.13 61.6377 10.8327 61.7163 10.6982 61.9687C10.5638 62.2156 10.6439 62.5326 10.8714 62.6785L14.796 65.1415C14.8607 65.1864 14.9537 65.2117 15.0365 65.2117V65.2089Z" fill="#14100D"/>
<path fill-rule="evenodd" clip-rule="evenodd" d="M4.86599 5.96817C5.1478 6.1449 5.3779 6.60778 5.3779 6.9921C5.3779 7.38204 5.14521 7.54755 4.86599 7.37082C4.5816 7.19409 4.34375 6.73402 4.34375 6.34688C4.34375 5.96256 4.58419 5.79144 4.86858 5.96817H4.86599Z" fill="#7BCCEC"/>
<path fill-rule="evenodd" clip-rule="evenodd" d="M4.62211 7.8226C4.19294 7.55049 3.86719 6.91649 3.86719 6.34982C3.86719 5.96549 4.01714 5.6513 4.27309 5.48859C4.51611 5.33711 4.82636 5.34833 5.09524 5.52226C5.52441 5.79437 5.85016 6.42837 5.85016 6.99784C5.85016 7.38217 5.7028 7.69356 5.44167 7.85626C5.33567 7.93201 5.20124 7.96006 5.07972 7.96006C4.91685 7.96006 4.76689 7.91517 4.61953 7.8226H4.62211Z" fill="#14100D"/>
<path fill-rule="evenodd" clip-rule="evenodd" d="M9.72716 40.2651C9.89004 40.2651 10.0529 40.1725 10.146 40.0098C10.2856 39.763 10.2055 39.4403 9.97277 39.3001L6.118 36.8931C5.90341 36.7501 5.60609 36.837 5.47166 37.0867C5.33722 37.3336 5.41736 37.6506 5.64487 37.7936L9.48414 40.2006C9.56429 40.2483 9.64443 40.2679 9.72716 40.2679V40.2651Z" fill="#14100D"/>
<path fill-rule="evenodd" clip-rule="evenodd" d="M9.71935 48.5227C9.88223 48.5227 10.0451 48.4273 10.1382 48.2618C10.2778 48.0121 10.1976 47.698 9.96496 47.5521L6.11018 45.1479C5.8956 45.0077 5.59828 45.0918 5.46384 45.3359C5.3294 45.5884 5.40955 45.9054 5.63706 46.0456L9.47633 48.4498C9.55647 48.4975 9.63662 48.5227 9.71935 48.5227Z" fill="#14100D"/>
<path fill-rule="evenodd" clip-rule="evenodd" d="M23.1688 19.9412C23.3446 19.9412 23.5075 19.8458 23.5877 19.6775C23.7221 19.4306 23.642 19.1136 23.4144 18.9706L22.2821 18.2636C22.0675 18.1177 21.7702 18.2075 21.6357 18.4544C21.5013 18.7012 21.5814 19.0239 21.8089 19.1641L22.9439 19.8711C23.0137 19.9159 23.0939 19.9412 23.1714 19.9412H23.1688Z" fill="#14100D"/>
<path fill-rule="evenodd" clip-rule="evenodd" d="M20.9161 18.5232C21.079 18.5232 21.2419 18.4306 21.3246 18.2623C21.4591 18.0154 21.3763 17.6984 21.1488 17.5526L20.0164 16.8456C19.8018 16.7054 19.5045 16.7867 19.3701 17.0392C19.2357 17.2861 19.3158 17.603 19.5433 17.7461L20.6757 18.4531C20.7558 18.5007 20.8386 18.5232 20.9161 18.5232Z" fill="#14100D"/>
<path fill-rule="evenodd" clip-rule="evenodd" d="M18.665 17.1068C18.8279 17.1068 18.9882 17.0142 19.0838 16.8459C19.2079 16.599 19.1381 16.2792 18.908 16.1333L17.7782 15.4264C17.5507 15.2889 17.2534 15.3675 17.1138 15.62C16.9923 15.8668 17.0621 16.1838 17.287 16.3269L18.4194 17.0338C18.5021 17.0815 18.5823 17.104 18.6624 17.104L18.665 17.1068Z" fill="#14100D"/>
<path fill-rule="evenodd" clip-rule="evenodd" d="M22.1013 46.3997C22.2642 46.3997 22.427 46.3043 22.5201 46.1388C22.6364 45.8892 22.5563 45.5694 22.3288 45.4291L20.4027 44.2312C20.1726 44.091 19.8908 44.1779 19.7563 44.422C19.6167 44.6689 19.6969 44.9887 19.9296 45.1289L21.8557 46.3268C21.9358 46.3717 22.0185 46.3969 22.0987 46.3969L22.1013 46.3997Z" fill="#14100D"/>
<path fill-rule="evenodd" clip-rule="evenodd" d="M22.0935 54.6619C22.2563 54.6619 22.4192 54.5694 22.5123 54.3982C22.6286 54.1514 22.5485 53.8372 22.321 53.6913L20.3949 52.4934C20.1648 52.3532 19.883 52.4373 19.7485 52.687C19.6089 52.9339 19.6891 53.2509 19.9218 53.394L21.8479 54.5946C21.928 54.6395 22.0107 54.6619 22.0909 54.6619H22.0935Z" fill="#14100D"/>
<path fill-rule="evenodd" clip-rule="evenodd" d="M22.1221 29.8854C22.285 29.8854 22.4479 29.7928 22.541 29.6245C22.6573 29.372 22.5772 29.055 22.3677 28.9148L20.4391 27.7169C20.2115 27.5766 19.9142 27.658 19.7798 27.9049C19.6402 28.1545 19.7203 28.4687 19.953 28.6146L21.8791 29.8125C21.9592 29.8602 22.042 29.8826 22.1221 29.8826V29.8854Z" fill="#14100D"/>
<path fill-rule="evenodd" clip-rule="evenodd" d="M22.1091 38.1412C22.272 38.1412 22.4348 38.0486 22.5279 37.8803C22.6443 37.6306 22.5641 37.3164 22.3366 37.1705L20.4105 35.9727C20.1804 35.8324 19.8986 35.9138 19.7642 36.1634C19.6246 36.4103 19.7047 36.7301 19.9374 36.8704L21.8635 38.0682C21.9436 38.1159 22.0264 38.1412 22.1065 38.1412H22.1091Z" fill="#14100D"/>
<path fill-rule="evenodd" clip-rule="evenodd" d="M9.7506 23.7515C9.91348 23.7515 10.0764 23.659 10.1694 23.4934C10.309 23.241 10.2289 22.9268 9.99621 22.7837L6.14143 20.3796C5.92685 20.2365 5.62953 20.315 5.49509 20.5675C5.36065 20.8172 5.4408 21.137 5.66831 21.2773L9.50758 23.6814C9.58772 23.7291 9.66787 23.7515 9.7506 23.7515Z" fill="#14100D"/>
<path fill-rule="evenodd" clip-rule="evenodd" d="M9.73498 32.0134C9.89785 32.0134 10.0607 31.9152 10.1538 31.7553C10.2934 31.5028 10.2133 31.1858 9.98059 31.0456L6.12581 28.6386C5.91122 28.4927 5.61391 28.5825 5.47947 28.8294C5.34503 29.079 5.42518 29.3932 5.65269 29.5391L9.49195 31.9433C9.5721 31.9909 9.65225 32.0134 9.73498 32.0134Z" fill="#14100D"/>
<path fill-rule="evenodd" clip-rule="evenodd" d="M4.94526 18.5781L17.8126 26.6714L17.8074 32.2932L4.9375 24.2027L4.94526 18.5781Z" fill="#00AF81"/>
<path fill-rule="evenodd" clip-rule="evenodd" d="M17.3412 26.9711L5.41488 19.481L5.40971 23.9049L17.336 31.3951L17.3412 26.9711ZM17.5609 32.7416L4.69356 24.6511C4.5462 24.5586 4.45312 24.3846 4.45312 24.2051L4.46088 18.5805C4.46088 18.3953 4.55395 18.2298 4.70132 18.1316C4.85127 18.0447 5.02708 18.0447 5.17703 18.1316L18.0573 26.2277C18.2047 26.3203 18.3003 26.4914 18.3003 26.6738L18.2926 32.2956C18.2926 32.4779 18.1943 32.6519 18.0496 32.7416C17.9668 32.7893 17.8867 32.8118 17.8065 32.8118C17.7264 32.8118 17.6437 32.7893 17.5635 32.7416H17.5609Z" fill="#14100D"/>
<path fill-rule="evenodd" clip-rule="evenodd" d="M4.93744 26.6738L17.8048 34.7699L17.7996 40.3889L4.92969 32.2928L4.93744 26.6738Z" fill="#00AF81"/>
<path fill-rule="evenodd" clip-rule="evenodd" d="M17.323 35.2273L5.39667 27.7371L5.3915 32.1611L17.3178 39.6512L17.323 35.2273ZM17.5453 41.0006L4.67794 32.9045C4.53057 32.8119 4.4375 32.6436 4.4375 32.4528L4.44526 26.8338C4.44526 26.6487 4.53833 26.4776 4.68569 26.3878C4.83565 26.2952 5.01145 26.2952 5.1614 26.3878L18.0417 34.4783C18.189 34.5708 18.2847 34.7448 18.2847 34.9271L18.277 40.5461C18.277 40.7313 18.1787 40.8996 18.0339 40.995C17.9512 41.0399 17.871 41.0651 17.7909 41.0651C17.7108 41.0651 17.628 41.0371 17.5479 40.995L17.5453 41.0006Z" fill="#14100D"/>
<path fill-rule="evenodd" clip-rule="evenodd" d="M4.92182 34.9375L17.7892 43.028L17.784 48.6498L4.91406 40.5565L4.92182 34.9375Z" fill="#00AF81"/>
<path fill-rule="evenodd" clip-rule="evenodd" d="M17.3151 43.4851L5.38886 35.9893L5.38369 40.4133L17.31 47.9034L17.3151 43.4851ZM17.5375 49.25L4.67013 41.1595C4.52276 41.0669 4.42969 40.8986 4.42969 40.7135L4.43744 35.0945C4.43744 34.9093 4.53052 34.7382 4.67788 34.6456C4.82783 34.553 5.00364 34.553 5.15359 34.6456L18.0339 42.7361C18.1812 42.8287 18.2769 43.0026 18.2769 43.1877L18.2691 48.8068C18.2691 48.9919 18.1709 49.163 18.0261 49.2528C17.9434 49.3005 17.8632 49.3229 17.7831 49.3229C17.7029 49.3229 17.6202 49.3005 17.5401 49.2528L17.5375 49.25Z" fill="#14100D"/>
<path fill-rule="evenodd" clip-rule="evenodd" d="M4.90619 43.1914L17.7736 51.2875L17.7658 56.9065L4.89844 48.8132L4.90619 43.1914Z" fill="#00AF81"/>
<path fill-rule="evenodd" clip-rule="evenodd" d="M17.2995 51.7382L5.37323 44.248L5.36806 48.672L17.2943 56.1677L17.2995 51.7382ZM17.5219 57.5115L4.6545 49.421C4.50714 49.3284 4.41406 49.1517 4.41406 48.9693L4.42182 43.3475C4.42182 43.1652 4.51489 42.994 4.66226 42.9015C4.81221 42.8089 4.98801 42.8089 5.13796 42.9015L18.0182 50.9919C18.1656 51.0845 18.2613 51.2584 18.2613 51.4436L18.2535 57.0626C18.2535 57.2478 18.1553 57.4189 18.0105 57.5115C17.9278 57.5563 17.8476 57.5816 17.7675 57.5816C17.6873 57.5816 17.6046 57.5535 17.5244 57.5115H17.5219Z" fill="#14100D"/>
</g>
<defs>
<clipPath id="clip0_2044_8004">
<rect width="29.9437" height="73.1481" fill="white" transform="translate(0.5625)"/>
</clipPath>
</defs>
</svg>
