<svg width="26" height="26" viewBox="0 0 26 26" fill="none" xmlns="http://www.w3.org/2000/svg">
<path d="M5.80021 21.8534H2.60007C2.1757 21.8534 1.76872 21.6902 1.46865 21.3999C1.16858 21.1095 1 20.7158 1 20.3051V3.27478C1 2.86417 1.16858 2.47037 1.46865 2.18002C1.76872 1.88968 2.1757 1.72656 2.60007 1.72656H13.9382C14.3622 1.72665 14.7689 1.88962 15.0689 2.17967L18.1325 5.14399C18.4322 5.43423 18.6007 5.82773 18.6008 6.23806V11.0159" stroke="black" stroke-width="1.5" stroke-linecap="round" stroke-linejoin="round"/>
<path d="M21.8011 19.1016V23.8329L17.801 24.9507L13.8008 23.8329V19.1016" stroke="black" stroke-width="1.5" stroke-linecap="round" stroke-linejoin="round"/>
<path d="M25.0002 18.1406L17.7999 15.6016L10.5996 18.1406L17.7999 20.3081L25.0002 18.1406Z" stroke="black" stroke-width="1.5" stroke-linecap="round" stroke-linejoin="round"/>
<path d="M10.5996 18.1406V21.5983" stroke="black" stroke-width="1.5" stroke-linecap="round" stroke-linejoin="round"/>
<path d="M4.19922 5.59375H5.79929" stroke="black" stroke-width="1.5" stroke-linecap="round" stroke-linejoin="round"/>
<path d="M9 5.59375H13.8002" stroke="black" stroke-width="1.5" stroke-linecap="round" stroke-linejoin="round"/>
<path d="M4.19922 9.46875H5.79929" stroke="black" stroke-width="1.5" stroke-linecap="round" stroke-linejoin="round"/>
<path d="M9 9.46875H13.8002" stroke="black" stroke-width="1.5" stroke-linecap="round" stroke-linejoin="round"/>
<path d="M4.19922 13.3359H5.79929" stroke="black" stroke-width="1.5" stroke-linecap="round" stroke-linejoin="round"/>
<path d="M4.19922 17.2109H5.79929" stroke="black" stroke-width="1.5" stroke-linecap="round" stroke-linejoin="round"/>
<path d="M9 13.3359H13.8002" stroke="black" stroke-width="1.5" stroke-linecap="round" stroke-linejoin="round"/>
</svg>
