<?xml version="1.0" encoding="utf-8"?>
<!-- Generator: Adobe Illustrator 22.1.0, SVG Export Plug-In . SVG Version: 6.00 Build 0)  -->
<svg version="1.1" id="Layer_1" xmlns="http://www.w3.org/2000/svg" xmlns:xlink="http://www.w3.org/1999/xlink" x="0px" y="0px"
	 viewBox="0 0 24 24" style="enable-background:new 0 0 24 24;" xml:space="preserve">
<title>office-stamp-document</title>
<g>
	<path d="M15.75,23.998c-0.414,0-0.75-0.336-0.75-0.75s0.336-0.75,0.75-0.75h6.524c0.122,0,0.222-0.102,0.221-0.226V7.498H18.25
		c-0.965,0-1.75-0.785-1.75-1.75v-4.25H7.721C7.599,1.499,7.5,1.6,7.5,1.724V6c0,0.414-0.336,0.75-0.75,0.75S6,6.414,6,6V1.727
		C5.998,1.269,6.176,0.836,6.501,0.508C6.826,0.181,7.258,0,7.718-0.002h9.703c0.198,0,0.393,0.081,0.532,0.222l5.824,5.87
		c0.14,0.141,0.218,0.329,0.218,0.528v0.057C23.998,6.701,24,6.724,24,6.748c0,0.025-0.002,0.049-0.005,0.073V22.27
		c0.002,0.949-0.768,1.724-1.718,1.728c0,0-0.001,0-0.001,0H15.75z M18,5.748c0,0.138,0.112,0.25,0.25,0.25h3.323L18,2.397V5.748z"
		/>
	<path d="M12.75,11.248c-0.414,0-0.75-0.336-0.75-0.75s0.336-0.75,0.75-0.75h8.054c0.414,0,0.75,0.336,0.75,0.75
		s-0.336,0.75-0.75,0.75H12.75z"/>
	<path d="M18,20.248c-0.414,0-0.75-0.336-0.75-0.75s0.336-0.75,0.75-0.75h2.804c0.414,0,0.75,0.336,0.75,0.75s-0.336,0.75-0.75,0.75
		H18z"/>
	<path d="M14.25,15.748c-0.414,0-0.75-0.336-0.75-0.75s0.336-0.75,0.75-0.75h6.554c0.414,0,0.75,0.336,0.75,0.75
		s-0.336,0.75-0.75,0.75H14.25z"/>
	<path d="M1.5,23.998c-0.345,0-0.644-0.233-0.728-0.568l-0.75-3c-0.003-0.012-0.006-0.025-0.008-0.038
		c-0.003-0.019-0.006-0.035-0.007-0.052c-0.003-0.021-0.005-0.04-0.006-0.058C0.001,20.271,0,20.259,0,20.248
		c0-2.068,1.682-3.75,3.75-3.75H4.5v-1.514c-0.403-0.303-0.746-0.689-0.998-1.125c-0.501-0.867-0.634-1.878-0.375-2.845
		c0.259-0.968,0.88-1.776,1.747-2.277c0.571-0.329,1.217-0.504,1.87-0.504c0.328,0,0.656,0.043,0.976,0.129
		c0.968,0.259,1.776,0.88,2.277,1.747c0.501,0.867,0.634,1.878,0.375,2.845C10.154,13.769,9.67,14.483,9,14.985v1.513h0.75
		c2.068,0,3.75,1.682,3.75,3.75c0,0.012-0.001,0.025-0.002,0.038c-0.001,0.019-0.003,0.036-0.006,0.053
		c-0.002,0.019-0.004,0.037-0.008,0.055c-0.001,0.006-0.002,0.012-0.003,0.018l-0.754,3.018c-0.084,0.334-0.383,0.568-0.728,0.568
		H1.5z M11.414,22.498l0.375-1.5H1.711l0.375,1.5H11.414z M11.871,19.498c-0.313-0.879-1.159-1.5-2.121-1.5h-1.5
		c-0.414,0-0.75-0.336-0.75-0.75v-2.666c0-0.267,0.144-0.516,0.375-0.65c0.52-0.3,0.893-0.785,1.048-1.366
		c0.156-0.581,0.076-1.187-0.225-1.707C8.298,10.165,7.55,9.734,6.745,9.734c-0.392,0-0.779,0.104-1.12,0.301
		c-0.521,0.301-0.893,0.786-1.048,1.366c-0.156,0.581-0.076,1.187,0.225,1.707c0.197,0.342,0.482,0.626,0.823,0.824
		C5.856,14.066,6,14.315,6,14.582v2.666c0,0.414-0.336,0.75-0.75,0.75h-1.5c-0.962,0-1.808,0.621-2.121,1.5H11.871z"/>
</g>
</svg>
